<mxfile host="app.diagrams.net" modified="2024-01-08T14:53:05.515Z" agent="Mozilla/5.0 (Windows NT 10.0; Win64; x64) AppleWebKit/537.36 (KHTML, like Gecko) Chrome/118.0.0.0 YaBrowser/23.11.0.0 Safari/537.36" etag="OqNdHex120dS61al1DzS" version="22.1.17" type="github">
  <diagram name="Страница — 1" id="rNBMpU3O79zzvQwxEwT8">
    <mxGraphModel dx="880" dy="455" grid="1" gridSize="10" guides="1" tooltips="1" connect="1" arrows="1" fold="1" page="1" pageScale="1" pageWidth="827" pageHeight="1169" math="0" shadow="0">
      <root>
        <mxCell id="0" />
        <mxCell id="1" parent="0" />
        <UserObject label="" tooltip="MikroTik RB2011" id="M3h9QTwmvYOQUAOVeUot-1">
          <mxCell style="shape=image;verticalLabelPosition=bottom;labelBackgroundColor=#ffffff;verticalAlign=top;aspect=fixed;imageAspect=0;image=data:image/svg+xml,PHN2ZyB4bWxucz0iaHR0cDovL3d3dy53My5vcmcvMjAwMC9zdmciIHdpZHRoPSI0NDMiIGhlaWdodD0iNDQuNSIgdmVyc2lvbj0iMS4xIiB2aWV3Qm94PSIzNjUgOTkgMjM1LjI3MzI2IDE0LjQ0MjcyMiI+PHJlY3QgeD0iMzY1IiB5PSI5NC40MDUiIHdpZHRoPSIyMzUuMjciIGhlaWdodD0iMjMuNjM0IiBmaWxsPSIjMWExYTFhIi8+PHJlY3QgeD0iMzg3Ljg1IiB5PSIxMDcuMDQiIHdpZHRoPSI0Mi4xNyIgaGVpZ2h0PSI3LjU2NTQiIGZpbGw9IiNlYmViZWIiIHN0cm9rZT0iIzAwMCIgc3Ryb2tlLWxpbmVqb2luPSJyb3VuZCIgc3Ryb2tlLXdpZHRoPSIuMTA2MjIiLz48ZyBmaWxsPSIjMWExYTFhIj48cGF0aCBkPSJtNDI5LjQzIDExMi41MmgtMS43NTk1bDNlLTMgMS4wNjUzLTAuNjQwMzIgNS43ZS00djAuMzk4ODZoLTIuMDYzOWw0LjhlLTQgLTAuMzk5OWgtMC42NjY1di0xLjA2NTRoLTEuNzUxNHYtNC41ODY2bDYuODc3OS0wLjAxNDl6Ii8+PHBhdGggZD0ibTQyMC45NSAxMTIuNTJoLTEuNzU5NWwzZS0zIDEuMDY1My0wLjY0MDMyIDUuN2UtNHYwLjM5ODg2aC0yLjA2MzlsNC44ZS00IC0wLjM5OTloLTAuNjY2NXYtMS4wNjU0aC0xLjc1MTR2LTQuNTg2Nmw2Ljg3NzktMC4wMTQ5eiIvPjxwYXRoIGQ9Im00MTIuNDcgMTEyLjUyaC0xLjc1OTVsM2UtMyAxLjA2NTMtMC42NDAzMiA1LjdlLTR2MC4zOTg4NmgtMi4wNjM5bDQuOGUtNCAtMC4zOTk5aC0wLjY2NjV2LTEuMDY1NGgtMS43NTE0di00LjU4NjZsNi44Nzc5LTAuMDE0OXoiLz48cGF0aCBkPSJtNDAzLjk4IDExMi41MmgtMS43NTk1bDNlLTMgMS4wNjUzLTAuNjQwMzIgNS43ZS00djAuMzk4ODZoLTIuMDYzOWw0LjhlLTQgLTAuMzk5OWgtMC42NjY1di0xLjA2NTRoLTEuNzUxNHYtNC41ODY2bDYuODc3OS0wLjAxNDl6Ii8+PHBhdGggZD0ibTM5NS41IDExMi41MmgtMS43NTk1bDNlLTMgMS4wNjUzLTAuNjQwMzIgNS43ZS00djAuMzk4ODZoLTIuMDYzOWw0LjhlLTQgLTAuMzk5OWgtMC42NjY1di0xLjA2NTRoLTEuNzUxNHYtNC41ODY2bDYuODc3OS0wLjAxNDl6Ii8+PC9nPjxyZWN0IHg9IjQ1MS45NyIgeT0iMTA3LjE3IiB3aWR0aD0iNDIuMTciIGhlaWdodD0iNy41NjU0IiBmaWxsPSIjZWJlYmViIiBzdHJva2U9IiMwMDAiIHN0cm9rZS1saW5lam9pbj0icm91bmQiIHN0cm9rZS13aWR0aD0iLjEwNjIyIi8+PGcgZmlsbD0iIzFhMWExYSI+PHBhdGggZD0ibTQ5My41NiAxMTIuNjVoLTEuNzU5NWwzZS0zIDEuMDY1My0wLjY0MDMyIDUuN2UtNHYwLjM5ODg2aC0yLjA2MzlsNC44ZS00IC0wLjM5OTloLTAuNjY2NXYtMS4wNjU0aC0xLjc1MTR2LTQuNTg2Nmw2Ljg3NzktMC4wMTQ5eiIvPjxwYXRoIGQ9Im00ODUuMDcgMTEyLjY1aC0xLjc1OTVsM2UtMyAxLjA2NTMtMC42NDAzMiA1LjdlLTR2MC4zOTg4NmgtMi4wNjM5bDQuOGUtNCAtMC4zOTk5aC0wLjY2NjV2LTEuMDY1NGgtMS43NTE0di00LjU4NjZsNi44Nzc5LTAuMDE0OXoiLz48cGF0aCBkPSJtNDc2LjU5IDExMi42NWgtMS43NTk1bDNlLTMgMS4wNjUzLTAuNjQwMzIgNS43ZS00djAuMzk4ODZoLTIuMDYzOWw0LjhlLTQgLTAuMzk5OWgtMC42NjY1di0xLjA2NTRoLTEuNzUxNHYtNC41ODY2bDYuODc3OS0wLjAxNDl6Ii8+PHBhdGggZD0ibTQ2OC4xMSAxMTIuNjVoLTEuNzU5NWwzZS0zIDEuMDY1My0wLjY0MDMyIDUuN2UtNHYwLjM5ODg2aC0yLjA2MzlsNC44ZS00IC0wLjM5OTloLTAuNjY2NXYtMS4wNjU0aC0xLjc1MTR2LTQuNTg2Nmw2Ljg3NzktMC4wMTQ5eiIvPjxwYXRoIGQ9Im00NTkuNjMgMTEyLjY1aC0xLjc1OTVsM2UtMyAxLjA2NTMtMC42NDAzMiA1LjdlLTR2MC4zOTg4NmgtMi4wNjM5bDQuOGUtNCAtMC4zOTk5aC0wLjY2NjV2LTEuMDY1NGgtMS43NTE0di00LjU4NjZsNi44Nzc5LTAuMDE0OXoiLz48L2c+PGcgdHJhbnNmb3JtPSJzY2FsZSgxLjA1MDggLjk1MTY3KSIgZmlsbD0iI2ZmZiIgYXJpYS1sYWJlbD0iR0lHQUJJVCBFVEhFUk5FVCI+PHBhdGggZD0ibTM4MS42OCAxMTAuMDZ2LTAuMzM5ODloLTAuMjc5NzF2LTAuMTQwNzFoMC40NDkyM3YwLjU0MzMycS0wLjA5OTIgMC4wNzAzLTAuMjE4NjggMC4xMDY4LTAuMTE5NTEgMC4wMzU2LTAuMjU1MTMgMC4wMzU2LTAuMjk2NjcgMC0wLjQ2NDQ5LTAuMTcyOTEtMC4xNjY5OC0wLjE3Mzc2LTAuMTY2OTgtMC40ODMxNCAwLTAuMzEwMjMgMC4xNjY5OC0wLjQ4MzE0IDAuMTY3ODItMC4xNzM3NiAwLjQ2NDQ5LTAuMTczNzYgMC4xMjM3NSAwIDAuMjM0NzkgMC4wMzA1IDAuMTExODggMC4wMzA1IDAuMjA1OTcgMC4wODk4djAuMTgyMjRxLTAuMDk0OS0wLjA4MDUtMC4yMDE3NC0wLjEyMTIxLTAuMTA2NzktMC4wNDA3LTAuMjI0NjEtMC4wNDA3LTAuMjMyMjUgMC0wLjM0OTIyIDAuMTI5NjktMC4xMTYxMiAwLjEyOTY4LTAuMTE2MTIgMC4zODY1MSAwIDAuMjU1OTggMC4xMTYxMiAwLjM4NTY2IDAuMTE2OTcgMC4xMjk2OSAwLjM0OTIyIDAuMTI5NjkgMC4wOTA3IDAgMC4xNjE4OS0wLjAxNTMgMC4wNzEyLTAuMDE2MSAwLjEyNzk5LTAuMDQ5MnoiIHN0eWxlPSIiLz48cGF0aCBkPSJtMzgyLjE3IDEwOC45OGgwLjE3MTIydjEuMjY1NWgtMC4xNzEyMnoiIHN0eWxlPSIiLz48cGF0aCBkPSJtMzgzLjU0IDExMC4wNnYtMC4zMzk4OWgtMC4yNzk3MnYtMC4xNDA3MWgwLjQ0OTI0djAuNTQzMzJxLTAuMDk5MiAwLjA3MDMtMC4yMTg2OSAwLjEwNjgtMC4xMTk1MSAwLjAzNTYtMC4yNTUxMyAwLjAzNTYtMC4yOTY2NiAwLTAuNDY0NDktMC4xNzI5MS0wLjE2Njk4LTAuMTczNzYtMC4xNjY5OC0wLjQ4MzE0IDAtMC4zMTAyMyAwLjE2Njk4LTAuNDgzMTQgMC4xNjc4My0wLjE3Mzc2IDAuNDY0NDktMC4xNzM3NiAwLjEyMzc1IDAgMC4yMzQ3OSAwLjAzMDUgMC4xMTE4OSAwLjAzMDUgMC4yMDU5NyAwLjA4OTh2MC4xODIyNHEtMC4wOTQ5LTAuMDgwNS0wLjIwMTczLTAuMTIxMjEtMC4xMDY4LTAuMDQwNy0wLjIyNDYyLTAuMDQwNy0wLjIzMjI0IDAtMC4zNDkyMSAwLjEyOTY5LTAuMTE2MTMgMC4xMjk2OC0wLjExNjEzIDAuMzg2NTEgMCAwLjI1NTk4IDAuMTE2MTMgMC4zODU2NiAwLjExNjk3IDAuMTI5NjkgMC4zNDkyMSAwLjEyOTY5IDAuMDkwNyAwIDAuMTYxOS0wLjAxNTMgMC4wNzEyLTAuMDE2MSAwLjEyNzk5LTAuMDQ5MnoiIHN0eWxlPSIiLz48cGF0aCBkPSJtMzg0LjQ1IDEwOS4xNC0wLjIzMjI0IDAuNjI5NzhoMC40NjUzNHptLTAuMDk2Ni0wLjE2ODY3aDAuMTk0MWwwLjQ4MjI5IDEuMjY1NWgtMC4xNzhsLTAuMTE1MjctMC4zMjQ2M2gtMC41NzA0NWwtMC4xMTUyNyAwLjMyNDYzaC0wLjE4MDU0eiIgc3R5bGU9IiIvPjxwYXRoIGQ9Im0zODUuMzggMTA5LjY0djAuNDYzNjVoMC4yNzQ2M3EwLjEzODE2IDAgMC4yMDQyNy0wLjA1NjggMC4wNjctMC4wNTc2IDAuMDY3LTAuMTc1NDYgMC0wLjExODY2LTAuMDY3LTAuMTc0NjEtMC4wNjYxLTAuMDU2OC0wLjIwNDI3LTAuMDU2OHptMC0wLjUyMDQzdjAuMzgxNDJoMC4yNTM0NHEwLjEyNTQ0IDAgMC4xODY0Ny0wLjA0NjYgMC4wNjE5LTAuMDQ3NSAwLjA2MTktMC4xNDQxIDAtMC4wOTU4LTAuMDYxOS0wLjE0MzI0LTAuMDYxLTAuMDQ3NS0wLjE4NjQ3LTAuMDQ3NXptLTAuMTcxMjItMC4xNDA3aDAuNDM3MzdxMC4xOTU4IDAgMC4zMDE3NSAwLjA4MTR0MC4xMDU5NSAwLjIzMTM5cTAgMC4xMTYxMy0wLjA1NDMgMC4xODQ3OC0wLjA1NDIgMC4wNjg3LTAuMTU5MzUgMC4wODU2IDAuMTI2MyAwLjAyNzEgMC4xOTU4IDAuMTEzNTggMC4wNzA0IDAuMDg1NiAwLjA3MDQgMC4yMTQ0NSAwIDAuMTY5NTItMC4xMTUyNyAwLjI2MTkxLTAuMTE1MjggMC4wOTI0LTAuMzI4MDMgMC4wOTI0aC0wLjQ1NDMyeiIgc3R5bGU9IiIvPjxwYXRoIGQ9Im0zODYuNCAxMDguOThoMC4xNzEyMnYxLjI2NTVoLTAuMTcxMjJ6IiBzdHlsZT0iIi8+PHBhdGggZD0ibTM4Ni43NCAxMDguOThoMS4wNzA1djAuMTQ0MDloLTAuNDQ5MjR2MS4xMjE0aC0wLjE3MjA2di0xLjEyMTRoLTAuNDQ5MjR6IiBzdHlsZT0iIi8+PHBhdGggZD0ibTM4OC41MyAxMDguOThoMC44MDAxNXYwLjE0NDA5aC0wLjYyODkzdjAuMzc0NjRoMC42MDI2NXYwLjE0NDFoLTAuNjAyNjV2MC40NTg1NmgwLjY0NDE4djAuMTQ0MDloLTAuODE1NHoiIHN0eWxlPSIiLz48cGF0aCBkPSJtMzg5LjQ1IDEwOC45OGgxLjA3MDV2MC4xNDQwOWgtMC40NDkyM3YxLjEyMTRoLTAuMTcyMDd2LTEuMTIxNGgtMC40NDkyM3oiIHN0eWxlPSIiLz48cGF0aCBkPSJtMzkwLjY5IDEwOC45OGgwLjE3MTIxdjAuNTE4NzNoMC42MjIxNXYtMC41MTg3M2gwLjE3MTIydjEuMjY1NWgtMC4xNzEyMnYtMC42MDI2NWgtMC42MjIxNXYwLjYwMjY1aC0wLjE3MTIxeiIgc3R5bGU9IiIvPjxwYXRoIGQ9Im0zOTEuOTkgMTA4Ljk4aDAuODAwMTR2MC4xNDQwOWgtMC42Mjg5MnYwLjM3NDY0aDAuNjAyNjV2MC4xNDQxaC0wLjYwMjY1djAuNDU4NTZoMC42NDQxOHYwLjE0NDA5aC0wLjgxNTR6IiBzdHlsZT0iIi8+PHBhdGggZD0ibTM5My42OSAxMDkuNjVxMC4wNTUxIDAuMDE4NiAwLjEwNjggMC4wNzk3IDAuMDUyNSAwLjA2MSAwLjEwNTExIDAuMTY3ODJsMC4xNzM3NiAwLjM0NTgzaC0wLjE4MzkzbC0wLjE2MTktMC4zMjQ2M3EtMC4wNjI3LTAuMTI3MTUtMC4xMjIwNS0wLjE2ODY4LTAuMDU4NS0wLjA0MTUtMC4xNjAyLTAuMDQxNWgtMC4xODY0OHYwLjUzNDg0aC0wLjE3MTIydi0xLjI2NTVoMC4zODY1MnEwLjIxNjk4IDAgMC4zMjM3OCAwLjA5MDd0MC4xMDY4IDAuMjczNzhxMCAwLjExOTUxLTAuMDU1OSAwLjE5ODM0LTAuMDU1MSAwLjA3ODgtMC4xNjEwNSAwLjEwOTM0em0tMC40Mjg4OS0wLjUzMTQ1djAuNDQ5MjNoMC4yMTUzcTAuMTIzNzUgMCAwLjE4NjQ3LTAuMDU2OCAwLjA2MzYtMC4wNTc2IDAuMDYzNi0wLjE2ODY3IDAtMC4xMTEwNC0wLjA2MzYtMC4xNjY5OC0wLjA2MjctMC4wNTY4LTAuMTg2NDctMC4wNTY4eiIgc3R5bGU9IiIvPjxwYXRoIGQ9Im0zOTQuMyAxMDguOThoMC4yMzA1NWwwLjU2MTEyIDEuMDU4N3YtMS4wNTg3aDAuMTY2MTR2MS4yNjU1aC0wLjIzMDU1bC0wLjU2MTEyLTEuMDU4N3YxLjA1ODdoLTAuMTY2MTR6IiBzdHlsZT0iIi8+PHBhdGggZD0ibTM5NS42IDEwOC45OGgwLjgwMDE0djAuMTQ0MDloLTAuNjI4OTN2MC4zNzQ2NGgwLjYwMjY2djAuMTQ0MWgtMC42MDI2NnYwLjQ1ODU2aDAuNjQ0MTl2MC4xNDQwOWgtMC44MTU0eiIgc3R5bGU9IiIvPjxwYXRoIGQ9Im0zOTYuNTIgMTA4Ljk4aDEuMDcwNXYwLjE0NDA5aC0wLjQ0OTI0djEuMTIxNGgtMC4xNzIwNnYtMS4xMjE0aC0wLjQ0OTIzeiIgc3R5bGU9IiIvPjwvZz48ZyB0cmFuc2Zvcm09InNjYWxlKDEuMDUwOCAuOTUxNjcpIiBmaWxsPSIjZmZmIiBhcmlhLWxhYmVsPSJSQjIwMTEiPjxwYXRoIGQ9Im0zNTEuNDkgMTA5LjI2cTAuMjE3MDkgMCAwLjMxMDM4LTAuMDgwNyAwLjA5NTEtMC4wODA3IDAuMDk1MS0wLjI2NTUzIDAtMC4xODI5OS0wLjA5NTEtMC4yNjE5NC0wLjA5MzMtMC4wNzg5LTAuMzEwMzgtMC4wNzg5aC0wLjI5MDY1djAuNjg3MTV6bS0wLjI5MDY1IDAuNDc3MjN2MS4wMTM3aC0wLjY5MDczdi0yLjY3ODZoMS4wNTQ5cTAuNTI5MjYgMCAwLjc3NTA1IDAuMTc3NjEgMC4yNDc1OSAwLjE3NzYyIDAuMjQ3NTkgMC41NjE1NiAwIDAuMjY1NTMtMC4xMjkxNyAwLjQzNTk3LTAuMTI3MzkgMC4xNzA0NC0wLjM4NTc0IDAuMjUxMTggMC4xNDE3NCAwLjAzMjMgMC4yNTI5NyAwLjE0NzExIDAuMTEzMDMgMC4xMTMwMyAwLjIyNzg1IDAuMzQ0NDdsMC4zNzQ5NyAwLjc2MDcxaC0wLjczNTU4bC0wLjMyNjUzLTAuNjY1NjJxLTAuMDk4Ny0wLjIwMDk0LTAuMjAwOTQtMC4yNzQ1LTAuMTAwNDctMC4wNzM2LTAuMjY5MTItMC4wNzM2eiIgc3R5bGU9IiIvPjxwYXRoIGQ9Im0zNTQuNDEgMTA5LjExcTAuMTYzMjcgMCAwLjI0NzU5LTAuMDcxOCAwLjA4NDMtMC4wNzE4IDAuMDg0My0wLjIxMTcxIDAtMC4xMzgxNC0wLjA4NDMtMC4yMDk5MS0wLjA4NDMtMC4wNzM2LTAuMjQ3NTktMC4wNzM2aC0wLjM4MjE0djAuNTY2OTR6bTAuMDIzMyAxLjE3MTZxMC4yMDgxMSAwIDAuMzEyMTctMC4wODc5IDAuMTA1ODUtMC4wODc5IDAuMTA1ODUtMC4yNjU1MyAwLTAuMTc0MDMtMC4xMDQwNS0wLjI2MDE1LTAuMTA0MDYtMC4wODc5LTAuMzEzOTctMC4wODc5aC0wLjQwNTQ3djAuNzAxNXptMC42NDIyOS0wLjk2MzQ0cTAuMjIyNDcgMC4wNjQ2IDAuMzQ0NDcgMC4yMzg2MiAwLjEyMiAwLjE3NDAzIDAuMTIyIDAuNDI3IDAgMC4zODc1My0wLjI2MTk0IDAuNTc3Ny0wLjI2MTk0IDAuMTkwMTgtMC43OTY1OSAwLjE5MDE4aC0xLjE0NjR2LTIuNjc4NmgxLjAzN3EwLjU1Nzk3IDAgMC44MDczNSAwLjE2ODY0IDAuMjUxMTggMC4xNjg2NSAwLjI1MTE4IDAuNTQwMDMgMCAwLjE5NTU2LTAuMDkxNSAwLjMzMzcxLTAuMDkxNSAwLjEzNjM1LTAuMjY1NTMgMC4yMDI3M3oiIHN0eWxlPSIiLz48cGF0aCBkPSJtMzU2Ljg2IDExMC4yNGgxLjE3ODd2MC41MDc3NGgtMS45NDY2di0wLjUwNzc0bDAuOTc3NzktMC44NjI5N3EwLjEzMDk4LTAuMTE4NDEgMC4xOTM3Ny0wLjIzMTQ0IDAuMDYyOC0wLjExMzAzIDAuMDYyOC0wLjIzNTAzIDAtMC4xODgzOC0wLjEyNzM4LTAuMzAzMi0wLjEyNTU5LTAuMTE0ODItMC4zMzU1LTAuMTE0ODItMC4xNjE0NyAwLTAuMzUzNDQgMC4wNy0wLjE5MTk3IDAuMDY4Mi0wLjQxMDg1IDAuMjA0NTN2LTAuNTg4NDdxMC4yMzMyMy0wLjA3NzIgMC40NjEwOS0wLjExNjYyIDAuMjI3ODUtMC4wNDEzIDAuNDQ2NzMtMC4wNDEzIDAuNDgwODIgMCAwLjc0NjM1IDAuMjExNzEgMC4yNjczMyAwLjIxMTcxIDAuMjY3MzMgMC41OTAyNiAwIDAuMjE4ODktMC4xMTMwMyAwLjQwOTA2LTAuMTEzMDMgMC4xODgzOC0wLjQ3NTQ0IDAuNTA1OTR6IiBzdHlsZT0iIi8+PHBhdGggZD0ibTM2MC4wNCAxMDkuNDFxMC0wLjUwMjM1LTAuMDk1MS0wLjcwNjg4LTAuMDkzMy0wLjIwNjMyLTAuMzE1NzYtMC4yMDYzMi0wLjIyMjQ3IDAtMC4zMTc1NiAwLjIwNjMyLTAuMDk1MSAwLjIwNDUzLTAuMDk1MSAwLjcwNjg4IDAgMC41MDc3MyAwLjA5NTEgMC43MTU4NXQwLjMxNzU2IDAuMjA4MTJxMC4yMjA2NyAwIDAuMzE1NzYtMC4yMDgxMiAwLjA5NTEtMC4yMDgxMiAwLjA5NTEtMC43MTU4NXptMC42OTA3MyA1ZS0zcTAgMC42NjU2Mi0wLjI4NzA1IDEuMDI4LTAuMjg3MDYgMC4zNjA2Mi0wLjgxNDUzIDAuMzYwNjItMC41MjkyNyAwLTAuODE2MzItMC4zNjA2Mi0wLjI4NzA2LTAuMzYyNDEtMC4yODcwNi0xLjAyOCAwLTAuNjY3NDEgMC4yODcwNi0xLjAyOCAwLjI4NzA1LTAuMzYyNDIgMC44MTYzMi0wLjM2MjQyIDAuNTI3NDcgMCAwLjgxNDUzIDAuMzYyNDIgMC4yODcwNSAwLjM2MDYxIDAuMjg3MDUgMS4wMjh6IiBzdHlsZT0iIi8+PHBhdGggZD0ibTM2MS4zNCAxMTAuMjdoMC42MXYtMS43MzEzbC0wLjYyNjE1IDAuMTI5MTh2LTAuNDcwMDZsMC42MjI1Ni0wLjEyOTE3aDAuNjU2NjV2Mi4yMDE0aDAuNjA5OTl2MC40NzcyNGgtMS44NzN6IiBzdHlsZT0iIi8+PHBhdGggZD0ibTM2My44OSAxMTAuMjdoMC42MXYtMS43MzEzbC0wLjYyNjE1IDAuMTI5MTh2LTAuNDcwMDZsMC42MjI1Ni0wLjEyOTE3aDAuNjU2NjR2Mi4yMDE0aDAuNjF2MC40NzcyNGgtMS44NzN6IiBzdHlsZT0iIi8+PC9nPjxnIHRyYW5zZm9ybT0idHJhbnNsYXRlKC0xMy4yODcpIj48ZyB0cmFuc2Zvcm09Im1hdHJpeCgxLjE0IDAgMCAxLjAzMjUgMTE2LjI5IC0zNi4wMDEpIj48cG9seWdvbiBwb2ludHM9IjIzNCAxMjkgMjM2LjggMTI5IDIzNS40IDEzMS40Ii8+PHBvbHlnb24gcG9pbnRzPSIyMzQgMTI5IDIzNi44IDEyOSAyMzUuNCAxMzEuNCIgZmlsbD0ibm9uZSIgc3Ryb2tlPSIjMDAwIiBzdHJva2Utd2lkdGg9Ii4yIi8+PHBvbHlnb24gcG9pbnRzPSIyMzcuOCAxMjkgMjM5LjIgMTMxLjQgMjM2LjQgMTMxLjQiLz48cG9seWdvbiBwb2ludHM9IjIzNy44IDEyOSAyMzkuMiAxMzEuNCAyMzYuNCAxMzEuNCIgZmlsbD0ibm9uZSIgc3Ryb2tlPSIjMDAwIiBzdHJva2Utd2lkdGg9Ii4yIi8+PHBvbHlnb24gcG9pbnRzPSIyMzguOCAxMjkgMjQxLjYgMTI5IDI0MC4yIDEzMS40Ii8+PHBvbHlnb24gcG9pbnRzPSIyMzguOCAxMjkgMjQxLjYgMTI5IDI0MC4yIDEzMS40IiBmaWxsPSJub25lIiBzdHJva2U9IiMwMDAiIHN0cm9rZS13aWR0aD0iLjIiLz48cG9seWdvbiBwb2ludHM9IjI0Mi42IDEyOSAyNDQgMTMxLjQgMjQxLjIgMTMxLjQiLz48cG9seWdvbiBwb2ludHM9IjI0Mi42IDEyOSAyNDQgMTMxLjQgMjQxLjIgMTMxLjQiIGZpbGw9Im5vbmUiIHN0cm9rZT0iIzAwMCIgc3Ryb2tlLXdpZHRoPSIuMiIvPjxwb2x5Z29uIHBvaW50cz0iMjQzLjYgMTI5IDI0Ni40IDEyOSAyNDUgMTMxLjQiLz48cG9seWdvbiBwb2ludHM9IjI0My42IDEyOSAyNDYuNCAxMjkgMjQ1IDEzMS40IiBmaWxsPSJub25lIiBzdHJva2U9IiMwMDAiIHN0cm9rZS13aWR0aD0iLjIiLz48cG9seWdvbiBwb2ludHM9IjI0Ny40IDEyOSAyNDguOCAxMzEuNCAyNDYgMTMxLjQiLz48cG9seWdvbiBwb2ludHM9IjI0Ny40IDEyOSAyNDguOCAxMzEuNCAyNDYgMTMxLjQiIGZpbGw9Im5vbmUiIHN0cm9rZT0iIzAwMCIgc3Ryb2tlLXdpZHRoPSIuMiIvPjxwb2x5Z29uIHBvaW50cz0iMjQ4LjQgMTI5IDI1MS4yIDEyOSAyNDkuOCAxMzEuNCIvPjxwb2x5Z29uIHBvaW50cz0iMjQ4LjQgMTI5IDI1MS4yIDEyOSAyNDkuOCAxMzEuNCIgZmlsbD0ibm9uZSIgc3Ryb2tlPSIjMDAwIiBzdHJva2Utd2lkdGg9Ii4yIi8+PHBvbHlnb24gcG9pbnRzPSIyNTIuMiAxMjkgMjUzLjYgMTMxLjQgMjUwLjggMTMxLjQiLz48cG9seWdvbiBwb2ludHM9IjI1Mi4yIDEyOSAyNTMuNiAxMzEuNCAyNTAuOCAxMzEuNCIgZmlsbD0ibm9uZSIgc3Ryb2tlPSIjMDAwIiBzdHJva2Utd2lkdGg9Ii4yIi8+PHBvbHlnb24gcG9pbnRzPSIyNTMuMiAxMjkgMjU2IDEyOSAyNTQuNiAxMzEuNCIvPjxwb2x5Z29uIHBvaW50cz0iMjUzLjIgMTI5IDI1NiAxMjkgMjU0LjYgMTMxLjQiIGZpbGw9Im5vbmUiIHN0cm9rZT0iIzAwMCIgc3Ryb2tlLXdpZHRoPSIuMiIvPjxwb2x5Z29uIHBvaW50cz0iMjU3IDEyOSAyNTguNCAxMzEuNCAyNTUuNiAxMzEuNCIvPjxwb2x5Z29uIHBvaW50cz0iMjU3IDEyOSAyNTguNCAxMzEuNCAyNTUuNiAxMzEuNCIgZmlsbD0ibm9uZSIgc3Ryb2tlPSIjMDAwIiBzdHJva2Utd2lkdGg9Ii4yIi8+PHBvbHlnb24gcG9pbnRzPSIyNTggMTI5IDI2MC44IDEyOSAyNTkuNCAxMzEuNCIvPjxwb2x5Z29uIHBvaW50cz0iMjU4IDEyOSAyNjAuOCAxMjkgMjU5LjQgMTMxLjQiIGZpbGw9Im5vbmUiIHN0cm9rZT0iIzAwMCIgc3Ryb2tlLXdpZHRoPSIuMiIvPjxwb2x5Z29uIHBvaW50cz0iMjYxLjggMTI5IDI2My4yIDEzMS40IDI2MC40IDEzMS40Ii8+PHBvbHlnb24gcG9pbnRzPSIyNjEuOCAxMjkgMjYzLjIgMTMxLjQgMjYwLjQgMTMxLjQiIGZpbGw9Im5vbmUiIHN0cm9rZT0iIzAwMCIgc3Ryb2tlLXdpZHRoPSIuMiIvPjxwb2x5Z29uIHBvaW50cz0iMjYyLjggMTI5IDI2NS42IDEyOSAyNjQuMiAxMzEuNCIvPjxwb2x5Z29uIHBvaW50cz0iMjYyLjggMTI5IDI2NS42IDEyOSAyNjQuMiAxMzEuNCIgZmlsbD0ibm9uZSIgc3Ryb2tlPSIjMDAwIiBzdHJva2Utd2lkdGg9Ii4yIi8+PHBvbHlnb24gcG9pbnRzPSIyNjYuNiAxMjkgMjY4IDEzMS40IDI2NS4yIDEzMS40Ii8+PHBvbHlnb24gcG9pbnRzPSIyNjYuNiAxMjkgMjY4IDEzMS40IDI2NS4yIDEzMS40IiBmaWxsPSJub25lIiBzdHJva2U9IiMwMDAiIHN0cm9rZS13aWR0aD0iLjIiLz48cG9seWdvbiBwb2ludHM9IjI2Ny42IDEyOSAyNzAuNCAxMjkgMjY5IDEzMS40Ii8+PHBvbHlnb24gcG9pbnRzPSIyNjcuNiAxMjkgMjcwLjQgMTI5IDI2OSAxMzEuNCIgZmlsbD0ibm9uZSIgc3Ryb2tlPSIjMDAwIiBzdHJva2Utd2lkdGg9Ii4yIi8+PHBvbHlnb24gcG9pbnRzPSIyNzEuNCAxMjkgMjcyLjggMTMxLjQgMjcwIDEzMS40Ii8+PHBvbHlnb24gcG9pbnRzPSIyNzEuNCAxMjkgMjcyLjggMTMxLjQgMjcwIDEzMS40IiBmaWxsPSJub25lIiBzdHJva2U9IiMwMDAiIHN0cm9rZS13aWR0aD0iLjIiLz48cG9seWdvbiBwb2ludHM9IjI3Mi40IDEyOSAyNzUuMiAxMjkgMjczLjggMTMxLjQiLz48cG9seWdvbiBwb2ludHM9IjI3Mi40IDEyOSAyNzUuMiAxMjkgMjczLjggMTMxLjQiIGZpbGw9Im5vbmUiIHN0cm9rZT0iIzAwMCIgc3Ryb2tlLXdpZHRoPSIuMiIvPjxwb2x5Z29uIHBvaW50cz0iMjc2LjIgMTI5IDI3Ny42IDEzMS40IDI3NC44IDEzMS40Ii8+PHBvbHlnb24gcG9pbnRzPSIyNzYuMiAxMjkgMjc3LjYgMTMxLjQgMjc0LjggMTMxLjQiIGZpbGw9Im5vbmUiIHN0cm9rZT0iIzAwMCIgc3Ryb2tlLXdpZHRoPSIuMiIvPjxwb2x5Z29uIHBvaW50cz0iMjc3LjIgMTI5IDI4MCAxMjkgMjc4LjYgMTMxLjQiLz48cG9seWdvbiBwb2ludHM9IjI3Ny4yIDEyOSAyODAgMTI5IDI3OC42IDEzMS40IiBmaWxsPSJub25lIiBzdHJva2U9IiMwMDAiIHN0cm9rZS13aWR0aD0iLjIiLz48cG9seWdvbiBwb2ludHM9IjI4MSAxMjkgMjgyLjQgMTMxLjQgMjc5LjYgMTMxLjQiLz48cG9seWdvbiBwb2ludHM9IjI4MSAxMjkgMjgyLjQgMTMxLjQgMjc5LjYgMTMxLjQiIGZpbGw9Im5vbmUiIHN0cm9rZT0iIzAwMCIgc3Ryb2tlLXdpZHRoPSIuMiIvPjxwb2x5Z29uIHBvaW50cz0iMjgyIDEyOSAyODQuOCAxMjkgMjgzLjQgMTMxLjQiLz48cG9seWdvbiBwb2ludHM9IjI4MiAxMjkgMjg0LjggMTI5IDI4My40IDEzMS40IiBmaWxsPSJub25lIiBzdHJva2U9IiMwMDAiIHN0cm9rZS13aWR0aD0iLjIiLz48cG9seWdvbiBwb2ludHM9IjI4NS44IDEyOSAyODcuMiAxMzEuNCAyODQuNCAxMzEuNCIvPjxwb2x5Z29uIHBvaW50cz0iMjg1LjggMTI5IDI4Ny4yIDEzMS40IDI4NC40IDEzMS40IiBmaWxsPSJub25lIiBzdHJva2U9IiMwMDAiIHN0cm9rZS13aWR0aD0iLjIiLz48cG9seWdvbiBwb2ludHM9IjI4Ni44IDEyOSAyODkuNiAxMjkgMjg4LjIgMTMxLjQiLz48cG9seWdvbiBwb2ludHM9IjI4Ni44IDEyOSAyODkuNiAxMjkgMjg4LjIgMTMxLjQiIGZpbGw9Im5vbmUiIHN0cm9rZT0iIzAwMCIgc3Ryb2tlLXdpZHRoPSIuMiIvPjxwb2x5Z29uIHBvaW50cz0iMjkwLjYgMTI5IDI5MiAxMzEuNCAyODkuMiAxMzEuNCIvPjxwb2x5Z29uIHBvaW50cz0iMjkwLjYgMTI5IDI5MiAxMzEuNCAyODkuMiAxMzEuNCIgZmlsbD0ibm9uZSIgc3Ryb2tlPSIjMDAwIiBzdHJva2Utd2lkdGg9Ii4yIi8+PHBvbHlnb24gcG9pbnRzPSIyOTEuOCAxMjkgMjk0LjYgMTI5IDI5My4yIDEzMS40Ii8+PHBvbHlnb24gcG9pbnRzPSIyOTEuOCAxMjkgMjk0LjYgMTI5IDI5My4yIDEzMS40IiBmaWxsPSJub25lIiBzdHJva2U9IiMwMDAiIHN0cm9rZS13aWR0aD0iLjIiLz48cG9seWdvbiBwb2ludHM9IjI5NS42IDEyOSAyOTcgMTMxLjQgMjk0LjIgMTMxLjQiLz48cG9seWdvbiBwb2ludHM9IjI5NS42IDEyOSAyOTcgMTMxLjQgMjk0LjIgMTMxLjQiIGZpbGw9Im5vbmUiIHN0cm9rZT0iIzAwMCIgc3Ryb2tlLXdpZHRoPSIuMiIvPjxwb2x5Z29uIHBvaW50cz0iMjk2LjYgMTI5IDI5OS40IDEyOSAyOTggMTMxLjQiLz48cG9seWdvbiBwb2ludHM9IjI5Ni42IDEyOSAyOTkuNCAxMjkgMjk4IDEzMS40IiBmaWxsPSJub25lIiBzdHJva2U9IiMwMDAiIHN0cm9rZS13aWR0aD0iLjIiLz48cG9seWdvbiBwb2ludHM9IjMwMC40IDEyOSAzMDEuOCAxMzEuNCAyOTkgMTMxLjQiLz48cG9seWdvbiBwb2ludHM9IjMwMC40IDEyOSAzMDEuOCAxMzEuNCAyOTkgMTMxLjQiIGZpbGw9Im5vbmUiIHN0cm9rZT0iIzAwMCIgc3Ryb2tlLXdpZHRoPSIuMiIvPjxwb2x5Z29uIHBvaW50cz0iMzAxLjQgMTI5IDMwNC4yIDEyOSAzMDIuOCAxMzEuNCIvPjxwb2x5Z29uIHBvaW50cz0iMzAxLjQgMTI5IDMwNC4yIDEyOSAzMDIuOCAxMzEuNCIgZmlsbD0ibm9uZSIgc3Ryb2tlPSIjMDAwIiBzdHJva2Utd2lkdGg9Ii4yIi8+PHBvbHlnb24gcG9pbnRzPSIzMDUuMiAxMjkgMzA2LjYgMTMxLjQgMzAzLjggMTMxLjQiLz48cG9seWdvbiBwb2ludHM9IjMwNS4yIDEyOSAzMDYuNiAxMzEuNCAzMDMuOCAxMzEuNCIgZmlsbD0ibm9uZSIgc3Ryb2tlPSIjMDAwIiBzdHJva2Utd2lkdGg9Ii4yIi8+PHBvbHlnb24gcG9pbnRzPSIzMDYuMiAxMjkgMzA5IDEyOSAzMDcuNiAxMzEuNCIvPjxwb2x5Z29uIHBvaW50cz0iMzA2LjIgMTI5IDMwOSAxMjkgMzA3LjYgMTMxLjQiIGZpbGw9Im5vbmUiIHN0cm9rZT0iIzAwMCIgc3Ryb2tlLXdpZHRoPSIuMiIvPjxwb2x5Z29uIHBvaW50cz0iMzEwIDEyOSAzMTEuNCAxMzEuNCAzMDguNiAxMzEuNCIvPjxwb2x5Z29uIHBvaW50cz0iMzEwIDEyOSAzMTEuNCAxMzEuNCAzMDguNiAxMzEuNCIgZmlsbD0ibm9uZSIgc3Ryb2tlPSIjMDAwIiBzdHJva2Utd2lkdGg9Ii4yIi8+PHBvbHlnb24gcG9pbnRzPSIzMTEgMTI5IDMxMy44IDEyOSAzMTIuNCAxMzEuNCIvPjxwb2x5Z29uIHBvaW50cz0iMzExIDEyOSAzMTMuOCAxMjkgMzEyLjQgMTMxLjQiIGZpbGw9Im5vbmUiIHN0cm9rZT0iIzAwMCIgc3Ryb2tlLXdpZHRoPSIuMiIvPjxwb2x5Z29uIHBvaW50cz0iMzE0LjggMTI5IDMxNi4yIDEzMS40IDMxMy40IDEzMS40Ii8+PHBvbHlnb24gcG9pbnRzPSIzMTQuOCAxMjkgMzE2LjIgMTMxLjQgMzEzLjQgMTMxLjQiIGZpbGw9Im5vbmUiIHN0cm9rZT0iIzAwMCIgc3Ryb2tlLXdpZHRoPSIuMiIvPjxwb2x5Z29uIHBvaW50cz0iMzE1LjggMTI5IDMxOC42IDEyOSAzMTcuMiAxMzEuNCIvPjxwb2x5Z29uIHBvaW50cz0iMzE1LjggMTI5IDMxOC42IDEyOSAzMTcuMiAxMzEuNCIgZmlsbD0ibm9uZSIgc3Ryb2tlPSIjMDAwIiBzdHJva2Utd2lkdGg9Ii4yIi8+PHBvbHlnb24gcG9pbnRzPSIzMTkuNiAxMjkgMzIxIDEzMS40IDMxOC4yIDEzMS40Ii8+PHBvbHlnb24gcG9pbnRzPSIzMTkuNiAxMjkgMzIxIDEzMS40IDMxOC4yIDEzMS40IiBmaWxsPSJub25lIiBzdHJva2U9IiMwMDAiIHN0cm9rZS13aWR0aD0iLjIiLz48cG9seWdvbiBwb2ludHM9IjMyMC42IDEyOSAzMjMuNCAxMjkgMzIyIDEzMS40Ii8+PHBvbHlnb24gcG9pbnRzPSIzMjAuNiAxMjkgMzIzLjQgMTI5IDMyMiAxMzEuNCIgZmlsbD0ibm9uZSIgc3Ryb2tlPSIjMDAwIiBzdHJva2Utd2lkdGg9Ii4yIi8+PHBvbHlnb24gcG9pbnRzPSIzMjQuNCAxMjkgMzI1LjggMTMxLjQgMzIzIDEzMS40Ii8+PHBvbHlnb24gcG9pbnRzPSIzMjQuNCAxMjkgMzI1LjggMTMxLjQgMzIzIDEzMS40IiBmaWxsPSJub25lIiBzdHJva2U9IiMwMDAiIHN0cm9rZS13aWR0aD0iLjIiLz48cG9seWdvbiBwb2ludHM9IjMyNS40IDEyOSAzMjguMiAxMjkgMzI2LjggMTMxLjQiLz48cG9seWdvbiBwb2ludHM9IjMyNS40IDEyOSAzMjguMiAxMjkgMzI2LjggMTMxLjQiIGZpbGw9Im5vbmUiIHN0cm9rZT0iIzAwMCIgc3Ryb2tlLXdpZHRoPSIuMiIvPjxwb2x5Z29uIHBvaW50cz0iMzI5LjIgMTI5IDMzMC42IDEzMS40IDMyNy44IDEzMS40Ii8+PHBvbHlnb24gcG9pbnRzPSIzMjkuMiAxMjkgMzMwLjYgMTMxLjQgMzI3LjggMTMxLjQiIGZpbGw9Im5vbmUiIHN0cm9rZT0iIzAwMCIgc3Ryb2tlLXdpZHRoPSIuMiIvPjwvZz48ZyB0cmFuc2Zvcm09Im1hdHJpeCgxLjE0IDAgMCAxLjAzMjUgMTE2LjI5IC0zNi4wMDEpIj48cG9seWdvbiBwb2ludHM9IjM2NS42IDEyOS4yIDM2NyAxMzEuNiAzNjQuMiAxMzEuNiIvPjxwb2x5Z29uIHBvaW50cz0iMzY1LjYgMTI5LjIgMzY3IDEzMS42IDM2NC4yIDEzMS42IiBmaWxsPSJub25lIiBzdHJva2U9IiMwMDAiIHN0cm9rZS13aWR0aD0iLjIiLz48cG9seWdvbiBwb2ludHM9IjM2Ni42IDEyOS4yIDM2OS40IDEyOS4yIDM2OCAxMzEuNiIvPjxwb2x5Z29uIHBvaW50cz0iMzY2LjYgMTI5LjIgMzY5LjQgMTI5LjIgMzY4IDEzMS42IiBmaWxsPSJub25lIiBzdHJva2U9IiMwMDAiIHN0cm9rZS13aWR0aD0iLjIiLz48cG9seWdvbiBwb2ludHM9IjM3MC40IDEyOS4yIDM3MS44IDEzMS42IDM2OSAxMzEuNiIvPjxwb2x5Z29uIHBvaW50cz0iMzcwLjQgMTI5LjIgMzcxLjggMTMxLjYgMzY5IDEzMS42IiBmaWxsPSJub25lIiBzdHJva2U9IiMwMDAiIHN0cm9rZS13aWR0aD0iLjIiLz48cG9seWdvbiBwb2ludHM9IjM3MS40IDEyOS4yIDM3NC4yIDEyOS4yIDM3Mi44IDEzMS42Ii8+PHBvbHlnb24gcG9pbnRzPSIzNzEuNCAxMjkuMiAzNzQuMiAxMjkuMiAzNzIuOCAxMzEuNiIgZmlsbD0ibm9uZSIgc3Ryb2tlPSIjMDAwIiBzdHJva2Utd2lkdGg9Ii4yIi8+PHBvbHlnb24gcG9pbnRzPSIzNzUuMiAxMjkuMiAzNzYuNiAxMzEuNiAzNzMuOCAxMzEuNiIvPjxwb2x5Z29uIHBvaW50cz0iMzc1LjIgMTI5LjIgMzc2LjYgMTMxLjYgMzczLjggMTMxLjYiIGZpbGw9Im5vbmUiIHN0cm9rZT0iIzAwMCIgc3Ryb2tlLXdpZHRoPSIuMiIvPjxwb2x5Z29uIHBvaW50cz0iMzc2LjIgMTI5LjIgMzc5IDEyOS4yIDM3Ny42IDEzMS42Ii8+PHBvbHlnb24gcG9pbnRzPSIzNzYuMiAxMjkuMiAzNzkgMTI5LjIgMzc3LjYgMTMxLjYiIGZpbGw9Im5vbmUiIHN0cm9rZT0iIzAwMCIgc3Ryb2tlLXdpZHRoPSIuMiIvPjxwb2x5Z29uIHBvaW50cz0iMzgwIDEyOS4yIDM4MS40IDEzMS42IDM3OC42IDEzMS42Ii8+PHBvbHlnb24gcG9pbnRzPSIzODAgMTI5LjIgMzgxLjQgMTMxLjYgMzc4LjYgMTMxLjYiIGZpbGw9Im5vbmUiIHN0cm9rZT0iIzAwMCIgc3Ryb2tlLXdpZHRoPSIuMiIvPjxwb2x5Z29uIHBvaW50cz0iMzgxIDEyOS4yIDM4My44IDEyOS4yIDM4Mi40IDEzMS42Ii8+PHBvbHlnb24gcG9pbnRzPSIzODEgMTI5LjIgMzgzLjggMTI5LjIgMzgyLjQgMTMxLjYiIGZpbGw9Im5vbmUiIHN0cm9rZT0iIzAwMCIgc3Ryb2tlLXdpZHRoPSIuMiIvPjxwb2x5Z29uIHBvaW50cz0iMzg0LjggMTI5LjIgMzg2LjIgMTMxLjYgMzgzLjQgMTMxLjYiLz48cG9seWdvbiBwb2ludHM9IjM4NC44IDEyOS4yIDM4Ni4yIDEzMS42IDM4My40IDEzMS42IiBmaWxsPSJub25lIiBzdHJva2U9IiMwMDAiIHN0cm9rZS13aWR0aD0iLjIiLz48cG9seWdvbiBwb2ludHM9IjM4NS44IDEyOS4yIDM4OC42IDEyOS4yIDM4Ny4yIDEzMS42Ii8+PHBvbHlnb24gcG9pbnRzPSIzODUuOCAxMjkuMiAzODguNiAxMjkuMiAzODcuMiAxMzEuNiIgZmlsbD0ibm9uZSIgc3Ryb2tlPSIjMDAwIiBzdHJva2Utd2lkdGg9Ii4yIi8+PHBvbHlnb24gcG9pbnRzPSIzODkuNiAxMjkuMiAzOTEgMTMxLjYgMzg4LjIgMTMxLjYiLz48cG9seWdvbiBwb2ludHM9IjM4OS42IDEyOS4yIDM5MSAxMzEuNiAzODguMiAxMzEuNiIgZmlsbD0ibm9uZSIgc3Ryb2tlPSIjMDAwIiBzdHJva2Utd2lkdGg9Ii4yIi8+PHBvbHlnb24gcG9pbnRzPSIzOTAuNiAxMjkuMiAzOTMuNCAxMjkuMiAzOTIgMTMxLjYiLz48cG9seWdvbiBwb2ludHM9IjM5MC42IDEyOS4yIDM5My40IDEyOS4yIDM5MiAxMzEuNiIgZmlsbD0ibm9uZSIgc3Ryb2tlPSIjMDAwIiBzdHJva2Utd2lkdGg9Ii4yIi8+PHBvbHlnb24gcG9pbnRzPSIzOTQuNCAxMjkuMiAzOTUuOCAxMzEuNiAzOTMgMTMxLjYiLz48cG9seWdvbiBwb2ludHM9IjM5NC40IDEyOS4yIDM5NS44IDEzMS42IDM5MyAxMzEuNiIgZmlsbD0ibm9uZSIgc3Ryb2tlPSIjMDAwIiBzdHJva2Utd2lkdGg9Ii4yIi8+PHBvbHlnb24gcG9pbnRzPSIzOTUuNCAxMjkuMiAzOTguMiAxMjkuMiAzOTYuOCAxMzEuNiIvPjxwb2x5Z29uIHBvaW50cz0iMzk1LjQgMTI5LjIgMzk4LjIgMTI5LjIgMzk2LjggMTMxLjYiIGZpbGw9Im5vbmUiIHN0cm9rZT0iIzAwMCIgc3Ryb2tlLXdpZHRoPSIuMiIvPjxwb2x5Z29uIHBvaW50cz0iMzk5LjIgMTI5LjIgNDAwLjYgMTMxLjYgMzk3LjggMTMxLjYiLz48cG9seWdvbiBwb2ludHM9IjM5OS4yIDEyOS4yIDQwMC42IDEzMS42IDM5Ny44IDEzMS42IiBmaWxsPSJub25lIiBzdHJva2U9IiMwMDAiIHN0cm9rZS13aWR0aD0iLjIiLz48cG9seWdvbiBwb2ludHM9IjQwMC4yIDEyOS4yIDQwMyAxMjkuMiA0MDEuNiAxMzEuNiIvPjxwb2x5Z29uIHBvaW50cz0iNDAwLjIgMTI5LjIgNDAzIDEyOS4yIDQwMS42IDEzMS42IiBmaWxsPSJub25lIiBzdHJva2U9IiMwMDAiIHN0cm9rZS13aWR0aD0iLjIiLz48cG9seWdvbiBwb2ludHM9IjQwNCAxMjkuMiA0MDUuNCAxMzEuNiA0MDIuNiAxMzEuNiIvPjxwb2x5Z29uIHBvaW50cz0iNDA0IDEyOS4yIDQwNS40IDEzMS42IDQwMi42IDEzMS42IiBmaWxsPSJub25lIiBzdHJva2U9IiMwMDAiIHN0cm9rZS13aWR0aD0iLjIiLz48cG9seWdvbiBwb2ludHM9IjQwNSAxMjkuMiA0MDcuOCAxMjkuMiA0MDYuNCAxMzEuNiIvPjxwb2x5Z29uIHBvaW50cz0iNDA1IDEyOS4yIDQwNy44IDEyOS4yIDQwNi40IDEzMS42IiBmaWxsPSJub25lIiBzdHJva2U9IiMwMDAiIHN0cm9rZS13aWR0aD0iLjIiLz48cG9seWdvbiBwb2ludHM9IjQwOC44IDEyOS4yIDQxMC4yIDEzMS42IDQwNy40IDEzMS42Ii8+PHBvbHlnb24gcG9pbnRzPSI0MDguOCAxMjkuMiA0MTAuMiAxMzEuNiA0MDcuNCAxMzEuNiIgZmlsbD0ibm9uZSIgc3Ryb2tlPSIjMDAwIiBzdHJva2Utd2lkdGg9Ii4yIi8+PHBvbHlnb24gcG9pbnRzPSI0MDkuOCAxMjkuMiA0MTIuNiAxMjkuMiA0MTEuMiAxMzEuNiIvPjxwb2x5Z29uIHBvaW50cz0iNDA5LjggMTI5LjIgNDEyLjYgMTI5LjIgNDExLjIgMTMxLjYiIGZpbGw9Im5vbmUiIHN0cm9rZT0iIzAwMCIgc3Ryb2tlLXdpZHRoPSIuMiIvPjxwb2x5Z29uIHBvaW50cz0iNDEzLjYgMTI5LjIgNDE1IDEzMS42IDQxMi4yIDEzMS42Ii8+PHBvbHlnb24gcG9pbnRzPSI0MTMuNiAxMjkuMiA0MTUgMTMxLjYgNDEyLjIgMTMxLjYiIGZpbGw9Im5vbmUiIHN0cm9rZT0iIzAwMCIgc3Ryb2tlLXdpZHRoPSIuMiIvPjxwb2x5Z29uIHBvaW50cz0iNDE0LjYgMTI5LjIgNDE3LjQgMTI5LjIgNDE2IDEzMS42Ii8+PHBvbHlnb24gcG9pbnRzPSI0MTQuNiAxMjkuMiA0MTcuNCAxMjkuMiA0MTYgMTMxLjYiIGZpbGw9Im5vbmUiIHN0cm9rZT0iIzAwMCIgc3Ryb2tlLXdpZHRoPSIuMiIvPjxwb2x5Z29uIHBvaW50cz0iNDE4LjQgMTI5LjIgNDE5LjggMTMxLjYgNDE3IDEzMS42Ii8+PHBvbHlnb24gcG9pbnRzPSI0MTguNCAxMjkuMiA0MTkuOCAxMzEuNiA0MTcgMTMxLjYiIGZpbGw9Im5vbmUiIHN0cm9rZT0iIzAwMCIgc3Ryb2tlLXdpZHRoPSIuMiIvPjxwb2x5Z29uIHBvaW50cz0iNDE5LjYgMTI5LjIgNDIyLjQgMTI5LjIgNDIxIDEzMS42Ii8+PHBvbHlnb24gcG9pbnRzPSI0MTkuNiAxMjkuMiA0MjIuNCAxMjkuMiA0MjEgMTMxLjYiIGZpbGw9Im5vbmUiIHN0cm9rZT0iIzAwMCIgc3Ryb2tlLXdpZHRoPSIuMiIvPjxwb2x5Z29uIHBvaW50cz0iNDIzLjQgMTI5LjIgNDI0LjggMTMxLjYgNDIyIDEzMS42Ii8+PHBvbHlnb24gcG9pbnRzPSI0MjMuNCAxMjkuMiA0MjQuOCAxMzEuNiA0MjIgMTMxLjYiIGZpbGw9Im5vbmUiIHN0cm9rZT0iIzAwMCIgc3Ryb2tlLXdpZHRoPSIuMiIvPjxwb2x5Z29uIHBvaW50cz0iNDI0LjQgMTI5LjIgNDI3LjIgMTI5LjIgNDI1LjggMTMxLjYiLz48cG9seWdvbiBwb2ludHM9IjQyNC40IDEyOS4yIDQyNy4yIDEyOS4yIDQyNS44IDEzMS42IiBmaWxsPSJub25lIiBzdHJva2U9IiMwMDAiIHN0cm9rZS13aWR0aD0iLjIiLz48cG9seWdvbiBwb2ludHM9IjQyOC4yIDEyOS4yIDQyOS42IDEzMS42IDQyNi44IDEzMS42Ii8+PHBvbHlnb24gcG9pbnRzPSI0MjguMiAxMjkuMiA0MjkuNiAxMzEuNiA0MjYuOCAxMzEuNiIgZmlsbD0ibm9uZSIgc3Ryb2tlPSIjMDAwIiBzdHJva2Utd2lkdGg9Ii4yIi8+PHBvbHlnb24gcG9pbnRzPSI0MjkuMiAxMjkuMiA0MzIgMTI5LjIgNDMwLjYgMTMxLjYiLz48cG9seWdvbiBwb2ludHM9IjQyOS4yIDEyOS4yIDQzMiAxMjkuMiA0MzAuNiAxMzEuNiIgZmlsbD0ibm9uZSIgc3Ryb2tlPSIjMDAwIiBzdHJva2Utd2lkdGg9Ii4yIi8+PC9nPjwvZz48ZyBmaWxsPSIjZmZmIj48ZyB0cmFuc2Zvcm09InNjYWxlKDEuMDUwOCAuOTUxNjcpIiBhcmlhLWxhYmVsPSJGQVNUIEVUSEVSTkVUIj48cGF0aCBkPSJtNDQzLjI5IDEwOS4wMWgwLjcyNzI1djAuMTQ0MDloLTAuNTU2MDN2MC4zNzI5NWgwLjUwMTc5djAuMTQ0MWgtMC41MDE3OXYwLjYwNDM0aC0wLjE3MTIyeiIgc3R5bGU9IiIvPjxwYXRoIGQ9Im00NDQuNTYgMTA5LjE4LTAuMjMyMjQgMC42Mjk3OGgwLjQ2NTMzem0tMC4wOTY2LTAuMTY4NjdoMC4xOTQxMWwwLjQ4MjI5IDEuMjY1NWgtMC4xNzhsLTAuMTE1MjgtMC4zMjQ2M2gtMC41NzA0NGwtMC4xMTUyNyAwLjMyNDYzaC0wLjE4MDU1eiIgc3R5bGU9IiIvPjxwYXRoIGQ9Im00NDYuMDggMTA5LjA2djAuMTY2OThxLTAuMDk3NS0wLjA0NjYtMC4xODM5My0wLjA2OTUtMC4wODY1LTAuMDIyOS0wLjE2Njk4LTAuMDIyOS0wLjEzOTg1IDAtMC4yMTYxNCAwLjA1NDItMC4wNzU0IDAuMDU0My0wLjA3NTQgMC4xNTQyNiAwIDAuMDgzOSAwLjA1IDAuMTI3MTUgMC4wNTA5IDAuMDQyNCAwLjE5MTU2IDAuMDY4NmwwLjEwMzQxIDAuMDIxMnEwLjE5MTU2IDAuMDM2NSAwLjI4MjI2IDAuMTI4ODQgMC4wOTE1IDAuMDkxNSAwLjA5MTUgMC4yNDU4MSAwIDAuMTgzOTMtMC4xMjM3NSAwLjI3ODg2LTAuMTIyOTEgMC4wOTQ5LTAuMzYxMDkgMC4wOTQ5LTAuMDg5OCAwLTAuMTkxNTYtMC4wMjAzLTAuMTAwODYtMC4wMjAzLTAuMjA5MzYtMC4wNjAydi0wLjE3NjNxMC4xMDQyNiAwLjA1ODUgMC4yMDQyOCAwLjA4ODEgMC4xMDAwMiAwLjAyOTcgMC4xOTY2NCAwLjAyOTcgMC4xNDY2NCAwIDAuMjI2MzItMC4wNTc2IDAuMDc5Ny0wLjA1NzYgMC4wNzk3LTAuMTY0NDQgMC0wLjA5MzItMC4wNTc2LTAuMTQ1NzktMC4wNTY4LTAuMDUyNS0wLjE4NzMyLTAuMDc4OGwtMC4xMDQyNS0wLjAyMDNxLTAuMTkxNTYtMC4wMzgxLTAuMjc3MTctMC4xMTk1MS0wLjA4NTYtMC4wODE0LTAuMDg1Ni0wLjIyNjMxIDAtMC4xNjc4MyAwLjExNzgyLTAuMjY0NDYgMC4xMTg2Ni0wLjA5NjYgMC4zMjYzMy0wLjA5NjYgMC4wODkgMCAwLjE4MTM5IDAuMDE2MSAwLjA5MjQgMC4wMTYxIDAuMTg5MDEgMC4wNDgzeiIgc3R5bGU9IiIvPjxwYXRoIGQ9Im00NDYuMjUgMTA5LjAxaDEuMDcwNXYwLjE0NDA5aC0wLjQ0OTIzdjEuMTIxNGgtMC4xNzIwN3YtMS4xMjE0aC0wLjQ0OTIzeiIgc3R5bGU9IiIvPjxwYXRoIGQ9Im00NDguMDMgMTA5LjAxaDAuODAwMTV2MC4xNDQwOWgtMC42Mjg5M3YwLjM3NDY1aDAuNjAyNjV2MC4xNDQwOWgtMC42MDI2NXYwLjQ1ODU2aDAuNjQ0MTh2MC4xNDQwOWgtMC44MTU0eiIgc3R5bGU9IiIvPjxwYXRoIGQ9Im00NDguOTYgMTA5LjAxaDEuMDcwNXYwLjE0NDA5aC0wLjQ0OTIzdjEuMTIxNGgtMC4xNzIwN3YtMS4xMjE0aC0wLjQ0OTIzeiIgc3R5bGU9IiIvPjxwYXRoIGQ9Im00NTAuMTkgMTA5LjAxaDAuMTcxMjF2MC41MTg3NGgwLjYyMjE1di0wLjUxODc0aDAuMTcxMjJ2MS4yNjU1aC0wLjE3MTIydi0wLjYwMjY1aC0wLjYyMjE1djAuNjAyNjVoLTAuMTcxMjF6IiBzdHlsZT0iIi8+PHBhdGggZD0ibTQ1MS41IDEwOS4wMWgwLjgwMDE0djAuMTQ0MDloLTAuNjI4OTJ2MC4zNzQ2NWgwLjYwMjY1djAuMTQ0MDloLTAuNjAyNjV2MC40NTg1NmgwLjY0NDE4djAuMTQ0MDloLTAuODE1NHoiIHN0eWxlPSIiLz48cGF0aCBkPSJtNDUzLjIgMTA5LjY5cTAuMDU1MSAwLjAxODYgMC4xMDY4IDAuMDc5NyAwLjA1MjUgMC4wNjEgMC4xMDUxMSAwLjE2NzgzbDAuMTczNzYgMC4zNDU4MmgtMC4xODM5NGwtMC4xNjE4OS0wLjMyNDYzcS0wLjA2MjctMC4xMjcxNC0wLjEyMjA2LTAuMTY4NjgtMC4wNTg1LTAuMDQxNS0wLjE2MDE5LTAuMDQxNWgtMC4xODY0OHYwLjUzNDg0aC0wLjE3MTIydi0xLjI2NTVoMC4zODY1MXEwLjIxNjk5IDAgMC4zMjM3OSAwLjA5MDd0MC4xMDY4IDAuMjczNzhxMCAwLjExOTUyLTAuMDU1OSAwLjE5ODM0LTAuMDU1MSAwLjA3ODgtMC4xNjEwNSAwLjEwOTM0em0tMC40Mjg4OS0wLjUzMTQ1djAuNDQ5MjRoMC4yMTUyOXEwLjEyMzc2IDAgMC4xODY0OC0wLjA1NjggMC4wNjM2LTAuMDU3NiAwLjA2MzYtMC4xNjg2OCAwLTAuMTExMDQtMC4wNjM2LTAuMTY2OTgtMC4wNjI3LTAuMDU2OC0wLjE4NjQ4LTAuMDU2OHoiIHN0eWxlPSIiLz48cGF0aCBkPSJtNDUzLjgxIDEwOS4wMWgwLjIzMDU1bDAuNTYxMTIgMS4wNTg3di0xLjA1ODdoMC4xNjYxM3YxLjI2NTVoLTAuMjMwNTVsLTAuNTYxMTItMS4wNTg3djEuMDU4N2gtMC4xNjYxM3oiIHN0eWxlPSIiLz48cGF0aCBkPSJtNDU1LjEgMTA5LjAxaDAuODAwMTV2MC4xNDQwOWgtMC42Mjg5M3YwLjM3NDY1aDAuNjAyNjV2MC4xNDQwOWgtMC42MDI2NXYwLjQ1ODU2aDAuNjQ0MTl2MC4xNDQwOWgtMC44MTU0MXoiIHN0eWxlPSIiLz48cGF0aCBkPSJtNDU2LjAzIDEwOS4wMWgxLjA3MDV2MC4xNDQwOWgtMC40NDkyNHYxLjEyMTRoLTAuMTcyMDZ2LTEuMTIxNGgtMC40NDkyNHoiIHN0eWxlPSIiLz48L2c+PGcgdHJhbnNmb3JtPSJzY2FsZSgxLjA1MDggLjk1MTY3KSIgYXJpYS1sYWJlbD0iRVRIMSI+PHBhdGggZD0ibTM3MC45NiAxMjEuOTloMC44MDAxNHYwLjE0NDFoLTAuNjI4OTJ2MC4zNzQ2NGgwLjYwMjY1djAuMTQ0MWgtMC42MDI2NXYwLjQ1ODU1aDAuNjQ0MTh2MC4xNDQxaC0wLjgxNTR6IiBzdHlsZT0iIi8+PHBhdGggZD0ibTM3MS44OCAxMjEuOTloMS4wNzA1djAuMTQ0MWgtMC40NDkyM3YxLjEyMTRoLTAuMTcyMDd2LTEuMTIxNGgtMC40NDkyM3oiIHN0eWxlPSIiLz48cGF0aCBkPSJtMzczLjEyIDEyMS45OWgwLjE3MTIydjAuNTE4NzRoMC42MjIxNXYtMC41MTg3NGgwLjE3MTIydjEuMjY1NWgtMC4xNzEyMnYtMC42MDI2NWgtMC42MjIxNXYwLjYwMjY1aC0wLjE3MTIyeiIgc3R5bGU9IiIvPjxwYXRoIGQ9Im0zNzQuNDcgMTIzLjExaDAuMjc5NzF2LTAuOTY1NDNsLTAuMzA0MjkgMC4wNjF2LTAuMTU1OTZsMC4zMDI2LTAuMDYxaDAuMTcxMjF2MS4xMjE0aDAuMjc5NzJ2MC4xNDQxaC0wLjcyODk1eiIgc3R5bGU9IiIvPjwvZz48ZyB0cmFuc2Zvcm09InNjYWxlKDEuMDUwOCAuOTUxNjcpIiBhcmlhLWxhYmVsPSJFVEgyIj48cGF0aCBkPSJtMzc5LjA0IDEyMS45OWgwLjgwMDE1djAuMTQ0MWgtMC42Mjg5M3YwLjM3NDY0aDAuNjAyNjV2MC4xNDQxaC0wLjYwMjY1djAuNDU4NTVoMC42NDQxOXYwLjE0NDFoLTAuODE1NDF6IiBzdHlsZT0iIi8+PHBhdGggZD0ibTM3OS45NiAxMjEuOTloMS4wNzA1djAuMTQ0MWgtMC40NDkyNHYxLjEyMTRoLTAuMTcyMDZ2LTEuMTIxNGgtMC40NDkyNHoiIHN0eWxlPSIiLz48cGF0aCBkPSJtMzgxLjIgMTIxLjk5aDAuMTcxMjJ2MC41MTg3NGgwLjYyMjE0di0wLjUxODc0aDAuMTcxMjJ2MS4yNjU1aC0wLjE3MTIydi0wLjYwMjY1aC0wLjYyMjE0djAuNjAyNjVoLTAuMTcxMjJ6IiBzdHlsZT0iIi8+PHBhdGggZD0ibTM4Mi42NyAxMjMuMTFoMC41OTc1N3YwLjE0NDFoLTAuODAzNTR2LTAuMTQ0MXEwLjA5NzUtMC4xMDA4NiAwLjI2NTMxLTAuMjcwMzggMC4xNjg2Ny0wLjE3MDM3IDAuMjExOS0wLjIxOTU0IDAuMDgyMi0wLjA5MjQgMC4xMTQ0My0wLjE1NTk2IDAuMDMzMS0wLjA2NDQgMC4wMzMxLTAuMTI2MjkgMC0wLjEwMDg3LTAuMDcxMi0wLjE2NDQ0LTAuMDcwMy0wLjA2MzYtMC4xODM5My0wLjA2MzYtMC4wODA1IDAtMC4xNzAzNyAwLjAyOC0wLjA4OSAwLjAyOC0wLjE5MDcxIDAuMDg0OHYtMC4xNzI5MXEwLjEwMzQxLTAuMDQxNSAwLjE5MzI1LTAuMDYyNyAwLjA4OTktMC4wMjEyIDAuMTY0NDQtMC4wMjEyIDAuMTk2NjUgMCAwLjMxMzYyIDAuMDk4M3QwLjExNjk3IDAuMjYyNzZxMCAwLjA3OC0wLjAyOTcgMC4xNDgzMy0wLjAyODggMC4wNjk1LTAuMTA1OTUgMC4xNjQ0NC0wLjAyMTIgMC4wMjQ2LTAuMTM0NzcgMC4xNDI0LTAuMTEzNTggMC4xMTY5Ny0wLjMyMDQgMC4zMjgwMnoiIHN0eWxlPSIiLz48L2c+PGcgdHJhbnNmb3JtPSJzY2FsZSgxLjA1MDggLjk1MTY3KSIgYXJpYS1sYWJlbD0iRVRIMyI+PHBhdGggZD0ibTM4Ny4wOSAxMjEuOTloMC44MDAxNHYwLjE0NDFoLTAuNjI4OTN2MC4zNzQ2NGgwLjYwMjY2djAuMTQ0MWgtMC42MDI2NnYwLjQ1ODU1aDAuNjQ0MTl2MC4xNDQxaC0wLjgxNTR6IiBzdHlsZT0iIi8+PHBhdGggZD0ibTM4OC4wMiAxMjEuOTloMS4wNzA1djAuMTQ0MWgtMC40NDkyM3YxLjEyMTRoLTAuMTcyMDd2LTEuMTIxNGgtMC40NDkyM3oiIHN0eWxlPSIiLz48cGF0aCBkPSJtMzg5LjI1IDEyMS45OWgwLjE3MTIydjAuNTE4NzRoMC42MjIxNXYtMC41MTg3NGgwLjE3MTIydjEuMjY1NWgtMC4xNzEyMnYtMC42MDI2NWgtMC42MjIxNXYwLjYwMjY1aC0wLjE3MTIyeiIgc3R5bGU9IiIvPjxwYXRoIGQ9Im0zOTEuMDkgMTIyLjU3cTAuMTIyOSAwLjAyNjMgMC4xOTE1NiAwLjEwOTM0IDAuMDY5NSAwLjA4MzEgMC4wNjk1IDAuMjA1MTIgMCAwLjE4NzMzLTAuMTI4ODQgMC4yODk4OXQtMC4zNjYxNyAwLjEwMjU2cS0wLjA3OTcgMC0wLjE2NDQ0LTAuMDE2MS0wLjA4MzktMC4wMTUyLTAuMTczNzYtMC4wNDY2di0wLjE2NTI5cTAuMDcxMiAwLjA0MTUgMC4xNTU5NiAwLjA2MjcgMC4wODQ4IDAuMDIxMiAwLjE3NzE1IDAuMDIxMiAwLjE2MTA1IDAgMC4yNDQ5Ni0wLjA2MzYgMC4wODQ4LTAuMDYzNiAwLjA4NDgtMC4xODQ3OCAwLTAuMTExODgtMC4wNzg4LTAuMTc0Ni0wLjA3OC0wLjA2MzYtMC4yMTc4NC0wLjA2MzZoLTAuMTQ3NDh2LTAuMTQwNzFoMC4xNTQyNnEwLjEyNjMgMCAwLjE5MzI2LTAuMDUgMC4wNjctMC4wNTA5IDAuMDY3LTAuMTQ1NzkgMC0wLjA5NzUtMC4wNjk1LTAuMTQ5MTgtMC4wNjg2LTAuMDUyNS0wLjE5NzQ5LTAuMDUyNS0wLjA3MDQgMC0wLjE1MDg3IDAuMDE1My0wLjA4MDUgMC4wMTUzLTAuMTc3MTUgMC4wNDc1di0wLjE1MjY2cTAuMDk3NS0wLjAyNzEgMC4xODIyMy0wLjA0MDcgMC4wODU2LTAuMDEzNiAwLjE2MTA1LTAuMDEzNiAwLjE5NDk1IDAgMC4zMDg1MyAwLjA4OSAwLjExMzU4IDAuMDg4MSAwLjExMzU4IDAuMjM5MDIgMCAwLjEwNTExLTAuMDYwMiAwLjE3OC0wLjA2MDIgMC4wNzItMC4xNzEyMiAwLjEwMDAyeiIgc3R5bGU9IiIvPjwvZz48ZyB0cmFuc2Zvcm09InNjYWxlKDEuMDUwOCAuOTUxNjcpIiBhcmlhLWxhYmVsPSJFVEg0Ij48cGF0aCBkPSJtMzk1LjE1IDEyMS45OWgwLjgwMDE1djAuMTQ0MWgtMC42Mjg5M3YwLjM3NDY0aDAuNjAyNjV2MC4xNDQxaC0wLjYwMjY1djAuNDU4NTVoMC42NDQxOXYwLjE0NDFoLTAuODE1NDF6IiBzdHlsZT0iIi8+PHBhdGggZD0ibTM5Ni4wNyAxMjEuOTloMS4wNzA1djAuMTQ0MWgtMC40NDkyNHYxLjEyMTRoLTAuMTcyMDZ2LTEuMTIxNGgtMC40NDkyNHoiIHN0eWxlPSIiLz48cGF0aCBkPSJtMzk3LjMxIDEyMS45OWgwLjE3MTIydjAuNTE4NzRoMC42MjIxNHYtMC41MTg3NGgwLjE3MTIydjEuMjY1NWgtMC4xNzEyMnYtMC42MDI2NWgtMC42MjIxNHYwLjYwMjY1aC0wLjE3MTIyeiIgc3R5bGU9IiIvPjxwYXRoIGQ9Im0zOTkuMSAxMjIuMTQtMC40MzIyOCAwLjY3NTU1aDAuNDMyMjh6bS0wLjA0NDktMC4xNDkxOGgwLjIxNTI5djAuODI0NzNoMC4xODA1NXYwLjE0MjRoLTAuMTgwNTV2MC4yOTgzNmgtMC4xNzAzN3YtMC4yOTgzNmgtMC41NzEyOXYtMC4xNjUyOXoiIHN0eWxlPSIiLz48L2c+PGcgdHJhbnNmb3JtPSJzY2FsZSgxLjA1MDggLjk1MTY3KSIgYXJpYS1sYWJlbD0iRVRINSI+PHBhdGggZD0ibTQwMy4yNSAxMjEuOTloMC44MDAxNXYwLjE0NDFoLTAuNjI4OTN2MC4zNzQ2NGgwLjYwMjY1djAuMTQ0MWgtMC42MDI2NXYwLjQ1ODU1aDAuNjQ0MTl2MC4xNDQxaC0wLjgxNTQxeiIgc3R5bGU9IiIvPjxwYXRoIGQ9Im00MDQuMTcgMTIxLjk5aDEuMDcwNXYwLjE0NDFoLTAuNDQ5MjR2MS4xMjE0aC0wLjE3MjA2di0xLjEyMTRoLTAuNDQ5MjR6IiBzdHlsZT0iIi8+PHBhdGggZD0ibTQwNS40MSAxMjEuOTloMC4xNzEyMnYwLjUxODc0aDAuNjIyMTR2LTAuNTE4NzRoMC4xNzEyMnYxLjI2NTVoLTAuMTcxMjJ2LTAuNjAyNjVoLTAuNjIyMTR2MC42MDI2NWgtMC4xNzEyMnoiIHN0eWxlPSIiLz48cGF0aCBkPSJtNDA2LjczIDEyMS45OWgwLjY3MjE2djAuMTQ0MWgtMC41MTUzNXYwLjMxMDIycTAuMDM3My0wLjAxMjcgMC4wNzQ2LTAuMDE4NiAwLjAzNzMtN2UtMyAwLjA3NDYtN2UtMyAwLjIxMTkgMCAwLjMzNTY2IDAuMTE2MTMgMC4xMjM3NSAwLjExNjEyIDAuMTIzNzUgMC4zMTQ0NiAwIDAuMjA0MjgtMC4xMjcxNCAwLjMxNzg2LTAuMTI3MTUgMC4xMTI3My0wLjM1ODU0IDAuMTEyNzMtMC4wNzk3IDAtMC4xNjI3NS0wLjAxMzYtMC4wODIyLTAuMDEzNi0wLjE3MDM3LTAuMDQwN3YtMC4xNzIwNnEwLjA3NjMgMC4wNDE1IDAuMTU3NjYgMC4wNjE5IDAuMDgxNCAwLjAyMDMgMC4xNzIwNyAwLjAyMDMgMC4xNDY2MyAwIDAuMjMyMjQtMC4wNzcxIDAuMDg1Ni0wLjA3NzEgMC4wODU2LTAuMjA5MzYgMC0wLjEzMjIzLTAuMDg1Ni0wLjIwOTM2LTAuMDg1Ni0wLjA3NzEtMC4yMzIyNC0wLjA3NzEtMC4wNjg3IDAtMC4xMzczMiAwLjAxNTMtMC4wNjc4IDAuMDE1Mi0wLjEzOTAxIDAuMDQ3NXoiIHN0eWxlPSIiLz48L2c+PGcgdHJhbnNmb3JtPSJzY2FsZSgxLjA1MDggLjk1MTY3KSIgYXJpYS1sYWJlbD0iRVRINiI+PHBhdGggZD0ibTQzMS45NiAxMjEuNTVoMC44MDAxNXYwLjE0NDFoLTAuNjI4OTN2MC4zNzQ2NGgwLjYwMjY1djAuMTQ0MWgtMC42MDI2NXYwLjQ1ODU1aDAuNjQ0MTh2MC4xNDQxaC0wLjgxNTR6IiBzdHlsZT0iIi8+PHBhdGggZD0ibTQzMi44OCAxMjEuNTVoMS4wNzA1djAuMTQ0MWgtMC40NDkyM3YxLjEyMTRoLTAuMTcyMDd2LTEuMTIxNGgtMC40NDkyM3oiIHN0eWxlPSIiLz48cGF0aCBkPSJtNDM0LjEyIDEyMS41NWgwLjE3MTIxdjAuNTE4NzRoMC42MjIxNXYtMC41MTg3NGgwLjE3MTIydjEuMjY1NWgtMC4xNzEyMnYtMC42MDI2NWgtMC42MjIxNXYwLjYwMjY1aC0wLjE3MTIxeiIgc3R5bGU9IiIvPjxwYXRoIGQ9Im00MzUuODMgMTIyLjEycS0wLjExNTI3IDAtMC4xODMwOCAwLjA3ODgtMC4wNjcgMC4wNzg4LTAuMDY3IDAuMjE2MTQgMCAwLjEzNjQ3IDAuMDY3IDAuMjE2MTQgMC4wNjc4IDAuMDc4OCAwLjE4MzA4IDAuMDc4OHQwLjE4MjI0LTAuMDc4OHEwLjA2NzgtMC4wNzk3IDAuMDY3OC0wLjIxNjE0IDAtMC4xMzczMS0wLjA2NzgtMC4yMTYxNC0wLjA2Ny0wLjA3ODgtMC4xODIyNC0wLjA3ODh6bTAuMzM5OS0wLjUzNjU0djAuMTU1OTZxLTAuMDY0NC0wLjAzMDUtMC4xMzA1NC0wLjA0NjYtMC4wNjUzLTAuMDE2MS0wLjEyOTY4LTAuMDE2MS0wLjE2OTUyIDAtMC4yNTkzNyAwLjExNDQzLTAuMDg5IDAuMTE0NDMtMC4xMDE3MSAwLjM0NTgyIDAuMDUtMC4wNzM3IDAuMTI1NDQtMC4xMTI3MyAwLjA3NTQtMC4wMzk4IDAuMTY2MTQtMC4wMzk4IDAuMTkwNzEgMCAwLjMwMDkgMC4xMTYxMyAwLjExMTAzIDAuMTE1MjcgMC4xMTEwMyAwLjMxNDQ2IDAgMC4xOTQ5NS0wLjExNTI3IDAuMzEyNzctMC4xMTUyOCAwLjExNzgyLTAuMzA2ODQgMC4xMTc4Mi0wLjIxOTUzIDAtMC4zMzU2NS0wLjE2NzgzLTAuMTE2MTItMC4xNjg2Ny0wLjExNjEyLTAuNDg4MjIgMC0wLjMwMDA2IDAuMTQyNC0wLjQ3ODA2IDAuMTQyMzktMC4xNzg4NCAwLjM4MjI3LTAuMTc4ODQgMC4wNjQ0IDAgMC4xMjk2OCAwLjAxMjcgMC4wNjYxIDAuMDEyNyAwLjEzNzMyIDAuMDM4MXoiIHN0eWxlPSIiLz48L2c+PGcgdHJhbnNmb3JtPSJzY2FsZSgxLjA1MDggLjk1MTY3KSIgYXJpYS1sYWJlbD0iRVRINyI+PHBhdGggZD0ibTQ0MC4wNSAxMjEuNTVoMC44MDAxNXYwLjE0NDFoLTAuNjI4OTN2MC4zNzQ2NGgwLjYwMjY1djAuMTQ0MWgtMC42MDI2NXYwLjQ1ODU1aDAuNjQ0MTh2MC4xNDQxaC0wLjgxNTR6IiBzdHlsZT0iIi8+PHBhdGggZD0ibTQ0MC45NyAxMjEuNTVoMS4wNzA1djAuMTQ0MWgtMC40NDkyM3YxLjEyMTRoLTAuMTcyMDd2LTEuMTIxNGgtMC40NDkyM3oiIHN0eWxlPSIiLz48cGF0aCBkPSJtNDQyLjIxIDEyMS41NWgwLjE3MTIxdjAuNTE4NzRoMC42MjIxNXYtMC41MTg3NGgwLjE3MTIydjEuMjY1NWgtMC4xNzEyMnYtMC42MDI2NWgtMC42MjIxNXYwLjYwMjY1aC0wLjE3MTIxeiIgc3R5bGU9IiIvPjxwYXRoIGQ9Im00NDMuNDkgMTIxLjU1aDAuODEzN3YwLjA3MjlsLTAuNDU5NCAxLjE5MjZoLTAuMTc4ODVsMC40MzIyOC0xLjEyMTRoLTAuNjA3NzN6IiBzdHlsZT0iIi8+PC9nPjxnIHRyYW5zZm9ybT0ic2NhbGUoMS4wNTA4IC45NTE2NykiIGFyaWEtbGFiZWw9IkVUSDgiPjxwYXRoIGQ9Im00NDguMTEgMTIxLjU1aDAuODAwMTR2MC4xNDQxaC0wLjYyODkzdjAuMzc0NjRoMC42MDI2NnYwLjE0NDFoLTAuNjAyNjZ2MC40NTg1NWgwLjY0NDE5djAuMTQ0MWgtMC44MTU0eiIgc3R5bGU9IiIvPjxwYXRoIGQ9Im00NDkuMDMgMTIxLjU1aDEuMDcwNXYwLjE0NDFoLTAuNDQ5MjN2MS4xMjE0aC0wLjE3MjA3di0xLjEyMTRoLTAuNDQ5MjN6IiBzdHlsZT0iIi8+PHBhdGggZD0ibTQ1MC4yNyAxMjEuNTVoMC4xNzEyMnYwLjUxODc0aDAuNjIyMTV2LTAuNTE4NzRoMC4xNzEyMnYxLjI2NTVoLTAuMTcxMjJ2LTAuNjAyNjVoLTAuNjIyMTV2MC42MDI2NWgtMC4xNzEyMnoiIHN0eWxlPSIiLz48cGF0aCBkPSJtNDUxLjk2IDEyMi4yMnEtMC4xMjIwNiAwLTAuMTkyNDEgMC4wNjUzLTAuMDY5NSAwLjA2NTMtMC4wNjk1IDAuMTc5NjkgMCAwLjExNDQzIDAuMDY5NSAwLjE3OTY5IDAuMDcwNCAwLjA2NTMgMC4xOTI0MSAwLjA2NTMgMC4xMjIwNiAwIDAuMTkyNDEtMC4wNjUzIDAuMDcwNC0wLjA2NjEgMC4wNzA0LTAuMTc5NjkgMC0wLjExNDQzLTAuMDcwNC0wLjE3OTY5LTAuMDY5NS0wLjA2NTMtMC4xOTI0MS0wLjA2NTN6bS0wLjE3MTIyLTAuMDcyOXEtMC4xMTAxOS0wLjAyNzEtMC4xNzIwNi0wLjEwMjU3LTAuMDYxLTAuMDc1NC0wLjA2MS0wLjE4MzkzIDAtMC4xNTE3MiAwLjEwNzY1LTAuMjM5ODcgMC4xMDg0OS0wLjA4ODEgMC4yOTY2Ni0wLjA4ODEgMC4xODkwMiAwIDAuMjk2NjcgMC4wODgxIDAuMTA3NjQgMC4wODgxIDAuMTA3NjQgMC4yMzk4NyAwIDAuMTA4NS0wLjA2MTkgMC4xODM5My0wLjA2MSAwLjA3NTQtMC4xNzAzNyAwLjEwMjU3IDAuMTIzNzUgMC4wMjg4IDAuMTkyNCAwLjExMjczIDAuMDY5NSAwLjA4MzkgMC4wNjk1IDAuMjA1MTIgMCAwLjE4MzkzLTAuMTEyNzMgMC4yODIyNi0wLjExMTg5IDAuMDk4My0wLjMyMTI1IDAuMDk4M3QtMC4zMjIwOS0wLjA5ODNxLTAuMTExODktMC4wOTgzLTAuMTExODktMC4yODIyNiAwLTAuMTIxMjEgMC4wNjk1LTAuMjA1MTIgMC4wNjk1LTAuMDgzOSAwLjE5MzI1LTAuMTEyNzN6bS0wLjA2MjctMC4yNzAzOXEwIDAuMDk4MyAwLjA2MSAwLjE1MzQyIDAuMDYxOSAwLjA1NTEgMC4xNzI5MSAwLjA1NTEgMC4xMTAxOSAwIDAuMTcyMDctMC4wNTUxIDAuMDYyNy0wLjA1NTEgMC4wNjI3LTAuMTUzNDIgMC0wLjA5ODMtMC4wNjI3LTAuMTUzNDItMC4wNjE5LTAuMDU1MS0wLjE3MjA3LTAuMDU1MS0wLjExMTA0IDAtMC4xNzI5MSAwLjA1NTEtMC4wNjEgMC4wNTUxLTAuMDYxIDAuMTUzNDJ6IiBzdHlsZT0iIi8+PC9nPjxnIHRyYW5zZm9ybT0ic2NhbGUoMS4wNTA4IC45NTE2NykiIGFyaWEtbGFiZWw9IkVUSDkiPjxwYXRoIGQ9Im00NTYuMTggMTIxLjU1aDAuODAwMTR2MC4xNDQxaC0wLjYyODkzdjAuMzc0NjRoMC42MDI2NnYwLjE0NDFoLTAuNjAyNjZ2MC40NTg1NWgwLjY0NDE5djAuMTQ0MWgtMC44MTU0eiIgc3R5bGU9IiIvPjxwYXRoIGQ9Im00NTcuMTEgMTIxLjU1aDEuMDcwNXYwLjE0NDFoLTAuNDQ5MjR2MS4xMjE0aC0wLjE3MjA2di0xLjEyMTRoLTAuNDQ5MjR6IiBzdHlsZT0iIi8+PHBhdGggZD0ibTQ1OC4zNCAxMjEuNTVoMC4xNzEyMnYwLjUxODc0aDAuNjIyMTV2LTAuNTE4NzRoMC4xNzEyMXYxLjI2NTVoLTAuMTcxMjF2LTAuNjAyNjVoLTAuNjIyMTV2MC42MDI2NWgtMC4xNzEyMnoiIHN0eWxlPSIiLz48cGF0aCBkPSJtNDU5LjY3IDEyMi43OXYtMC4xNTU5NnEwLjA2NDQgMC4wMzA1IDAuMTMwNTMgMC4wNDY2IDAuMDY2MSAwLjAxNjEgMC4xMjk2OCAwLjAxNjEgMC4xNjk1MyAwIDAuMjU4NTMtMC4xMTM1OCAwLjA4OTgtMC4xMTQ0MiAwLjEwMjU2LTAuMzQ2NjctMC4wNDkyIDAuMDcyOS0wLjEyNDYgMC4xMTE4OS0wLjA3NTQgMC4wMzktMC4xNjY5OCAwLjAzOS0wLjE4OTg3IDAtMC4zMDA5LTAuMTE0NDMtMC4xMTAxOS0wLjExNTI4LTAuMTEwMTktMC4zMTQ0NyAwLTAuMTk0OTUgMC4xMTUyNy0wLjMxMjc2IDAuMTE1MjgtMC4xMTc4MiAwLjMwNjg0LTAuMTE3ODIgMC4yMTk1MyAwIDAuMzM0OCAwLjE2ODY3IDAuMTE2MTMgMC4xNjc4MyAwLjExNjEzIDAuNDg4MjMgMCAwLjI5OTItMC4xNDI0IDAuNDc4MDUtMC4xNDE1NSAwLjE3OC0wLjM4MTQzIDAuMTc4LTAuMDY0NCAwLTAuMTMwNTMtMC4wMTI3LTAuMDY2MS0wLjAxMjctMC4xMzczMS0wLjAzODF6bTAuMzQwNzQtMC41MzY1NHEwLjExNTI3IDAgMC4xODIyMy0wLjA3ODggMC4wNjc4LTAuMDc4OCAwLjA2NzgtMC4yMTYxNSAwLTAuMTM2NDYtMC4wNjc4LTAuMjE1MjktMC4wNjctMC4wNzk3LTAuMTgyMjMtMC4wNzk3LTAuMTE1MjggMC0wLjE4MzA5IDAuMDc5Ny0wLjA2NyAwLjA3ODgtMC4wNjcgMC4yMTUyOSAwIDAuMTM3MzIgMC4wNjcgMC4yMTYxNSAwLjA2NzggMC4wNzg4IDAuMTgzMDkgMC4wNzg4eiIgc3R5bGU9IiIvPjwvZz48ZyB0cmFuc2Zvcm09InNjYWxlKDEuMDUwOCAuOTUxNjcpIiBhcmlhLWxhYmVsPSJFVEgxMCI+PHBhdGggZD0ibTQ2My43IDEyMS41NWgwLjgwMDE1djAuMTQ0MWgtMC42Mjg5M3YwLjM3NDY0aDAuNjAyNjV2MC4xNDQxaC0wLjYwMjY1djAuNDU4NTVoMC42NDQxOXYwLjE0NDFoLTAuODE1NDF6IiBzdHlsZT0iIi8+PHBhdGggZD0ibTQ2NC42MiAxMjEuNTVoMS4wNzA1djAuMTQ0MWgtMC40NDkyNHYxLjEyMTRoLTAuMTcyMDZ2LTEuMTIxNGgtMC40NDkyNHoiIHN0eWxlPSIiLz48cGF0aCBkPSJtNDY1Ljg2IDEyMS41NWgwLjE3MTIydjAuNTE4NzRoMC42MjIxNHYtMC41MTg3NGgwLjE3MTIydjEuMjY1NWgtMC4xNzEyMnYtMC42MDI2NWgtMC42MjIxNHYwLjYwMjY1aC0wLjE3MTIyeiIgc3R5bGU9IiIvPjxwYXRoIGQ9Im00NjcuMjEgMTIyLjY4aDAuMjc5NzF2LTAuOTY1NDNsLTAuMzA0MyAwLjA2MXYtMC4xNTU5NmwwLjMwMjYtMC4wNjFoMC4xNzEyMnYxLjEyMTRoMC4yNzk3MXYwLjE0NDFoLTAuNzI4OTR6IiBzdHlsZT0iIi8+PHBhdGggZD0ibTQ2OC42NSAxMjEuNjdxLTAuMTMyMjIgMC0wLjE5OTE5IDAuMTMwNTMtMC4wNjYxIDAuMTI5NjgtMC4wNjYxIDAuMzkwNzUgMCAwLjI2MDIxIDAuMDY2MSAwLjM5MDc1IDAuMDY3IDAuMTI5NjggMC4xOTkxOSAwLjEyOTY4IDAuMTMzMDggMCAwLjE5OTE5LTAuMTI5NjggMC4wNjctMC4xMzA1NCAwLjA2Ny0wLjM5MDc1IDAtMC4yNjEwNy0wLjA2Ny0wLjM5MDc1LTAuMDY2MS0wLjEzMDUzLTAuMTk5MTktMC4xMzA1M3ptMC0wLjEzNTYycTAuMjEyNzUgMCAwLjMyNDY0IDAuMTY4NjcgMC4xMTI3MyAwLjE2NzgzIDAuMTEyNzMgMC40ODgyMyAwIDAuMzE5NTUtMC4xMTI3MyAwLjQ4ODIyLTAuMTExODkgMC4xNjc4My0wLjMyNDY0IDAuMTY3ODN0LTAuMzI1NDgtMC4xNjc4M3EtMC4xMTE4OC0wLjE2ODY3LTAuMTExODgtMC40ODgyMiAwLTAuMzIwNCAwLjExMTg4LTAuNDg4MjMgMC4xMTI3My0wLjE2ODY3IDAuMzI1NDgtMC4xNjg2N3oiIHN0eWxlPSIiLz48L2c+PC9nPjxnIHRyYW5zZm9ybT0ibWF0cml4KDEuMTQgMCAwIDEuMDMyNSAxMTEuMDggLTM2LjAzNSkiPjxjaXJjbGUgY3g9IjI4NSIgY3k9IjE0MSIgcj0iLjYiIGZpbGw9IiMwZjAiLz48Y2lyY2xlIGN4PSIyODUiIGN5PSIxNDEiIHI9Ii42IiBmaWxsPSJub25lIiBzdHJva2U9IiMwMDgwMDAiIHN0cm9rZS13aWR0aD0iLjIiLz48L2c+PGcgdHJhbnNmb3JtPSJtYXRyaXgoMS4xNCAwIDAgMS4wMzI1IDExMS4wOCAtMzYuMDM1KSI+PGNpcmNsZSBjeD0iMjg3LjQiIGN5PSIxNDEiIHI9Ii42IiBmaWxsPSIjMGYwIi8+PGNpcmNsZSBjeD0iMjg3LjQiIGN5PSIxNDEiIHI9Ii42IiBmaWxsPSJub25lIiBzdHJva2U9IiMwMDgwMDAiIHN0cm9rZS13aWR0aD0iLjIiLz48L2c+PGcgdHJhbnNmb3JtPSJtYXRyaXgoMS4xNCAwIDAgMS4wMzI1IDExMS4wOCAtMzYuMDM1KSI+PGNpcmNsZSBjeD0iMjg5LjgiIGN5PSIxNDEiIHI9Ii42IiBmaWxsPSIjMGYwIi8+PGNpcmNsZSBjeD0iMjg5LjgiIGN5PSIxNDEiIHI9Ii42IiBmaWxsPSJub25lIiBzdHJva2U9IiMwMDgwMDAiIHN0cm9rZS13aWR0aD0iLjIiLz48L2c+PGcgdHJhbnNmb3JtPSJtYXRyaXgoMS4xNCAwIDAgMS4wMzI1IDExMS4wOCAtMzYuMDM1KSI+PGNpcmNsZSBjeD0iMjkyLjIiIGN5PSIxNDEiIHI9Ii42IiBmaWxsPSIjMGYwIi8+PGNpcmNsZSBjeD0iMjkyLjIiIGN5PSIxNDEiIHI9Ii42IiBmaWxsPSJub25lIiBzdHJva2U9IiMwMDgwMDAiIHN0cm9rZS13aWR0aD0iLjIiLz48L2c+PGcgdHJhbnNmb3JtPSJtYXRyaXgoMS4xNCAwIDAgMS4wMzI1IDExMS4wOCAtMzYuMDM1KSI+PGNpcmNsZSBjeD0iMjk0LjYiIGN5PSIxNDEiIHI9Ii42IiBmaWxsPSIjMGYwIi8+PGNpcmNsZSBjeD0iMjk0LjYiIGN5PSIxNDEiIHI9Ii42IiBmaWxsPSJub25lIiBzdHJva2U9IiMwMDgwMDAiIHN0cm9rZS13aWR0aD0iLjIiLz48L2c+PGcgdHJhbnNmb3JtPSJtYXRyaXgoMS4xNCAwIDAgMS4wMzI1IDExMS4wOCAtMzYuMDM1KSI+PGNpcmNsZSBjeD0iMjg1IiBjeT0iMTQzLjgiIHI9Ii42IiBmaWxsPSIjMGYwIi8+PGNpcmNsZSBjeD0iMjg1IiBjeT0iMTQzLjgiIHI9Ii42IiBmaWxsPSJub25lIiBzdHJva2U9IiMwMDgwMDAiIHN0cm9rZS13aWR0aD0iLjIiLz48L2c+PGcgdHJhbnNmb3JtPSJtYXRyaXgoMS4xNCAwIDAgMS4wMzI1IDExMS4wOCAtMzYuMDM1KSI+PGNpcmNsZSBjeD0iMjg3LjQiIGN5PSIxNDMuOCIgcj0iLjYiIGZpbGw9IiMwZjAiLz48Y2lyY2xlIGN4PSIyODcuNCIgY3k9IjE0My44IiByPSIuNiIgZmlsbD0ibm9uZSIgc3Ryb2tlPSIjMDA4MDAwIiBzdHJva2Utd2lkdGg9Ii4yIi8+PC9nPjxnIHRyYW5zZm9ybT0ibWF0cml4KDEuMTQgMCAwIDEuMDMyNSAxMTEuMDggLTM2LjAzNSkiPjxjaXJjbGUgY3g9IjI4OS44IiBjeT0iMTQzLjgiIHI9Ii42IiBmaWxsPSIjMGYwIi8+PGNpcmNsZSBjeD0iMjg5LjgiIGN5PSIxNDMuOCIgcj0iLjYiIGZpbGw9Im5vbmUiIHN0cm9rZT0iIzAwODAwMCIgc3Ryb2tlLXdpZHRoPSIuMiIvPjwvZz48ZyB0cmFuc2Zvcm09Im1hdHJpeCgxLjE0IDAgMCAxLjAzMjUgMTExLjA4IC0zNi4wMzUpIj48Y2lyY2xlIGN4PSIyOTIuMiIgY3k9IjE0My44IiByPSIuNiIgZmlsbD0iIzBmMCIvPjxjaXJjbGUgY3g9IjI5Mi4yIiBjeT0iMTQzLjgiIHI9Ii42IiBmaWxsPSJub25lIiBzdHJva2U9IiMwMDgwMDAiIHN0cm9rZS13aWR0aD0iLjIiLz48L2c+PGcgdHJhbnNmb3JtPSJtYXRyaXgoMS4xNCAwIDAgMS4wMzI1IDExMS4wOCAtMzYuMDM1KSI+PGNpcmNsZSBjeD0iMjk0LjYiIGN5PSIxNDMuOCIgcj0iLjYiIGZpbGw9IiMwZjAiLz48Y2lyY2xlIGN4PSIyOTQuNiIgY3k9IjE0My44IiByPSIuNiIgZmlsbD0ibm9uZSIgc3Ryb2tlPSIjMDA4MDAwIiBzdHJva2Utd2lkdGg9Ii4yIi8+PC9nPjxnIHRyYW5zZm9ybT0ibWF0cml4KC4wNDk1MDkgMCAwIC4wNDk1MDkgNTYyLjQ1IDEwNi42MSkiIGZpbGw9IiNmZmYiPjxnIGlkPSJWaWxuaXNoaSIgZmlsbD0iI2ZmZiI+PGcgZmlsbD0iI2ZmZiIgZmlsbC1ydWxlPSJldmVub2RkIj48cG9seWdvbiBwb2ludHM9IjEzMS4xOSA2My44MzIgMTMxLjUyIDYzLjgzMiAxMDcuMzIgMTUyLjQ3IDExOC4zNSAxNTIuNDcgMTQzLjU0IDU0LjUwMSAxMjcuMjQgNTQuNTAxIDYyLjY5NyAxNDIuNDUgNDQuNDIxIDU0LjUwMSAyOC4xMjIgNTQuNTAxIDIuNjAyIDE1Mi40NyAxMy40NjcgMTUyLjQ3IDM1LjY5NSA2Mi40NTkgMzYuMDI0IDYyLjQ1OSA1NC45NTggMTUyLjQ3IDY2LjE1NSAxNTIuNDciLz48cGF0aCBkPSJtMTU0LjExIDgxLjY2OC0xOC4yNzYgNzAuNzk4aDEwLjM3M2wxOC4yNzUtNzAuNzk4aC0xMC4zNzJ6Ii8+PHBvbHlnb24gcG9pbnRzPSIyMDQuNjMgMTA4Ljk3IDI0NC44IDgxLjY2OCAyMzAuOTcgODEuNjY4IDE4MS4yNSAxMTYuMjQgMTgwLjkyIDExNS45NyAxODkuNzggODEuNjU0IDE3OS4zOSA4MS42NTQgMTYxLjMyIDE1Mi40NyAxNzEuNyAxNTIuNDcgMTc4LjI4IDEyNi44MSAxOTYuMzkgMTE0LjE4IDIxOC45NSAxNTIuNDcgMjMwLjMxIDE1Mi40NyIvPjxwYXRoIGQ9Im0yNTAuOTEgODEuNjY4LTE4LjI3NSA3MC43OThoMTAuMzczbDkuNTQ5LTM3LjA0NmMzLjQ1OC0xMy4zMDkgMTMuMzM2LTI1Ljc5NCAzMS45NDEtMjYuMDY4IDEuOTc2IDAgMy45NTIgMC4xMzcgNS45MjcgMC4xMzdsMi4zMDUtOC42NDRjLTEuODEyLTAuMTM4LTMuNzg3LTAuMTM4LTUuNTk4LTAuMTM4LTE1LjE0Ny0wLjEzNy0yNC4yMDMgNy4xMzUtMzAuNzg5IDE3LjI4OWgtMC4zM2w0LjI4MS0xNi4zMjhoLTkuMzg0eiIvPjxwYXRoIGQ9Im0zNjQuNyAxMDcuMzJjMC0xNy40MjUtMTMuODMtMjcuNzE2LTMzLjU4OC0yNy43MTYtMzAuMjk1IDAtNDcuNDE4IDIyLjIyOC00Ny40MTggNDUuNDE1IDAgMTcuNyAxMi4wMTkgMjkuNSAzMy45MTYgMjkuNSAzMS40NS0xZS0zIDQ3LjA5LTIzLjMyNSA0Ny4wOS00Ny4xOTl6bS0xMC4zNzMgMS43ODNjMCAxNi40NjUtMTIuMDIgMzguMTQ0LTM0Ljc0IDM4LjE0NC0xNy4yODggMC0yNS41Mi05LjMzMS0yNS41Mi0yMy4wNTEgMC0xNi42MDEgMTIuNTE0LTM3LjMyIDM1LjIzNC0zNy4zMiAxNi42MjkgMCAyNS4wMjYgOS4wNTYgMjUuMDI2IDIyLjIyN3oiLz48cG9seWdvbiBwb2ludHM9IjQzMS42NiA4MS42NTQgNDY0LjI0IDgxLjYxOCA0NzAuOTggNTQuNDg1IDM2OS41NiA1NC40ODUgMzYyLjg2IDgxLjY1NCAzOTUuMzkgODEuNjU0IDM5NS4zOSA4MS42NjIgNDMxLjY2IDgxLjY2MiIvPjxwb2x5Z29uIHBvaW50cz0iMzc3Ljc5IDE1Mi40NSA0MTQuMDEgMTUyLjQ1IDQyOC40MiA5NC42NTQgNDI4LjQzIDk0LjYzIDM5Mi4xNiA5NC42MyAzOTIuMTYgOTQuNjM0Ii8+PHBhdGggZD0ibTQ3MC4wNiA5NC42MzktMTQuMzE1IDU3LjgxMWgzMi42MDFsMTQuMzE1LTU3LjgxMWgtMzIuNjAxem0zNS44NzctMTMuMDIxIDYuNzc0LTI3LjEzM2gtMzIuNmwtNi44MjEgMjcuMTY4IDMyLjY0Ny0wLjAzNXoiLz48cG9seWdvbiBwb2ludHM9IjU3Mi4xNCAxMDkuOTIgNjEwLjUgODEuMjQgNTcxLjQ4IDgxLjI0IDU0Ny40NCAxMDIuMSA1NDcuMTEgMTAyLjEgNTU4LjggNTQuNDg1IDUyNi4yIDU0LjQ4NSA1MDEuODMgMTUyLjQ1IDUzNC40MyAxNTIuNDUgNTM5LjU0IDEzMi4xNCA1NDYuOTUgMTI2LjY2IDU1OC40NyAxNTIuNDUgNTkzLjg3IDE1Mi40NSIvPjxwYXRoIGQ9Im0xNTIuODggMTEuNjk0YzQuOTM3IDM0LjI3NiAyMy4zMzcgNTUuMDg5IDYwLjgzMSA1Ni44MDktMzUuMzI4IDEzLjUwNS03MS43NDctMTguMjY1LTYwLjgzMS01Ni44MDl6Ii8+PHBhdGggZD0ibTE2OC4xMiA2Ljg0YzMuOTg0IDI3LjY1OSAxOC44MzIgNDQuNDUzIDQ5LjA4NiA0NS44NDEtMjguNTA2IDEwLjg5OC01Ny44OTQtMTQuNzM5LTQ5LjA4Ni00NS44NDF6Ii8+PC9nPjwvZz48L2c+PGNpcmNsZSBjeD0iMzczLjg3IiBjeT0iMTEyLjI1IiByPSIuNjUxODQiIGZpbGw9IiMwNmYiIGZpbGwtb3BhY2l0eT0iLjk2NjIyIiBmaWxsLXJ1bGU9ImV2ZW5vZGQiIHN0cm9rZT0iIzA0YSIgc3Ryb2tlLWxpbmVqb2luPSJyb3VuZCIgc3Ryb2tlLXdpZHRoPSIuMTA2MjIiLz48Y2lyY2xlIGN4PSIzNzMuODciIGN5PSIxMDkuNjIiIHI9Ii42NTE4NCIgZmlsbD0iIzRkNGQ0ZCIgZmlsbC1vcGFjaXR5PSIuOTY2MjIiIGZpbGwtcnVsZT0iZXZlbm9kZCIgc3Ryb2tlPSIjMDkwOTA5IiBzdHJva2UtbGluZWpvaW49InJvdW5kIiBzdHJva2Utd2lkdGg9Ii4wNTMxMDkiLz48L3N2Zz4=;points=[[0.116,0.7,0],[0.152,0.7,0],[0.188,0.7,0],[0.224,0.7,0],[0.260,0.7,0],[0.388,0.7,0],[0.424,0.7,0],[0.460,0.7,0],[0.496,0.7,0],[0.532,0.7,0]];container=1;collapsible=0;" vertex="1" parent="1">
            <mxGeometry x="200" y="80" width="443" height="45" as="geometry" />
          </mxCell>
        </UserObject>
        <UserObject label="" tooltip="MikroTik RB3011" id="M3h9QTwmvYOQUAOVeUot-2">
          <mxCell style="shape=image;verticalLabelPosition=bottom;labelBackgroundColor=#ffffff;verticalAlign=top;aspect=fixed;imageAspect=0;image=data:image/svg+xml,PHN2ZyB4bWxucz0iaHR0cDovL3d3dy53My5vcmcvMjAwMC9zdmciIHdpZHRoPSI0NDMiIGhlaWdodD0iNDQuNSIgdmVyc2lvbj0iMS4xIiB2aWV3Qm94PSIzNjUgOTkgMjM1LjI3MzI2IDE0LjQ0MjcyMiI+PHJlY3QgeD0iMzY1IiB5PSI5NC40MDUiIHdpZHRoPSIyMzUuMjciIGhlaWdodD0iMjMuNjM0IiBmaWxsPSIjMWExYTFhIi8+PHJlY3QgeD0iMzg3Ljg1IiB5PSIxMDcuMDQiIHdpZHRoPSI0Mi4xNyIgaGVpZ2h0PSI3LjU2NTQiIGZpbGw9IiNlYmViZWIiIHN0cm9rZT0iIzAwMCIgc3Ryb2tlLWxpbmVqb2luPSJyb3VuZCIgc3Ryb2tlLXdpZHRoPSIuMTA2MjIiLz48ZyBmaWxsPSIjMWExYTFhIj48cGF0aCBkPSJtNDI5LjQzIDExMi41MmgtMS43NTk1bDNlLTMgMS4wNjUzLTAuNjQwMzIgNS43ZS00djAuMzk4ODZoLTIuMDYzOWw0LjhlLTQgLTAuMzk5OWgtMC42NjY1di0xLjA2NTRoLTEuNzUxNHYtNC41ODY2bDYuODc3OS0wLjAxNDl6Ii8+PHBhdGggZD0ibTQyMC45NSAxMTIuNTJoLTEuNzU5NWwzZS0zIDEuMDY1My0wLjY0MDMyIDUuN2UtNHYwLjM5ODg2aC0yLjA2MzlsNC44ZS00IC0wLjM5OTloLTAuNjY2NXYtMS4wNjU0aC0xLjc1MTR2LTQuNTg2Nmw2Ljg3NzktMC4wMTQ5eiIvPjxwYXRoIGQ9Im00MTIuNDcgMTEyLjUyaC0xLjc1OTVsM2UtMyAxLjA2NTMtMC42NDAzMiA1LjdlLTR2MC4zOTg4NmgtMi4wNjM5bDQuOGUtNCAtMC4zOTk5aC0wLjY2NjV2LTEuMDY1NGgtMS43NTE0di00LjU4NjZsNi44Nzc5LTAuMDE0OXoiLz48cGF0aCBkPSJtNDAzLjk4IDExMi41MmgtMS43NTk1bDNlLTMgMS4wNjUzLTAuNjQwMzIgNS43ZS00djAuMzk4ODZoLTIuMDYzOWw0LjhlLTQgLTAuMzk5OWgtMC42NjY1di0xLjA2NTRoLTEuNzUxNHYtNC41ODY2bDYuODc3OS0wLjAxNDl6Ii8+PHBhdGggZD0ibTM5NS41IDExMi41MmgtMS43NTk1bDNlLTMgMS4wNjUzLTAuNjQwMzIgNS43ZS00djAuMzk4ODZoLTIuMDYzOWw0LjhlLTQgLTAuMzk5OWgtMC42NjY1di0xLjA2NTRoLTEuNzUxNHYtNC41ODY2bDYuODc3OS0wLjAxNDl6Ii8+PC9nPjxyZWN0IHg9IjQ1MS45NyIgeT0iMTA3LjE3IiB3aWR0aD0iNDIuMTciIGhlaWdodD0iNy41NjU0IiBmaWxsPSIjZWJlYmViIiBzdHJva2U9IiMwMDAiIHN0cm9rZS1saW5lam9pbj0icm91bmQiIHN0cm9rZS13aWR0aD0iLjEwNjIyIi8+PGcgZmlsbD0iIzFhMWExYSI+PHBhdGggZD0ibTQ5My41NiAxMTIuNjVoLTEuNzU5NWwzZS0zIDEuMDY1My0wLjY0MDMyIDUuN2UtNHYwLjM5ODg2aC0yLjA2MzlsNC44ZS00IC0wLjM5OTloLTAuNjY2NXYtMS4wNjU0aC0xLjc1MTR2LTQuNTg2Nmw2Ljg3NzktMC4wMTQ5eiIvPjxwYXRoIGQ9Im00ODUuMDcgMTEyLjY1aC0xLjc1OTVsM2UtMyAxLjA2NTMtMC42NDAzMiA1LjdlLTR2MC4zOTg4NmgtMi4wNjM5bDQuOGUtNCAtMC4zOTk5aC0wLjY2NjV2LTEuMDY1NGgtMS43NTE0di00LjU4NjZsNi44Nzc5LTAuMDE0OXoiLz48cGF0aCBkPSJtNDc2LjU5IDExMi42NWgtMS43NTk1bDNlLTMgMS4wNjUzLTAuNjQwMzIgNS43ZS00djAuMzk4ODZoLTIuMDYzOWw0LjhlLTQgLTAuMzk5OWgtMC42NjY1di0xLjA2NTRoLTEuNzUxNHYtNC41ODY2bDYuODc3OS0wLjAxNDl6Ii8+PHBhdGggZD0ibTQ2OC4xMSAxMTIuNjVoLTEuNzU5NWwzZS0zIDEuMDY1My0wLjY0MDMyIDUuN2UtNHYwLjM5ODg2aC0yLjA2MzlsNC44ZS00IC0wLjM5OTloLTAuNjY2NXYtMS4wNjU0aC0xLjc1MTR2LTQuNTg2Nmw2Ljg3NzktMC4wMTQ5eiIvPjxwYXRoIGQ9Im00NTkuNjMgMTEyLjY1aC0xLjc1OTVsM2UtMyAxLjA2NTMtMC42NDAzMiA1LjdlLTR2MC4zOTg4NmgtMi4wNjM5bDQuOGUtNCAtMC4zOTk5aC0wLjY2NjV2LTEuMDY1NGgtMS43NTE0di00LjU4NjZsNi44Nzc5LTAuMDE0OXoiLz48L2c+PGcgdHJhbnNmb3JtPSJzY2FsZSgxLjA1MDggLjk1MTY3KSIgZmlsbD0iI2ZmZiIgYXJpYS1sYWJlbD0iR0lHQUJJVCBFVEhFUk5FVCI+PHBhdGggZD0ibTM4MS42OCAxMTAuMDZ2LTAuMzM5ODloLTAuMjc5NzF2LTAuMTQwNzFoMC40NDkyM3YwLjU0MzMycS0wLjA5OTIgMC4wNzAzLTAuMjE4NjggMC4xMDY4LTAuMTE5NTEgMC4wMzU2LTAuMjU1MTMgMC4wMzU2LTAuMjk2NjcgMC0wLjQ2NDQ5LTAuMTcyOTEtMC4xNjY5OC0wLjE3Mzc2LTAuMTY2OTgtMC40ODMxNCAwLTAuMzEwMjMgMC4xNjY5OC0wLjQ4MzE0IDAuMTY3ODItMC4xNzM3NiAwLjQ2NDQ5LTAuMTczNzYgMC4xMjM3NSAwIDAuMjM0NzkgMC4wMzA1IDAuMTExODggMC4wMzA1IDAuMjA1OTcgMC4wODk4djAuMTgyMjRxLTAuMDk0OS0wLjA4MDUtMC4yMDE3NC0wLjEyMTIxLTAuMTA2NzktMC4wNDA3LTAuMjI0NjEtMC4wNDA3LTAuMjMyMjUgMC0wLjM0OTIyIDAuMTI5NjktMC4xMTYxMiAwLjEyOTY4LTAuMTE2MTIgMC4zODY1MSAwIDAuMjU1OTggMC4xMTYxMiAwLjM4NTY2IDAuMTE2OTcgMC4xMjk2OSAwLjM0OTIyIDAuMTI5NjkgMC4wOTA3IDAgMC4xNjE4OS0wLjAxNTMgMC4wNzEyLTAuMDE2MSAwLjEyNzk5LTAuMDQ5MnoiIHN0eWxlPSIiLz48cGF0aCBkPSJtMzgyLjE3IDEwOC45OGgwLjE3MTIydjEuMjY1NWgtMC4xNzEyMnoiIHN0eWxlPSIiLz48cGF0aCBkPSJtMzgzLjU0IDExMC4wNnYtMC4zMzk4OWgtMC4yNzk3MnYtMC4xNDA3MWgwLjQ0OTI0djAuNTQzMzJxLTAuMDk5MiAwLjA3MDMtMC4yMTg2OSAwLjEwNjgtMC4xMTk1MSAwLjAzNTYtMC4yNTUxMyAwLjAzNTYtMC4yOTY2NiAwLTAuNDY0NDktMC4xNzI5MS0wLjE2Njk4LTAuMTczNzYtMC4xNjY5OC0wLjQ4MzE0IDAtMC4zMTAyMyAwLjE2Njk4LTAuNDgzMTQgMC4xNjc4My0wLjE3Mzc2IDAuNDY0NDktMC4xNzM3NiAwLjEyMzc1IDAgMC4yMzQ3OSAwLjAzMDUgMC4xMTE4OSAwLjAzMDUgMC4yMDU5NyAwLjA4OTh2MC4xODIyNHEtMC4wOTQ5LTAuMDgwNS0wLjIwMTczLTAuMTIxMjEtMC4xMDY4LTAuMDQwNy0wLjIyNDYyLTAuMDQwNy0wLjIzMjI0IDAtMC4zNDkyMSAwLjEyOTY5LTAuMTE2MTMgMC4xMjk2OC0wLjExNjEzIDAuMzg2NTEgMCAwLjI1NTk4IDAuMTE2MTMgMC4zODU2NiAwLjExNjk3IDAuMTI5NjkgMC4zNDkyMSAwLjEyOTY5IDAuMDkwNyAwIDAuMTYxOS0wLjAxNTMgMC4wNzEyLTAuMDE2MSAwLjEyNzk5LTAuMDQ5MnoiIHN0eWxlPSIiLz48cGF0aCBkPSJtMzg0LjQ1IDEwOS4xNC0wLjIzMjI0IDAuNjI5NzhoMC40NjUzNHptLTAuMDk2Ni0wLjE2ODY3aDAuMTk0MWwwLjQ4MjI5IDEuMjY1NWgtMC4xNzhsLTAuMTE1MjctMC4zMjQ2M2gtMC41NzA0NWwtMC4xMTUyNyAwLjMyNDYzaC0wLjE4MDU0eiIgc3R5bGU9IiIvPjxwYXRoIGQ9Im0zODUuMzggMTA5LjY0djAuNDYzNjVoMC4yNzQ2M3EwLjEzODE2IDAgMC4yMDQyNy0wLjA1NjggMC4wNjctMC4wNTc2IDAuMDY3LTAuMTc1NDYgMC0wLjExODY2LTAuMDY3LTAuMTc0NjEtMC4wNjYxLTAuMDU2OC0wLjIwNDI3LTAuMDU2OHptMC0wLjUyMDQzdjAuMzgxNDJoMC4yNTM0NHEwLjEyNTQ0IDAgMC4xODY0Ny0wLjA0NjYgMC4wNjE5LTAuMDQ3NSAwLjA2MTktMC4xNDQxIDAtMC4wOTU4LTAuMDYxOS0wLjE0MzI0LTAuMDYxLTAuMDQ3NS0wLjE4NjQ3LTAuMDQ3NXptLTAuMTcxMjItMC4xNDA3aDAuNDM3MzdxMC4xOTU4IDAgMC4zMDE3NSAwLjA4MTR0MC4xMDU5NSAwLjIzMTM5cTAgMC4xMTYxMy0wLjA1NDMgMC4xODQ3OC0wLjA1NDIgMC4wNjg3LTAuMTU5MzUgMC4wODU2IDAuMTI2MyAwLjAyNzEgMC4xOTU4IDAuMTEzNTggMC4wNzA0IDAuMDg1NiAwLjA3MDQgMC4yMTQ0NSAwIDAuMTY5NTItMC4xMTUyNyAwLjI2MTkxLTAuMTE1MjggMC4wOTI0LTAuMzI4MDMgMC4wOTI0aC0wLjQ1NDMyeiIgc3R5bGU9IiIvPjxwYXRoIGQ9Im0zODYuNCAxMDguOThoMC4xNzEyMnYxLjI2NTVoLTAuMTcxMjJ6IiBzdHlsZT0iIi8+PHBhdGggZD0ibTM4Ni43NCAxMDguOThoMS4wNzA1djAuMTQ0MDloLTAuNDQ5MjR2MS4xMjE0aC0wLjE3MjA2di0xLjEyMTRoLTAuNDQ5MjR6IiBzdHlsZT0iIi8+PHBhdGggZD0ibTM4OC41MyAxMDguOThoMC44MDAxNXYwLjE0NDA5aC0wLjYyODkzdjAuMzc0NjRoMC42MDI2NXYwLjE0NDFoLTAuNjAyNjV2MC40NTg1NmgwLjY0NDE4djAuMTQ0MDloLTAuODE1NHoiIHN0eWxlPSIiLz48cGF0aCBkPSJtMzg5LjQ1IDEwOC45OGgxLjA3MDV2MC4xNDQwOWgtMC40NDkyM3YxLjEyMTRoLTAuMTcyMDd2LTEuMTIxNGgtMC40NDkyM3oiIHN0eWxlPSIiLz48cGF0aCBkPSJtMzkwLjY5IDEwOC45OGgwLjE3MTIxdjAuNTE4NzNoMC42MjIxNXYtMC41MTg3M2gwLjE3MTIydjEuMjY1NWgtMC4xNzEyMnYtMC42MDI2NWgtMC42MjIxNXYwLjYwMjY1aC0wLjE3MTIxeiIgc3R5bGU9IiIvPjxwYXRoIGQ9Im0zOTEuOTkgMTA4Ljk4aDAuODAwMTR2MC4xNDQwOWgtMC42Mjg5MnYwLjM3NDY0aDAuNjAyNjV2MC4xNDQxaC0wLjYwMjY1djAuNDU4NTZoMC42NDQxOHYwLjE0NDA5aC0wLjgxNTR6IiBzdHlsZT0iIi8+PHBhdGggZD0ibTM5My42OSAxMDkuNjVxMC4wNTUxIDAuMDE4NiAwLjEwNjggMC4wNzk3IDAuMDUyNSAwLjA2MSAwLjEwNTExIDAuMTY3ODJsMC4xNzM3NiAwLjM0NTgzaC0wLjE4MzkzbC0wLjE2MTktMC4zMjQ2M3EtMC4wNjI3LTAuMTI3MTUtMC4xMjIwNS0wLjE2ODY4LTAuMDU4NS0wLjA0MTUtMC4xNjAyLTAuMDQxNWgtMC4xODY0OHYwLjUzNDg0aC0wLjE3MTIydi0xLjI2NTVoMC4zODY1MnEwLjIxNjk4IDAgMC4zMjM3OCAwLjA5MDd0MC4xMDY4IDAuMjczNzhxMCAwLjExOTUxLTAuMDU1OSAwLjE5ODM0LTAuMDU1MSAwLjA3ODgtMC4xNjEwNSAwLjEwOTM0em0tMC40Mjg4OS0wLjUzMTQ1djAuNDQ5MjNoMC4yMTUzcTAuMTIzNzUgMCAwLjE4NjQ3LTAuMDU2OCAwLjA2MzYtMC4wNTc2IDAuMDYzNi0wLjE2ODY3IDAtMC4xMTEwNC0wLjA2MzYtMC4xNjY5OC0wLjA2MjctMC4wNTY4LTAuMTg2NDctMC4wNTY4eiIgc3R5bGU9IiIvPjxwYXRoIGQ9Im0zOTQuMyAxMDguOThoMC4yMzA1NWwwLjU2MTEyIDEuMDU4N3YtMS4wNTg3aDAuMTY2MTR2MS4yNjU1aC0wLjIzMDU1bC0wLjU2MTEyLTEuMDU4N3YxLjA1ODdoLTAuMTY2MTR6IiBzdHlsZT0iIi8+PHBhdGggZD0ibTM5NS42IDEwOC45OGgwLjgwMDE0djAuMTQ0MDloLTAuNjI4OTN2MC4zNzQ2NGgwLjYwMjY2djAuMTQ0MWgtMC42MDI2NnYwLjQ1ODU2aDAuNjQ0MTl2MC4xNDQwOWgtMC44MTU0eiIgc3R5bGU9IiIvPjxwYXRoIGQ9Im0zOTYuNTIgMTA4Ljk4aDEuMDcwNXYwLjE0NDA5aC0wLjQ0OTI0djEuMTIxNGgtMC4xNzIwNnYtMS4xMjE0aC0wLjQ0OTIzeiIgc3R5bGU9IiIvPjwvZz48ZyB0cmFuc2Zvcm09InNjYWxlKDEuMDUwOCAuOTUxNjcpIiBmaWxsPSIjZmZmIiBhcmlhLWxhYmVsPSJSQjIwMTEiPjxwYXRoIGQ9Im0zNTEuNDkgMTA5LjI2cTAuMjE3MDkgMCAwLjMxMDM4LTAuMDgwNyAwLjA5NTEtMC4wODA3IDAuMDk1MS0wLjI2NTUzIDAtMC4xODI5OS0wLjA5NTEtMC4yNjE5NC0wLjA5MzMtMC4wNzg5LTAuMzEwMzgtMC4wNzg5aC0wLjI5MDY1djAuNjg3MTV6bS0wLjI5MDY1IDAuNDc3MjN2MS4wMTM3aC0wLjY5MDczdi0yLjY3ODZoMS4wNTQ5cTAuNTI5MjYgMCAwLjc3NTA1IDAuMTc3NjEgMC4yNDc1OSAwLjE3NzYyIDAuMjQ3NTkgMC41NjE1NiAwIDAuMjY1NTMtMC4xMjkxNyAwLjQzNTk3LTAuMTI3MzkgMC4xNzA0NC0wLjM4NTc0IDAuMjUxMTggMC4xNDE3NCAwLjAzMjMgMC4yNTI5NyAwLjE0NzExIDAuMTEzMDMgMC4xMTMwMyAwLjIyNzg1IDAuMzQ0NDdsMC4zNzQ5NyAwLjc2MDcxaC0wLjczNTU4bC0wLjMyNjUzLTAuNjY1NjJxLTAuMDk4Ny0wLjIwMDk0LTAuMjAwOTQtMC4yNzQ1LTAuMTAwNDctMC4wNzM2LTAuMjY5MTItMC4wNzM2eiIgc3R5bGU9IiIvPjxwYXRoIGQ9Im0zNTQuNDEgMTA5LjExcTAuMTYzMjcgMCAwLjI0NzU5LTAuMDcxOCAwLjA4NDMtMC4wNzE4IDAuMDg0My0wLjIxMTcxIDAtMC4xMzgxNC0wLjA4NDMtMC4yMDk5MS0wLjA4NDMtMC4wNzM2LTAuMjQ3NTktMC4wNzM2aC0wLjM4MjE0djAuNTY2OTR6bTAuMDIzMyAxLjE3MTZxMC4yMDgxMSAwIDAuMzEyMTctMC4wODc5IDAuMTA1ODUtMC4wODc5IDAuMTA1ODUtMC4yNjU1MyAwLTAuMTc0MDMtMC4xMDQwNS0wLjI2MDE1LTAuMTA0MDYtMC4wODc5LTAuMzEzOTctMC4wODc5aC0wLjQwNTQ3djAuNzAxNXptMC42NDIyOS0wLjk2MzQ0cTAuMjIyNDcgMC4wNjQ2IDAuMzQ0NDcgMC4yMzg2MiAwLjEyMiAwLjE3NDAzIDAuMTIyIDAuNDI3IDAgMC4zODc1My0wLjI2MTk0IDAuNTc3Ny0wLjI2MTk0IDAuMTkwMTgtMC43OTY1OSAwLjE5MDE4aC0xLjE0NjR2LTIuNjc4NmgxLjAzN3EwLjU1Nzk3IDAgMC44MDczNSAwLjE2ODY0IDAuMjUxMTggMC4xNjg2NSAwLjI1MTE4IDAuNTQwMDMgMCAwLjE5NTU2LTAuMDkxNSAwLjMzMzcxLTAuMDkxNSAwLjEzNjM1LTAuMjY1NTMgMC4yMDI3M3oiIHN0eWxlPSIiLz48cGF0aCBkPSJtMzU2Ljg2IDExMC4yNGgxLjE3ODd2MC41MDc3NGgtMS45NDY2di0wLjUwNzc0bDAuOTc3NzktMC44NjI5N3EwLjEzMDk4LTAuMTE4NDEgMC4xOTM3Ny0wLjIzMTQ0IDAuMDYyOC0wLjExMzAzIDAuMDYyOC0wLjIzNTAzIDAtMC4xODgzOC0wLjEyNzM4LTAuMzAzMi0wLjEyNTU5LTAuMTE0ODItMC4zMzU1LTAuMTE0ODItMC4xNjE0NyAwLTAuMzUzNDQgMC4wNy0wLjE5MTk3IDAuMDY4Mi0wLjQxMDg1IDAuMjA0NTN2LTAuNTg4NDdxMC4yMzMyMy0wLjA3NzIgMC40NjEwOS0wLjExNjYyIDAuMjI3ODUtMC4wNDEzIDAuNDQ2NzMtMC4wNDEzIDAuNDgwODIgMCAwLjc0NjM1IDAuMjExNzEgMC4yNjczMyAwLjIxMTcxIDAuMjY3MzMgMC41OTAyNiAwIDAuMjE4ODktMC4xMTMwMyAwLjQwOTA2LTAuMTEzMDMgMC4xODgzOC0wLjQ3NTQ0IDAuNTA1OTR6IiBzdHlsZT0iIi8+PHBhdGggZD0ibTM2MC4wNCAxMDkuNDFxMC0wLjUwMjM1LTAuMDk1MS0wLjcwNjg4LTAuMDkzMy0wLjIwNjMyLTAuMzE1NzYtMC4yMDYzMi0wLjIyMjQ3IDAtMC4zMTc1NiAwLjIwNjMyLTAuMDk1MSAwLjIwNDUzLTAuMDk1MSAwLjcwNjg4IDAgMC41MDc3MyAwLjA5NTEgMC43MTU4NXQwLjMxNzU2IDAuMjA4MTJxMC4yMjA2NyAwIDAuMzE1NzYtMC4yMDgxMiAwLjA5NTEtMC4yMDgxMiAwLjA5NTEtMC43MTU4NXptMC42OTA3MyA1ZS0zcTAgMC42NjU2Mi0wLjI4NzA1IDEuMDI4LTAuMjg3MDYgMC4zNjA2Mi0wLjgxNDUzIDAuMzYwNjItMC41MjkyNyAwLTAuODE2MzItMC4zNjA2Mi0wLjI4NzA2LTAuMzYyNDEtMC4yODcwNi0xLjAyOCAwLTAuNjY3NDEgMC4yODcwNi0xLjAyOCAwLjI4NzA1LTAuMzYyNDIgMC44MTYzMi0wLjM2MjQyIDAuNTI3NDcgMCAwLjgxNDUzIDAuMzYyNDIgMC4yODcwNSAwLjM2MDYxIDAuMjg3MDUgMS4wMjh6IiBzdHlsZT0iIi8+PHBhdGggZD0ibTM2MS4zNCAxMTAuMjdoMC42MXYtMS43MzEzbC0wLjYyNjE1IDAuMTI5MTh2LTAuNDcwMDZsMC42MjI1Ni0wLjEyOTE3aDAuNjU2NjV2Mi4yMDE0aDAuNjA5OTl2MC40NzcyNGgtMS44NzN6IiBzdHlsZT0iIi8+PHBhdGggZD0ibTM2My44OSAxMTAuMjdoMC42MXYtMS43MzEzbC0wLjYyNjE1IDAuMTI5MTh2LTAuNDcwMDZsMC42MjI1Ni0wLjEyOTE3aDAuNjU2NjR2Mi4yMDE0aDAuNjF2MC40NzcyNGgtMS44NzN6IiBzdHlsZT0iIi8+PC9nPjxnIHRyYW5zZm9ybT0idHJhbnNsYXRlKC0xMy4yODcpIj48ZyB0cmFuc2Zvcm09Im1hdHJpeCgxLjE0IDAgMCAxLjAzMjUgMTE2LjI5IC0zNi4wMDEpIj48cG9seWdvbiBwb2ludHM9IjIzNCAxMjkgMjM2LjggMTI5IDIzNS40IDEzMS40Ii8+PHBvbHlnb24gcG9pbnRzPSIyMzQgMTI5IDIzNi44IDEyOSAyMzUuNCAxMzEuNCIgZmlsbD0ibm9uZSIgc3Ryb2tlPSIjMDAwIiBzdHJva2Utd2lkdGg9Ii4yIi8+PHBvbHlnb24gcG9pbnRzPSIyMzcuOCAxMjkgMjM5LjIgMTMxLjQgMjM2LjQgMTMxLjQiLz48cG9seWdvbiBwb2ludHM9IjIzNy44IDEyOSAyMzkuMiAxMzEuNCAyMzYuNCAxMzEuNCIgZmlsbD0ibm9uZSIgc3Ryb2tlPSIjMDAwIiBzdHJva2Utd2lkdGg9Ii4yIi8+PHBvbHlnb24gcG9pbnRzPSIyMzguOCAxMjkgMjQxLjYgMTI5IDI0MC4yIDEzMS40Ii8+PHBvbHlnb24gcG9pbnRzPSIyMzguOCAxMjkgMjQxLjYgMTI5IDI0MC4yIDEzMS40IiBmaWxsPSJub25lIiBzdHJva2U9IiMwMDAiIHN0cm9rZS13aWR0aD0iLjIiLz48cG9seWdvbiBwb2ludHM9IjI0Mi42IDEyOSAyNDQgMTMxLjQgMjQxLjIgMTMxLjQiLz48cG9seWdvbiBwb2ludHM9IjI0Mi42IDEyOSAyNDQgMTMxLjQgMjQxLjIgMTMxLjQiIGZpbGw9Im5vbmUiIHN0cm9rZT0iIzAwMCIgc3Ryb2tlLXdpZHRoPSIuMiIvPjxwb2x5Z29uIHBvaW50cz0iMjQzLjYgMTI5IDI0Ni40IDEyOSAyNDUgMTMxLjQiLz48cG9seWdvbiBwb2ludHM9IjI0My42IDEyOSAyNDYuNCAxMjkgMjQ1IDEzMS40IiBmaWxsPSJub25lIiBzdHJva2U9IiMwMDAiIHN0cm9rZS13aWR0aD0iLjIiLz48cG9seWdvbiBwb2ludHM9IjI0Ny40IDEyOSAyNDguOCAxMzEuNCAyNDYgMTMxLjQiLz48cG9seWdvbiBwb2ludHM9IjI0Ny40IDEyOSAyNDguOCAxMzEuNCAyNDYgMTMxLjQiIGZpbGw9Im5vbmUiIHN0cm9rZT0iIzAwMCIgc3Ryb2tlLXdpZHRoPSIuMiIvPjxwb2x5Z29uIHBvaW50cz0iMjQ4LjQgMTI5IDI1MS4yIDEyOSAyNDkuOCAxMzEuNCIvPjxwb2x5Z29uIHBvaW50cz0iMjQ4LjQgMTI5IDI1MS4yIDEyOSAyNDkuOCAxMzEuNCIgZmlsbD0ibm9uZSIgc3Ryb2tlPSIjMDAwIiBzdHJva2Utd2lkdGg9Ii4yIi8+PHBvbHlnb24gcG9pbnRzPSIyNTIuMiAxMjkgMjUzLjYgMTMxLjQgMjUwLjggMTMxLjQiLz48cG9seWdvbiBwb2ludHM9IjI1Mi4yIDEyOSAyNTMuNiAxMzEuNCAyNTAuOCAxMzEuNCIgZmlsbD0ibm9uZSIgc3Ryb2tlPSIjMDAwIiBzdHJva2Utd2lkdGg9Ii4yIi8+PHBvbHlnb24gcG9pbnRzPSIyNTMuMiAxMjkgMjU2IDEyOSAyNTQuNiAxMzEuNCIvPjxwb2x5Z29uIHBvaW50cz0iMjUzLjIgMTI5IDI1NiAxMjkgMjU0LjYgMTMxLjQiIGZpbGw9Im5vbmUiIHN0cm9rZT0iIzAwMCIgc3Ryb2tlLXdpZHRoPSIuMiIvPjxwb2x5Z29uIHBvaW50cz0iMjU3IDEyOSAyNTguNCAxMzEuNCAyNTUuNiAxMzEuNCIvPjxwb2x5Z29uIHBvaW50cz0iMjU3IDEyOSAyNTguNCAxMzEuNCAyNTUuNiAxMzEuNCIgZmlsbD0ibm9uZSIgc3Ryb2tlPSIjMDAwIiBzdHJva2Utd2lkdGg9Ii4yIi8+PHBvbHlnb24gcG9pbnRzPSIyNTggMTI5IDI2MC44IDEyOSAyNTkuNCAxMzEuNCIvPjxwb2x5Z29uIHBvaW50cz0iMjU4IDEyOSAyNjAuOCAxMjkgMjU5LjQgMTMxLjQiIGZpbGw9Im5vbmUiIHN0cm9rZT0iIzAwMCIgc3Ryb2tlLXdpZHRoPSIuMiIvPjxwb2x5Z29uIHBvaW50cz0iMjYxLjggMTI5IDI2My4yIDEzMS40IDI2MC40IDEzMS40Ii8+PHBvbHlnb24gcG9pbnRzPSIyNjEuOCAxMjkgMjYzLjIgMTMxLjQgMjYwLjQgMTMxLjQiIGZpbGw9Im5vbmUiIHN0cm9rZT0iIzAwMCIgc3Ryb2tlLXdpZHRoPSIuMiIvPjxwb2x5Z29uIHBvaW50cz0iMjYyLjggMTI5IDI2NS42IDEyOSAyNjQuMiAxMzEuNCIvPjxwb2x5Z29uIHBvaW50cz0iMjYyLjggMTI5IDI2NS42IDEyOSAyNjQuMiAxMzEuNCIgZmlsbD0ibm9uZSIgc3Ryb2tlPSIjMDAwIiBzdHJva2Utd2lkdGg9Ii4yIi8+PHBvbHlnb24gcG9pbnRzPSIyNjYuNiAxMjkgMjY4IDEzMS40IDI2NS4yIDEzMS40Ii8+PHBvbHlnb24gcG9pbnRzPSIyNjYuNiAxMjkgMjY4IDEzMS40IDI2NS4yIDEzMS40IiBmaWxsPSJub25lIiBzdHJva2U9IiMwMDAiIHN0cm9rZS13aWR0aD0iLjIiLz48cG9seWdvbiBwb2ludHM9IjI2Ny42IDEyOSAyNzAuNCAxMjkgMjY5IDEzMS40Ii8+PHBvbHlnb24gcG9pbnRzPSIyNjcuNiAxMjkgMjcwLjQgMTI5IDI2OSAxMzEuNCIgZmlsbD0ibm9uZSIgc3Ryb2tlPSIjMDAwIiBzdHJva2Utd2lkdGg9Ii4yIi8+PHBvbHlnb24gcG9pbnRzPSIyNzEuNCAxMjkgMjcyLjggMTMxLjQgMjcwIDEzMS40Ii8+PHBvbHlnb24gcG9pbnRzPSIyNzEuNCAxMjkgMjcyLjggMTMxLjQgMjcwIDEzMS40IiBmaWxsPSJub25lIiBzdHJva2U9IiMwMDAiIHN0cm9rZS13aWR0aD0iLjIiLz48cG9seWdvbiBwb2ludHM9IjI3Mi40IDEyOSAyNzUuMiAxMjkgMjczLjggMTMxLjQiLz48cG9seWdvbiBwb2ludHM9IjI3Mi40IDEyOSAyNzUuMiAxMjkgMjczLjggMTMxLjQiIGZpbGw9Im5vbmUiIHN0cm9rZT0iIzAwMCIgc3Ryb2tlLXdpZHRoPSIuMiIvPjxwb2x5Z29uIHBvaW50cz0iMjc2LjIgMTI5IDI3Ny42IDEzMS40IDI3NC44IDEzMS40Ii8+PHBvbHlnb24gcG9pbnRzPSIyNzYuMiAxMjkgMjc3LjYgMTMxLjQgMjc0LjggMTMxLjQiIGZpbGw9Im5vbmUiIHN0cm9rZT0iIzAwMCIgc3Ryb2tlLXdpZHRoPSIuMiIvPjxwb2x5Z29uIHBvaW50cz0iMjc3LjIgMTI5IDI4MCAxMjkgMjc4LjYgMTMxLjQiLz48cG9seWdvbiBwb2ludHM9IjI3Ny4yIDEyOSAyODAgMTI5IDI3OC42IDEzMS40IiBmaWxsPSJub25lIiBzdHJva2U9IiMwMDAiIHN0cm9rZS13aWR0aD0iLjIiLz48cG9seWdvbiBwb2ludHM9IjI4MSAxMjkgMjgyLjQgMTMxLjQgMjc5LjYgMTMxLjQiLz48cG9seWdvbiBwb2ludHM9IjI4MSAxMjkgMjgyLjQgMTMxLjQgMjc5LjYgMTMxLjQiIGZpbGw9Im5vbmUiIHN0cm9rZT0iIzAwMCIgc3Ryb2tlLXdpZHRoPSIuMiIvPjxwb2x5Z29uIHBvaW50cz0iMjgyIDEyOSAyODQuOCAxMjkgMjgzLjQgMTMxLjQiLz48cG9seWdvbiBwb2ludHM9IjI4MiAxMjkgMjg0LjggMTI5IDI4My40IDEzMS40IiBmaWxsPSJub25lIiBzdHJva2U9IiMwMDAiIHN0cm9rZS13aWR0aD0iLjIiLz48cG9seWdvbiBwb2ludHM9IjI4NS44IDEyOSAyODcuMiAxMzEuNCAyODQuNCAxMzEuNCIvPjxwb2x5Z29uIHBvaW50cz0iMjg1LjggMTI5IDI4Ny4yIDEzMS40IDI4NC40IDEzMS40IiBmaWxsPSJub25lIiBzdHJva2U9IiMwMDAiIHN0cm9rZS13aWR0aD0iLjIiLz48cG9seWdvbiBwb2ludHM9IjI4Ni44IDEyOSAyODkuNiAxMjkgMjg4LjIgMTMxLjQiLz48cG9seWdvbiBwb2ludHM9IjI4Ni44IDEyOSAyODkuNiAxMjkgMjg4LjIgMTMxLjQiIGZpbGw9Im5vbmUiIHN0cm9rZT0iIzAwMCIgc3Ryb2tlLXdpZHRoPSIuMiIvPjxwb2x5Z29uIHBvaW50cz0iMjkwLjYgMTI5IDI5MiAxMzEuNCAyODkuMiAxMzEuNCIvPjxwb2x5Z29uIHBvaW50cz0iMjkwLjYgMTI5IDI5MiAxMzEuNCAyODkuMiAxMzEuNCIgZmlsbD0ibm9uZSIgc3Ryb2tlPSIjMDAwIiBzdHJva2Utd2lkdGg9Ii4yIi8+PHBvbHlnb24gcG9pbnRzPSIyOTEuOCAxMjkgMjk0LjYgMTI5IDI5My4yIDEzMS40Ii8+PHBvbHlnb24gcG9pbnRzPSIyOTEuOCAxMjkgMjk0LjYgMTI5IDI5My4yIDEzMS40IiBmaWxsPSJub25lIiBzdHJva2U9IiMwMDAiIHN0cm9rZS13aWR0aD0iLjIiLz48cG9seWdvbiBwb2ludHM9IjI5NS42IDEyOSAyOTcgMTMxLjQgMjk0LjIgMTMxLjQiLz48cG9seWdvbiBwb2ludHM9IjI5NS42IDEyOSAyOTcgMTMxLjQgMjk0LjIgMTMxLjQiIGZpbGw9Im5vbmUiIHN0cm9rZT0iIzAwMCIgc3Ryb2tlLXdpZHRoPSIuMiIvPjxwb2x5Z29uIHBvaW50cz0iMjk2LjYgMTI5IDI5OS40IDEyOSAyOTggMTMxLjQiLz48cG9seWdvbiBwb2ludHM9IjI5Ni42IDEyOSAyOTkuNCAxMjkgMjk4IDEzMS40IiBmaWxsPSJub25lIiBzdHJva2U9IiMwMDAiIHN0cm9rZS13aWR0aD0iLjIiLz48cG9seWdvbiBwb2ludHM9IjMwMC40IDEyOSAzMDEuOCAxMzEuNCAyOTkgMTMxLjQiLz48cG9seWdvbiBwb2ludHM9IjMwMC40IDEyOSAzMDEuOCAxMzEuNCAyOTkgMTMxLjQiIGZpbGw9Im5vbmUiIHN0cm9rZT0iIzAwMCIgc3Ryb2tlLXdpZHRoPSIuMiIvPjxwb2x5Z29uIHBvaW50cz0iMzAxLjQgMTI5IDMwNC4yIDEyOSAzMDIuOCAxMzEuNCIvPjxwb2x5Z29uIHBvaW50cz0iMzAxLjQgMTI5IDMwNC4yIDEyOSAzMDIuOCAxMzEuNCIgZmlsbD0ibm9uZSIgc3Ryb2tlPSIjMDAwIiBzdHJva2Utd2lkdGg9Ii4yIi8+PHBvbHlnb24gcG9pbnRzPSIzMDUuMiAxMjkgMzA2LjYgMTMxLjQgMzAzLjggMTMxLjQiLz48cG9seWdvbiBwb2ludHM9IjMwNS4yIDEyOSAzMDYuNiAxMzEuNCAzMDMuOCAxMzEuNCIgZmlsbD0ibm9uZSIgc3Ryb2tlPSIjMDAwIiBzdHJva2Utd2lkdGg9Ii4yIi8+PHBvbHlnb24gcG9pbnRzPSIzMDYuMiAxMjkgMzA5IDEyOSAzMDcuNiAxMzEuNCIvPjxwb2x5Z29uIHBvaW50cz0iMzA2LjIgMTI5IDMwOSAxMjkgMzA3LjYgMTMxLjQiIGZpbGw9Im5vbmUiIHN0cm9rZT0iIzAwMCIgc3Ryb2tlLXdpZHRoPSIuMiIvPjxwb2x5Z29uIHBvaW50cz0iMzEwIDEyOSAzMTEuNCAxMzEuNCAzMDguNiAxMzEuNCIvPjxwb2x5Z29uIHBvaW50cz0iMzEwIDEyOSAzMTEuNCAxMzEuNCAzMDguNiAxMzEuNCIgZmlsbD0ibm9uZSIgc3Ryb2tlPSIjMDAwIiBzdHJva2Utd2lkdGg9Ii4yIi8+PHBvbHlnb24gcG9pbnRzPSIzMTEgMTI5IDMxMy44IDEyOSAzMTIuNCAxMzEuNCIvPjxwb2x5Z29uIHBvaW50cz0iMzExIDEyOSAzMTMuOCAxMjkgMzEyLjQgMTMxLjQiIGZpbGw9Im5vbmUiIHN0cm9rZT0iIzAwMCIgc3Ryb2tlLXdpZHRoPSIuMiIvPjxwb2x5Z29uIHBvaW50cz0iMzE0LjggMTI5IDMxNi4yIDEzMS40IDMxMy40IDEzMS40Ii8+PHBvbHlnb24gcG9pbnRzPSIzMTQuOCAxMjkgMzE2LjIgMTMxLjQgMzEzLjQgMTMxLjQiIGZpbGw9Im5vbmUiIHN0cm9rZT0iIzAwMCIgc3Ryb2tlLXdpZHRoPSIuMiIvPjxwb2x5Z29uIHBvaW50cz0iMzE1LjggMTI5IDMxOC42IDEyOSAzMTcuMiAxMzEuNCIvPjxwb2x5Z29uIHBvaW50cz0iMzE1LjggMTI5IDMxOC42IDEyOSAzMTcuMiAxMzEuNCIgZmlsbD0ibm9uZSIgc3Ryb2tlPSIjMDAwIiBzdHJva2Utd2lkdGg9Ii4yIi8+PHBvbHlnb24gcG9pbnRzPSIzMTkuNiAxMjkgMzIxIDEzMS40IDMxOC4yIDEzMS40Ii8+PHBvbHlnb24gcG9pbnRzPSIzMTkuNiAxMjkgMzIxIDEzMS40IDMxOC4yIDEzMS40IiBmaWxsPSJub25lIiBzdHJva2U9IiMwMDAiIHN0cm9rZS13aWR0aD0iLjIiLz48cG9seWdvbiBwb2ludHM9IjMyMC42IDEyOSAzMjMuNCAxMjkgMzIyIDEzMS40Ii8+PHBvbHlnb24gcG9pbnRzPSIzMjAuNiAxMjkgMzIzLjQgMTI5IDMyMiAxMzEuNCIgZmlsbD0ibm9uZSIgc3Ryb2tlPSIjMDAwIiBzdHJva2Utd2lkdGg9Ii4yIi8+PHBvbHlnb24gcG9pbnRzPSIzMjQuNCAxMjkgMzI1LjggMTMxLjQgMzIzIDEzMS40Ii8+PHBvbHlnb24gcG9pbnRzPSIzMjQuNCAxMjkgMzI1LjggMTMxLjQgMzIzIDEzMS40IiBmaWxsPSJub25lIiBzdHJva2U9IiMwMDAiIHN0cm9rZS13aWR0aD0iLjIiLz48cG9seWdvbiBwb2ludHM9IjMyNS40IDEyOSAzMjguMiAxMjkgMzI2LjggMTMxLjQiLz48cG9seWdvbiBwb2ludHM9IjMyNS40IDEyOSAzMjguMiAxMjkgMzI2LjggMTMxLjQiIGZpbGw9Im5vbmUiIHN0cm9rZT0iIzAwMCIgc3Ryb2tlLXdpZHRoPSIuMiIvPjxwb2x5Z29uIHBvaW50cz0iMzI5LjIgMTI5IDMzMC42IDEzMS40IDMyNy44IDEzMS40Ii8+PHBvbHlnb24gcG9pbnRzPSIzMjkuMiAxMjkgMzMwLjYgMTMxLjQgMzI3LjggMTMxLjQiIGZpbGw9Im5vbmUiIHN0cm9rZT0iIzAwMCIgc3Ryb2tlLXdpZHRoPSIuMiIvPjwvZz48ZyB0cmFuc2Zvcm09Im1hdHJpeCgxLjE0IDAgMCAxLjAzMjUgMTE2LjI5IC0zNi4wMDEpIj48cG9seWdvbiBwb2ludHM9IjM2NS42IDEyOS4yIDM2NyAxMzEuNiAzNjQuMiAxMzEuNiIvPjxwb2x5Z29uIHBvaW50cz0iMzY1LjYgMTI5LjIgMzY3IDEzMS42IDM2NC4yIDEzMS42IiBmaWxsPSJub25lIiBzdHJva2U9IiMwMDAiIHN0cm9rZS13aWR0aD0iLjIiLz48cG9seWdvbiBwb2ludHM9IjM2Ni42IDEyOS4yIDM2OS40IDEyOS4yIDM2OCAxMzEuNiIvPjxwb2x5Z29uIHBvaW50cz0iMzY2LjYgMTI5LjIgMzY5LjQgMTI5LjIgMzY4IDEzMS42IiBmaWxsPSJub25lIiBzdHJva2U9IiMwMDAiIHN0cm9rZS13aWR0aD0iLjIiLz48cG9seWdvbiBwb2ludHM9IjM3MC40IDEyOS4yIDM3MS44IDEzMS42IDM2OSAxMzEuNiIvPjxwb2x5Z29uIHBvaW50cz0iMzcwLjQgMTI5LjIgMzcxLjggMTMxLjYgMzY5IDEzMS42IiBmaWxsPSJub25lIiBzdHJva2U9IiMwMDAiIHN0cm9rZS13aWR0aD0iLjIiLz48cG9seWdvbiBwb2ludHM9IjM3MS40IDEyOS4yIDM3NC4yIDEyOS4yIDM3Mi44IDEzMS42Ii8+PHBvbHlnb24gcG9pbnRzPSIzNzEuNCAxMjkuMiAzNzQuMiAxMjkuMiAzNzIuOCAxMzEuNiIgZmlsbD0ibm9uZSIgc3Ryb2tlPSIjMDAwIiBzdHJva2Utd2lkdGg9Ii4yIi8+PHBvbHlnb24gcG9pbnRzPSIzNzUuMiAxMjkuMiAzNzYuNiAxMzEuNiAzNzMuOCAxMzEuNiIvPjxwb2x5Z29uIHBvaW50cz0iMzc1LjIgMTI5LjIgMzc2LjYgMTMxLjYgMzczLjggMTMxLjYiIGZpbGw9Im5vbmUiIHN0cm9rZT0iIzAwMCIgc3Ryb2tlLXdpZHRoPSIuMiIvPjxwb2x5Z29uIHBvaW50cz0iMzc2LjIgMTI5LjIgMzc5IDEyOS4yIDM3Ny42IDEzMS42Ii8+PHBvbHlnb24gcG9pbnRzPSIzNzYuMiAxMjkuMiAzNzkgMTI5LjIgMzc3LjYgMTMxLjYiIGZpbGw9Im5vbmUiIHN0cm9rZT0iIzAwMCIgc3Ryb2tlLXdpZHRoPSIuMiIvPjxwb2x5Z29uIHBvaW50cz0iMzgwIDEyOS4yIDM4MS40IDEzMS42IDM3OC42IDEzMS42Ii8+PHBvbHlnb24gcG9pbnRzPSIzODAgMTI5LjIgMzgxLjQgMTMxLjYgMzc4LjYgMTMxLjYiIGZpbGw9Im5vbmUiIHN0cm9rZT0iIzAwMCIgc3Ryb2tlLXdpZHRoPSIuMiIvPjxwb2x5Z29uIHBvaW50cz0iMzgxIDEyOS4yIDM4My44IDEyOS4yIDM4Mi40IDEzMS42Ii8+PHBvbHlnb24gcG9pbnRzPSIzODEgMTI5LjIgMzgzLjggMTI5LjIgMzgyLjQgMTMxLjYiIGZpbGw9Im5vbmUiIHN0cm9rZT0iIzAwMCIgc3Ryb2tlLXdpZHRoPSIuMiIvPjxwb2x5Z29uIHBvaW50cz0iMzg0LjggMTI5LjIgMzg2LjIgMTMxLjYgMzgzLjQgMTMxLjYiLz48cG9seWdvbiBwb2ludHM9IjM4NC44IDEyOS4yIDM4Ni4yIDEzMS42IDM4My40IDEzMS42IiBmaWxsPSJub25lIiBzdHJva2U9IiMwMDAiIHN0cm9rZS13aWR0aD0iLjIiLz48cG9seWdvbiBwb2ludHM9IjM4NS44IDEyOS4yIDM4OC42IDEyOS4yIDM4Ny4yIDEzMS42Ii8+PHBvbHlnb24gcG9pbnRzPSIzODUuOCAxMjkuMiAzODguNiAxMjkuMiAzODcuMiAxMzEuNiIgZmlsbD0ibm9uZSIgc3Ryb2tlPSIjMDAwIiBzdHJva2Utd2lkdGg9Ii4yIi8+PHBvbHlnb24gcG9pbnRzPSIzODkuNiAxMjkuMiAzOTEgMTMxLjYgMzg4LjIgMTMxLjYiLz48cG9seWdvbiBwb2ludHM9IjM4OS42IDEyOS4yIDM5MSAxMzEuNiAzODguMiAxMzEuNiIgZmlsbD0ibm9uZSIgc3Ryb2tlPSIjMDAwIiBzdHJva2Utd2lkdGg9Ii4yIi8+PHBvbHlnb24gcG9pbnRzPSIzOTAuNiAxMjkuMiAzOTMuNCAxMjkuMiAzOTIgMTMxLjYiLz48cG9seWdvbiBwb2ludHM9IjM5MC42IDEyOS4yIDM5My40IDEyOS4yIDM5MiAxMzEuNiIgZmlsbD0ibm9uZSIgc3Ryb2tlPSIjMDAwIiBzdHJva2Utd2lkdGg9Ii4yIi8+PHBvbHlnb24gcG9pbnRzPSIzOTQuNCAxMjkuMiAzOTUuOCAxMzEuNiAzOTMgMTMxLjYiLz48cG9seWdvbiBwb2ludHM9IjM5NC40IDEyOS4yIDM5NS44IDEzMS42IDM5MyAxMzEuNiIgZmlsbD0ibm9uZSIgc3Ryb2tlPSIjMDAwIiBzdHJva2Utd2lkdGg9Ii4yIi8+PHBvbHlnb24gcG9pbnRzPSIzOTUuNCAxMjkuMiAzOTguMiAxMjkuMiAzOTYuOCAxMzEuNiIvPjxwb2x5Z29uIHBvaW50cz0iMzk1LjQgMTI5LjIgMzk4LjIgMTI5LjIgMzk2LjggMTMxLjYiIGZpbGw9Im5vbmUiIHN0cm9rZT0iIzAwMCIgc3Ryb2tlLXdpZHRoPSIuMiIvPjxwb2x5Z29uIHBvaW50cz0iMzk5LjIgMTI5LjIgNDAwLjYgMTMxLjYgMzk3LjggMTMxLjYiLz48cG9seWdvbiBwb2ludHM9IjM5OS4yIDEyOS4yIDQwMC42IDEzMS42IDM5Ny44IDEzMS42IiBmaWxsPSJub25lIiBzdHJva2U9IiMwMDAiIHN0cm9rZS13aWR0aD0iLjIiLz48cG9seWdvbiBwb2ludHM9IjQwMC4yIDEyOS4yIDQwMyAxMjkuMiA0MDEuNiAxMzEuNiIvPjxwb2x5Z29uIHBvaW50cz0iNDAwLjIgMTI5LjIgNDAzIDEyOS4yIDQwMS42IDEzMS42IiBmaWxsPSJub25lIiBzdHJva2U9IiMwMDAiIHN0cm9rZS13aWR0aD0iLjIiLz48cG9seWdvbiBwb2ludHM9IjQwNCAxMjkuMiA0MDUuNCAxMzEuNiA0MDIuNiAxMzEuNiIvPjxwb2x5Z29uIHBvaW50cz0iNDA0IDEyOS4yIDQwNS40IDEzMS42IDQwMi42IDEzMS42IiBmaWxsPSJub25lIiBzdHJva2U9IiMwMDAiIHN0cm9rZS13aWR0aD0iLjIiLz48cG9seWdvbiBwb2ludHM9IjQwNSAxMjkuMiA0MDcuOCAxMjkuMiA0MDYuNCAxMzEuNiIvPjxwb2x5Z29uIHBvaW50cz0iNDA1IDEyOS4yIDQwNy44IDEyOS4yIDQwNi40IDEzMS42IiBmaWxsPSJub25lIiBzdHJva2U9IiMwMDAiIHN0cm9rZS13aWR0aD0iLjIiLz48cG9seWdvbiBwb2ludHM9IjQwOC44IDEyOS4yIDQxMC4yIDEzMS42IDQwNy40IDEzMS42Ii8+PHBvbHlnb24gcG9pbnRzPSI0MDguOCAxMjkuMiA0MTAuMiAxMzEuNiA0MDcuNCAxMzEuNiIgZmlsbD0ibm9uZSIgc3Ryb2tlPSIjMDAwIiBzdHJva2Utd2lkdGg9Ii4yIi8+PHBvbHlnb24gcG9pbnRzPSI0MDkuOCAxMjkuMiA0MTIuNiAxMjkuMiA0MTEuMiAxMzEuNiIvPjxwb2x5Z29uIHBvaW50cz0iNDA5LjggMTI5LjIgNDEyLjYgMTI5LjIgNDExLjIgMTMxLjYiIGZpbGw9Im5vbmUiIHN0cm9rZT0iIzAwMCIgc3Ryb2tlLXdpZHRoPSIuMiIvPjxwb2x5Z29uIHBvaW50cz0iNDEzLjYgMTI5LjIgNDE1IDEzMS42IDQxMi4yIDEzMS42Ii8+PHBvbHlnb24gcG9pbnRzPSI0MTMuNiAxMjkuMiA0MTUgMTMxLjYgNDEyLjIgMTMxLjYiIGZpbGw9Im5vbmUiIHN0cm9rZT0iIzAwMCIgc3Ryb2tlLXdpZHRoPSIuMiIvPjxwb2x5Z29uIHBvaW50cz0iNDE0LjYgMTI5LjIgNDE3LjQgMTI5LjIgNDE2IDEzMS42Ii8+PHBvbHlnb24gcG9pbnRzPSI0MTQuNiAxMjkuMiA0MTcuNCAxMjkuMiA0MTYgMTMxLjYiIGZpbGw9Im5vbmUiIHN0cm9rZT0iIzAwMCIgc3Ryb2tlLXdpZHRoPSIuMiIvPjxwb2x5Z29uIHBvaW50cz0iNDE4LjQgMTI5LjIgNDE5LjggMTMxLjYgNDE3IDEzMS42Ii8+PHBvbHlnb24gcG9pbnRzPSI0MTguNCAxMjkuMiA0MTkuOCAxMzEuNiA0MTcgMTMxLjYiIGZpbGw9Im5vbmUiIHN0cm9rZT0iIzAwMCIgc3Ryb2tlLXdpZHRoPSIuMiIvPjxwb2x5Z29uIHBvaW50cz0iNDE5LjYgMTI5LjIgNDIyLjQgMTI5LjIgNDIxIDEzMS42Ii8+PHBvbHlnb24gcG9pbnRzPSI0MTkuNiAxMjkuMiA0MjIuNCAxMjkuMiA0MjEgMTMxLjYiIGZpbGw9Im5vbmUiIHN0cm9rZT0iIzAwMCIgc3Ryb2tlLXdpZHRoPSIuMiIvPjxwb2x5Z29uIHBvaW50cz0iNDIzLjQgMTI5LjIgNDI0LjggMTMxLjYgNDIyIDEzMS42Ii8+PHBvbHlnb24gcG9pbnRzPSI0MjMuNCAxMjkuMiA0MjQuOCAxMzEuNiA0MjIgMTMxLjYiIGZpbGw9Im5vbmUiIHN0cm9rZT0iIzAwMCIgc3Ryb2tlLXdpZHRoPSIuMiIvPjxwb2x5Z29uIHBvaW50cz0iNDI0LjQgMTI5LjIgNDI3LjIgMTI5LjIgNDI1LjggMTMxLjYiLz48cG9seWdvbiBwb2ludHM9IjQyNC40IDEyOS4yIDQyNy4yIDEyOS4yIDQyNS44IDEzMS42IiBmaWxsPSJub25lIiBzdHJva2U9IiMwMDAiIHN0cm9rZS13aWR0aD0iLjIiLz48cG9seWdvbiBwb2ludHM9IjQyOC4yIDEyOS4yIDQyOS42IDEzMS42IDQyNi44IDEzMS42Ii8+PHBvbHlnb24gcG9pbnRzPSI0MjguMiAxMjkuMiA0MjkuNiAxMzEuNiA0MjYuOCAxMzEuNiIgZmlsbD0ibm9uZSIgc3Ryb2tlPSIjMDAwIiBzdHJva2Utd2lkdGg9Ii4yIi8+PHBvbHlnb24gcG9pbnRzPSI0MjkuMiAxMjkuMiA0MzIgMTI5LjIgNDMwLjYgMTMxLjYiLz48cG9seWdvbiBwb2ludHM9IjQyOS4yIDEyOS4yIDQzMiAxMjkuMiA0MzAuNiAxMzEuNiIgZmlsbD0ibm9uZSIgc3Ryb2tlPSIjMDAwIiBzdHJva2Utd2lkdGg9Ii4yIi8+PC9nPjwvZz48ZyBmaWxsPSIjZmZmIj48ZyB0cmFuc2Zvcm09InNjYWxlKDEuMDUwOCAuOTUxNjcpIiBhcmlhLWxhYmVsPSJGQVNUIEVUSEVSTkVUIj48cGF0aCBkPSJtNDQzLjI5IDEwOS4wMWgwLjcyNzI1djAuMTQ0MDloLTAuNTU2MDN2MC4zNzI5NWgwLjUwMTc5djAuMTQ0MWgtMC41MDE3OXYwLjYwNDM0aC0wLjE3MTIyeiIgc3R5bGU9IiIvPjxwYXRoIGQ9Im00NDQuNTYgMTA5LjE4LTAuMjMyMjQgMC42Mjk3OGgwLjQ2NTMzem0tMC4wOTY2LTAuMTY4NjdoMC4xOTQxMWwwLjQ4MjI5IDEuMjY1NWgtMC4xNzhsLTAuMTE1MjgtMC4zMjQ2M2gtMC41NzA0NGwtMC4xMTUyNyAwLjMyNDYzaC0wLjE4MDU1eiIgc3R5bGU9IiIvPjxwYXRoIGQ9Im00NDYuMDggMTA5LjA2djAuMTY2OThxLTAuMDk3NS0wLjA0NjYtMC4xODM5My0wLjA2OTUtMC4wODY1LTAuMDIyOS0wLjE2Njk4LTAuMDIyOS0wLjEzOTg1IDAtMC4yMTYxNCAwLjA1NDItMC4wNzU0IDAuMDU0My0wLjA3NTQgMC4xNTQyNiAwIDAuMDgzOSAwLjA1IDAuMTI3MTUgMC4wNTA5IDAuMDQyNCAwLjE5MTU2IDAuMDY4NmwwLjEwMzQxIDAuMDIxMnEwLjE5MTU2IDAuMDM2NSAwLjI4MjI2IDAuMTI4ODQgMC4wOTE1IDAuMDkxNSAwLjA5MTUgMC4yNDU4MSAwIDAuMTgzOTMtMC4xMjM3NSAwLjI3ODg2LTAuMTIyOTEgMC4wOTQ5LTAuMzYxMDkgMC4wOTQ5LTAuMDg5OCAwLTAuMTkxNTYtMC4wMjAzLTAuMTAwODYtMC4wMjAzLTAuMjA5MzYtMC4wNjAydi0wLjE3NjNxMC4xMDQyNiAwLjA1ODUgMC4yMDQyOCAwLjA4ODEgMC4xMDAwMiAwLjAyOTcgMC4xOTY2NCAwLjAyOTcgMC4xNDY2NCAwIDAuMjI2MzItMC4wNTc2IDAuMDc5Ny0wLjA1NzYgMC4wNzk3LTAuMTY0NDQgMC0wLjA5MzItMC4wNTc2LTAuMTQ1NzktMC4wNTY4LTAuMDUyNS0wLjE4NzMyLTAuMDc4OGwtMC4xMDQyNS0wLjAyMDNxLTAuMTkxNTYtMC4wMzgxLTAuMjc3MTctMC4xMTk1MS0wLjA4NTYtMC4wODE0LTAuMDg1Ni0wLjIyNjMxIDAtMC4xNjc4MyAwLjExNzgyLTAuMjY0NDYgMC4xMTg2Ni0wLjA5NjYgMC4zMjYzMy0wLjA5NjYgMC4wODkgMCAwLjE4MTM5IDAuMDE2MSAwLjA5MjQgMC4wMTYxIDAuMTg5MDEgMC4wNDgzeiIgc3R5bGU9IiIvPjxwYXRoIGQ9Im00NDYuMjUgMTA5LjAxaDEuMDcwNXYwLjE0NDA5aC0wLjQ0OTIzdjEuMTIxNGgtMC4xNzIwN3YtMS4xMjE0aC0wLjQ0OTIzeiIgc3R5bGU9IiIvPjxwYXRoIGQ9Im00NDguMDMgMTA5LjAxaDAuODAwMTV2MC4xNDQwOWgtMC42Mjg5M3YwLjM3NDY1aDAuNjAyNjV2MC4xNDQwOWgtMC42MDI2NXYwLjQ1ODU2aDAuNjQ0MTh2MC4xNDQwOWgtMC44MTU0eiIgc3R5bGU9IiIvPjxwYXRoIGQ9Im00NDguOTYgMTA5LjAxaDEuMDcwNXYwLjE0NDA5aC0wLjQ0OTIzdjEuMTIxNGgtMC4xNzIwN3YtMS4xMjE0aC0wLjQ0OTIzeiIgc3R5bGU9IiIvPjxwYXRoIGQ9Im00NTAuMTkgMTA5LjAxaDAuMTcxMjF2MC41MTg3NGgwLjYyMjE1di0wLjUxODc0aDAuMTcxMjJ2MS4yNjU1aC0wLjE3MTIydi0wLjYwMjY1aC0wLjYyMjE1djAuNjAyNjVoLTAuMTcxMjF6IiBzdHlsZT0iIi8+PHBhdGggZD0ibTQ1MS41IDEwOS4wMWgwLjgwMDE0djAuMTQ0MDloLTAuNjI4OTJ2MC4zNzQ2NWgwLjYwMjY1djAuMTQ0MDloLTAuNjAyNjV2MC40NTg1NmgwLjY0NDE4djAuMTQ0MDloLTAuODE1NHoiIHN0eWxlPSIiLz48cGF0aCBkPSJtNDUzLjIgMTA5LjY5cTAuMDU1MSAwLjAxODYgMC4xMDY4IDAuMDc5NyAwLjA1MjUgMC4wNjEgMC4xMDUxMSAwLjE2NzgzbDAuMTczNzYgMC4zNDU4MmgtMC4xODM5NGwtMC4xNjE4OS0wLjMyNDYzcS0wLjA2MjctMC4xMjcxNC0wLjEyMjA2LTAuMTY4NjgtMC4wNTg1LTAuMDQxNS0wLjE2MDE5LTAuMDQxNWgtMC4xODY0OHYwLjUzNDg0aC0wLjE3MTIydi0xLjI2NTVoMC4zODY1MXEwLjIxNjk5IDAgMC4zMjM3OSAwLjA5MDd0MC4xMDY4IDAuMjczNzhxMCAwLjExOTUyLTAuMDU1OSAwLjE5ODM0LTAuMDU1MSAwLjA3ODgtMC4xNjEwNSAwLjEwOTM0em0tMC40Mjg4OS0wLjUzMTQ1djAuNDQ5MjRoMC4yMTUyOXEwLjEyMzc2IDAgMC4xODY0OC0wLjA1NjggMC4wNjM2LTAuMDU3NiAwLjA2MzYtMC4xNjg2OCAwLTAuMTExMDQtMC4wNjM2LTAuMTY2OTgtMC4wNjI3LTAuMDU2OC0wLjE4NjQ4LTAuMDU2OHoiIHN0eWxlPSIiLz48cGF0aCBkPSJtNDUzLjgxIDEwOS4wMWgwLjIzMDU1bDAuNTYxMTIgMS4wNTg3di0xLjA1ODdoMC4xNjYxM3YxLjI2NTVoLTAuMjMwNTVsLTAuNTYxMTItMS4wNTg3djEuMDU4N2gtMC4xNjYxM3oiIHN0eWxlPSIiLz48cGF0aCBkPSJtNDU1LjEgMTA5LjAxaDAuODAwMTV2MC4xNDQwOWgtMC42Mjg5M3YwLjM3NDY1aDAuNjAyNjV2MC4xNDQwOWgtMC42MDI2NXYwLjQ1ODU2aDAuNjQ0MTl2MC4xNDQwOWgtMC44MTU0MXoiIHN0eWxlPSIiLz48cGF0aCBkPSJtNDU2LjAzIDEwOS4wMWgxLjA3MDV2MC4xNDQwOWgtMC40NDkyNHYxLjEyMTRoLTAuMTcyMDZ2LTEuMTIxNGgtMC40NDkyNHoiIHN0eWxlPSIiLz48L2c+PGcgdHJhbnNmb3JtPSJzY2FsZSgxLjA1MDggLjk1MTY3KSIgYXJpYS1sYWJlbD0iRVRIMSI+PHBhdGggZD0ibTM3MC45NiAxMjEuOTloMC44MDAxNHYwLjE0NDFoLTAuNjI4OTJ2MC4zNzQ2NGgwLjYwMjY1djAuMTQ0MWgtMC42MDI2NXYwLjQ1ODU1aDAuNjQ0MTh2MC4xNDQxaC0wLjgxNTR6IiBzdHlsZT0iIi8+PHBhdGggZD0ibTM3MS44OCAxMjEuOTloMS4wNzA1djAuMTQ0MWgtMC40NDkyM3YxLjEyMTRoLTAuMTcyMDd2LTEuMTIxNGgtMC40NDkyM3oiIHN0eWxlPSIiLz48cGF0aCBkPSJtMzczLjEyIDEyMS45OWgwLjE3MTIydjAuNTE4NzRoMC42MjIxNXYtMC41MTg3NGgwLjE3MTIydjEuMjY1NWgtMC4xNzEyMnYtMC42MDI2NWgtMC42MjIxNXYwLjYwMjY1aC0wLjE3MTIyeiIgc3R5bGU9IiIvPjxwYXRoIGQ9Im0zNzQuNDcgMTIzLjExaDAuMjc5NzF2LTAuOTY1NDNsLTAuMzA0MjkgMC4wNjF2LTAuMTU1OTZsMC4zMDI2LTAuMDYxaDAuMTcxMjF2MS4xMjE0aDAuMjc5NzJ2MC4xNDQxaC0wLjcyODk1eiIgc3R5bGU9IiIvPjwvZz48ZyB0cmFuc2Zvcm09InNjYWxlKDEuMDUwOCAuOTUxNjcpIiBhcmlhLWxhYmVsPSJFVEgyIj48cGF0aCBkPSJtMzc5LjA0IDEyMS45OWgwLjgwMDE1djAuMTQ0MWgtMC42Mjg5M3YwLjM3NDY0aDAuNjAyNjV2MC4xNDQxaC0wLjYwMjY1djAuNDU4NTVoMC42NDQxOXYwLjE0NDFoLTAuODE1NDF6IiBzdHlsZT0iIi8+PHBhdGggZD0ibTM3OS45NiAxMjEuOTloMS4wNzA1djAuMTQ0MWgtMC40NDkyNHYxLjEyMTRoLTAuMTcyMDZ2LTEuMTIxNGgtMC40NDkyNHoiIHN0eWxlPSIiLz48cGF0aCBkPSJtMzgxLjIgMTIxLjk5aDAuMTcxMjJ2MC41MTg3NGgwLjYyMjE0di0wLjUxODc0aDAuMTcxMjJ2MS4yNjU1aC0wLjE3MTIydi0wLjYwMjY1aC0wLjYyMjE0djAuNjAyNjVoLTAuMTcxMjJ6IiBzdHlsZT0iIi8+PHBhdGggZD0ibTM4Mi42NyAxMjMuMTFoMC41OTc1N3YwLjE0NDFoLTAuODAzNTR2LTAuMTQ0MXEwLjA5NzUtMC4xMDA4NiAwLjI2NTMxLTAuMjcwMzggMC4xNjg2Ny0wLjE3MDM3IDAuMjExOS0wLjIxOTU0IDAuMDgyMi0wLjA5MjQgMC4xMTQ0My0wLjE1NTk2IDAuMDMzMS0wLjA2NDQgMC4wMzMxLTAuMTI2MjkgMC0wLjEwMDg3LTAuMDcxMi0wLjE2NDQ0LTAuMDcwMy0wLjA2MzYtMC4xODM5My0wLjA2MzYtMC4wODA1IDAtMC4xNzAzNyAwLjAyOC0wLjA4OSAwLjAyOC0wLjE5MDcxIDAuMDg0OHYtMC4xNzI5MXEwLjEwMzQxLTAuMDQxNSAwLjE5MzI1LTAuMDYyNyAwLjA4OTktMC4wMjEyIDAuMTY0NDQtMC4wMjEyIDAuMTk2NjUgMCAwLjMxMzYyIDAuMDk4M3QwLjExNjk3IDAuMjYyNzZxMCAwLjA3OC0wLjAyOTcgMC4xNDgzMy0wLjAyODggMC4wNjk1LTAuMTA1OTUgMC4xNjQ0NC0wLjAyMTIgMC4wMjQ2LTAuMTM0NzcgMC4xNDI0LTAuMTEzNTggMC4xMTY5Ny0wLjMyMDQgMC4zMjgwMnoiIHN0eWxlPSIiLz48L2c+PGcgdHJhbnNmb3JtPSJzY2FsZSgxLjA1MDggLjk1MTY3KSIgYXJpYS1sYWJlbD0iRVRIMyI+PHBhdGggZD0ibTM4Ny4wOSAxMjEuOTloMC44MDAxNHYwLjE0NDFoLTAuNjI4OTN2MC4zNzQ2NGgwLjYwMjY2djAuMTQ0MWgtMC42MDI2NnYwLjQ1ODU1aDAuNjQ0MTl2MC4xNDQxaC0wLjgxNTR6IiBzdHlsZT0iIi8+PHBhdGggZD0ibTM4OC4wMiAxMjEuOTloMS4wNzA1djAuMTQ0MWgtMC40NDkyM3YxLjEyMTRoLTAuMTcyMDd2LTEuMTIxNGgtMC40NDkyM3oiIHN0eWxlPSIiLz48cGF0aCBkPSJtMzg5LjI1IDEyMS45OWgwLjE3MTIydjAuNTE4NzRoMC42MjIxNXYtMC41MTg3NGgwLjE3MTIydjEuMjY1NWgtMC4xNzEyMnYtMC42MDI2NWgtMC42MjIxNXYwLjYwMjY1aC0wLjE3MTIyeiIgc3R5bGU9IiIvPjxwYXRoIGQ9Im0zOTEuMDkgMTIyLjU3cTAuMTIyOSAwLjAyNjMgMC4xOTE1NiAwLjEwOTM0IDAuMDY5NSAwLjA4MzEgMC4wNjk1IDAuMjA1MTIgMCAwLjE4NzMzLTAuMTI4ODQgMC4yODk4OXQtMC4zNjYxNyAwLjEwMjU2cS0wLjA3OTcgMC0wLjE2NDQ0LTAuMDE2MS0wLjA4MzktMC4wMTUyLTAuMTczNzYtMC4wNDY2di0wLjE2NTI5cTAuMDcxMiAwLjA0MTUgMC4xNTU5NiAwLjA2MjcgMC4wODQ4IDAuMDIxMiAwLjE3NzE1IDAuMDIxMiAwLjE2MTA1IDAgMC4yNDQ5Ni0wLjA2MzYgMC4wODQ4LTAuMDYzNiAwLjA4NDgtMC4xODQ3OCAwLTAuMTExODgtMC4wNzg4LTAuMTc0Ni0wLjA3OC0wLjA2MzYtMC4yMTc4NC0wLjA2MzZoLTAuMTQ3NDh2LTAuMTQwNzFoMC4xNTQyNnEwLjEyNjMgMCAwLjE5MzI2LTAuMDUgMC4wNjctMC4wNTA5IDAuMDY3LTAuMTQ1NzkgMC0wLjA5NzUtMC4wNjk1LTAuMTQ5MTgtMC4wNjg2LTAuMDUyNS0wLjE5NzQ5LTAuMDUyNS0wLjA3MDQgMC0wLjE1MDg3IDAuMDE1My0wLjA4MDUgMC4wMTUzLTAuMTc3MTUgMC4wNDc1di0wLjE1MjY2cTAuMDk3NS0wLjAyNzEgMC4xODIyMy0wLjA0MDcgMC4wODU2LTAuMDEzNiAwLjE2MTA1LTAuMDEzNiAwLjE5NDk1IDAgMC4zMDg1MyAwLjA4OSAwLjExMzU4IDAuMDg4MSAwLjExMzU4IDAuMjM5MDIgMCAwLjEwNTExLTAuMDYwMiAwLjE3OC0wLjA2MDIgMC4wNzItMC4xNzEyMiAwLjEwMDAyeiIgc3R5bGU9IiIvPjwvZz48ZyB0cmFuc2Zvcm09InNjYWxlKDEuMDUwOCAuOTUxNjcpIiBhcmlhLWxhYmVsPSJFVEg0Ij48cGF0aCBkPSJtMzk1LjE1IDEyMS45OWgwLjgwMDE1djAuMTQ0MWgtMC42Mjg5M3YwLjM3NDY0aDAuNjAyNjV2MC4xNDQxaC0wLjYwMjY1djAuNDU4NTVoMC42NDQxOXYwLjE0NDFoLTAuODE1NDF6IiBzdHlsZT0iIi8+PHBhdGggZD0ibTM5Ni4wNyAxMjEuOTloMS4wNzA1djAuMTQ0MWgtMC40NDkyNHYxLjEyMTRoLTAuMTcyMDZ2LTEuMTIxNGgtMC40NDkyNHoiIHN0eWxlPSIiLz48cGF0aCBkPSJtMzk3LjMxIDEyMS45OWgwLjE3MTIydjAuNTE4NzRoMC42MjIxNHYtMC41MTg3NGgwLjE3MTIydjEuMjY1NWgtMC4xNzEyMnYtMC42MDI2NWgtMC42MjIxNHYwLjYwMjY1aC0wLjE3MTIyeiIgc3R5bGU9IiIvPjxwYXRoIGQ9Im0zOTkuMSAxMjIuMTQtMC40MzIyOCAwLjY3NTU1aDAuNDMyMjh6bS0wLjA0NDktMC4xNDkxOGgwLjIxNTI5djAuODI0NzNoMC4xODA1NXYwLjE0MjRoLTAuMTgwNTV2MC4yOTgzNmgtMC4xNzAzN3YtMC4yOTgzNmgtMC41NzEyOXYtMC4xNjUyOXoiIHN0eWxlPSIiLz48L2c+PGcgdHJhbnNmb3JtPSJzY2FsZSgxLjA1MDggLjk1MTY3KSIgYXJpYS1sYWJlbD0iRVRINSI+PHBhdGggZD0ibTQwMy4yNSAxMjEuOTloMC44MDAxNXYwLjE0NDFoLTAuNjI4OTN2MC4zNzQ2NGgwLjYwMjY1djAuMTQ0MWgtMC42MDI2NXYwLjQ1ODU1aDAuNjQ0MTl2MC4xNDQxaC0wLjgxNTQxeiIgc3R5bGU9IiIvPjxwYXRoIGQ9Im00MDQuMTcgMTIxLjk5aDEuMDcwNXYwLjE0NDFoLTAuNDQ5MjR2MS4xMjE0aC0wLjE3MjA2di0xLjEyMTRoLTAuNDQ5MjR6IiBzdHlsZT0iIi8+PHBhdGggZD0ibTQwNS40MSAxMjEuOTloMC4xNzEyMnYwLjUxODc0aDAuNjIyMTR2LTAuNTE4NzRoMC4xNzEyMnYxLjI2NTVoLTAuMTcxMjJ2LTAuNjAyNjVoLTAuNjIyMTR2MC42MDI2NWgtMC4xNzEyMnoiIHN0eWxlPSIiLz48cGF0aCBkPSJtNDA2LjczIDEyMS45OWgwLjY3MjE2djAuMTQ0MWgtMC41MTUzNXYwLjMxMDIycTAuMDM3My0wLjAxMjcgMC4wNzQ2LTAuMDE4NiAwLjAzNzMtN2UtMyAwLjA3NDYtN2UtMyAwLjIxMTkgMCAwLjMzNTY2IDAuMTE2MTMgMC4xMjM3NSAwLjExNjEyIDAuMTIzNzUgMC4zMTQ0NiAwIDAuMjA0MjgtMC4xMjcxNCAwLjMxNzg2LTAuMTI3MTUgMC4xMTI3My0wLjM1ODU0IDAuMTEyNzMtMC4wNzk3IDAtMC4xNjI3NS0wLjAxMzYtMC4wODIyLTAuMDEzNi0wLjE3MDM3LTAuMDQwN3YtMC4xNzIwNnEwLjA3NjMgMC4wNDE1IDAuMTU3NjYgMC4wNjE5IDAuMDgxNCAwLjAyMDMgMC4xNzIwNyAwLjAyMDMgMC4xNDY2MyAwIDAuMjMyMjQtMC4wNzcxIDAuMDg1Ni0wLjA3NzEgMC4wODU2LTAuMjA5MzYgMC0wLjEzMjIzLTAuMDg1Ni0wLjIwOTM2LTAuMDg1Ni0wLjA3NzEtMC4yMzIyNC0wLjA3NzEtMC4wNjg3IDAtMC4xMzczMiAwLjAxNTMtMC4wNjc4IDAuMDE1Mi0wLjEzOTAxIDAuMDQ3NXoiIHN0eWxlPSIiLz48L2c+PGcgdHJhbnNmb3JtPSJzY2FsZSgxLjA1MDggLjk1MTY3KSIgYXJpYS1sYWJlbD0iRVRINiI+PHBhdGggZD0ibTQzMS45NiAxMjEuNTVoMC44MDAxNXYwLjE0NDFoLTAuNjI4OTN2MC4zNzQ2NGgwLjYwMjY1djAuMTQ0MWgtMC42MDI2NXYwLjQ1ODU1aDAuNjQ0MTh2MC4xNDQxaC0wLjgxNTR6IiBzdHlsZT0iIi8+PHBhdGggZD0ibTQzMi44OCAxMjEuNTVoMS4wNzA1djAuMTQ0MWgtMC40NDkyM3YxLjEyMTRoLTAuMTcyMDd2LTEuMTIxNGgtMC40NDkyM3oiIHN0eWxlPSIiLz48cGF0aCBkPSJtNDM0LjEyIDEyMS41NWgwLjE3MTIxdjAuNTE4NzRoMC42MjIxNXYtMC41MTg3NGgwLjE3MTIydjEuMjY1NWgtMC4xNzEyMnYtMC42MDI2NWgtMC42MjIxNXYwLjYwMjY1aC0wLjE3MTIxeiIgc3R5bGU9IiIvPjxwYXRoIGQ9Im00MzUuODMgMTIyLjEycS0wLjExNTI3IDAtMC4xODMwOCAwLjA3ODgtMC4wNjcgMC4wNzg4LTAuMDY3IDAuMjE2MTQgMCAwLjEzNjQ3IDAuMDY3IDAuMjE2MTQgMC4wNjc4IDAuMDc4OCAwLjE4MzA4IDAuMDc4OHQwLjE4MjI0LTAuMDc4OHEwLjA2NzgtMC4wNzk3IDAuMDY3OC0wLjIxNjE0IDAtMC4xMzczMS0wLjA2NzgtMC4yMTYxNC0wLjA2Ny0wLjA3ODgtMC4xODIyNC0wLjA3ODh6bTAuMzM5OS0wLjUzNjU0djAuMTU1OTZxLTAuMDY0NC0wLjAzMDUtMC4xMzA1NC0wLjA0NjYtMC4wNjUzLTAuMDE2MS0wLjEyOTY4LTAuMDE2MS0wLjE2OTUyIDAtMC4yNTkzNyAwLjExNDQzLTAuMDg5IDAuMTE0NDMtMC4xMDE3MSAwLjM0NTgyIDAuMDUtMC4wNzM3IDAuMTI1NDQtMC4xMTI3MyAwLjA3NTQtMC4wMzk4IDAuMTY2MTQtMC4wMzk4IDAuMTkwNzEgMCAwLjMwMDkgMC4xMTYxMyAwLjExMTAzIDAuMTE1MjcgMC4xMTEwMyAwLjMxNDQ2IDAgMC4xOTQ5NS0wLjExNTI3IDAuMzEyNzctMC4xMTUyOCAwLjExNzgyLTAuMzA2ODQgMC4xMTc4Mi0wLjIxOTUzIDAtMC4zMzU2NS0wLjE2NzgzLTAuMTE2MTItMC4xNjg2Ny0wLjExNjEyLTAuNDg4MjIgMC0wLjMwMDA2IDAuMTQyNC0wLjQ3ODA2IDAuMTQyMzktMC4xNzg4NCAwLjM4MjI3LTAuMTc4ODQgMC4wNjQ0IDAgMC4xMjk2OCAwLjAxMjcgMC4wNjYxIDAuMDEyNyAwLjEzNzMyIDAuMDM4MXoiIHN0eWxlPSIiLz48L2c+PGcgdHJhbnNmb3JtPSJzY2FsZSgxLjA1MDggLjk1MTY3KSIgYXJpYS1sYWJlbD0iRVRINyI+PHBhdGggZD0ibTQ0MC4wNSAxMjEuNTVoMC44MDAxNXYwLjE0NDFoLTAuNjI4OTN2MC4zNzQ2NGgwLjYwMjY1djAuMTQ0MWgtMC42MDI2NXYwLjQ1ODU1aDAuNjQ0MTh2MC4xNDQxaC0wLjgxNTR6IiBzdHlsZT0iIi8+PHBhdGggZD0ibTQ0MC45NyAxMjEuNTVoMS4wNzA1djAuMTQ0MWgtMC40NDkyM3YxLjEyMTRoLTAuMTcyMDd2LTEuMTIxNGgtMC40NDkyM3oiIHN0eWxlPSIiLz48cGF0aCBkPSJtNDQyLjIxIDEyMS41NWgwLjE3MTIxdjAuNTE4NzRoMC42MjIxNXYtMC41MTg3NGgwLjE3MTIydjEuMjY1NWgtMC4xNzEyMnYtMC42MDI2NWgtMC42MjIxNXYwLjYwMjY1aC0wLjE3MTIxeiIgc3R5bGU9IiIvPjxwYXRoIGQ9Im00NDMuNDkgMTIxLjU1aDAuODEzN3YwLjA3MjlsLTAuNDU5NCAxLjE5MjZoLTAuMTc4ODVsMC40MzIyOC0xLjEyMTRoLTAuNjA3NzN6IiBzdHlsZT0iIi8+PC9nPjxnIHRyYW5zZm9ybT0ic2NhbGUoMS4wNTA4IC45NTE2NykiIGFyaWEtbGFiZWw9IkVUSDgiPjxwYXRoIGQ9Im00NDguMTEgMTIxLjU1aDAuODAwMTR2MC4xNDQxaC0wLjYyODkzdjAuMzc0NjRoMC42MDI2NnYwLjE0NDFoLTAuNjAyNjZ2MC40NTg1NWgwLjY0NDE5djAuMTQ0MWgtMC44MTU0eiIgc3R5bGU9IiIvPjxwYXRoIGQ9Im00NDkuMDMgMTIxLjU1aDEuMDcwNXYwLjE0NDFoLTAuNDQ5MjN2MS4xMjE0aC0wLjE3MjA3di0xLjEyMTRoLTAuNDQ5MjN6IiBzdHlsZT0iIi8+PHBhdGggZD0ibTQ1MC4yNyAxMjEuNTVoMC4xNzEyMnYwLjUxODc0aDAuNjIyMTV2LTAuNTE4NzRoMC4xNzEyMnYxLjI2NTVoLTAuMTcxMjJ2LTAuNjAyNjVoLTAuNjIyMTV2MC42MDI2NWgtMC4xNzEyMnoiIHN0eWxlPSIiLz48cGF0aCBkPSJtNDUxLjk2IDEyMi4yMnEtMC4xMjIwNiAwLTAuMTkyNDEgMC4wNjUzLTAuMDY5NSAwLjA2NTMtMC4wNjk1IDAuMTc5NjkgMCAwLjExNDQzIDAuMDY5NSAwLjE3OTY5IDAuMDcwNCAwLjA2NTMgMC4xOTI0MSAwLjA2NTMgMC4xMjIwNiAwIDAuMTkyNDEtMC4wNjUzIDAuMDcwNC0wLjA2NjEgMC4wNzA0LTAuMTc5NjkgMC0wLjExNDQzLTAuMDcwNC0wLjE3OTY5LTAuMDY5NS0wLjA2NTMtMC4xOTI0MS0wLjA2NTN6bS0wLjE3MTIyLTAuMDcyOXEtMC4xMTAxOS0wLjAyNzEtMC4xNzIwNi0wLjEwMjU3LTAuMDYxLTAuMDc1NC0wLjA2MS0wLjE4MzkzIDAtMC4xNTE3MiAwLjEwNzY1LTAuMjM5ODcgMC4xMDg0OS0wLjA4ODEgMC4yOTY2Ni0wLjA4ODEgMC4xODkwMiAwIDAuMjk2NjcgMC4wODgxIDAuMTA3NjQgMC4wODgxIDAuMTA3NjQgMC4yMzk4NyAwIDAuMTA4NS0wLjA2MTkgMC4xODM5My0wLjA2MSAwLjA3NTQtMC4xNzAzNyAwLjEwMjU3IDAuMTIzNzUgMC4wMjg4IDAuMTkyNCAwLjExMjczIDAuMDY5NSAwLjA4MzkgMC4wNjk1IDAuMjA1MTIgMCAwLjE4MzkzLTAuMTEyNzMgMC4yODIyNi0wLjExMTg5IDAuMDk4My0wLjMyMTI1IDAuMDk4M3QtMC4zMjIwOS0wLjA5ODNxLTAuMTExODktMC4wOTgzLTAuMTExODktMC4yODIyNiAwLTAuMTIxMjEgMC4wNjk1LTAuMjA1MTIgMC4wNjk1LTAuMDgzOSAwLjE5MzI1LTAuMTEyNzN6bS0wLjA2MjctMC4yNzAzOXEwIDAuMDk4MyAwLjA2MSAwLjE1MzQyIDAuMDYxOSAwLjA1NTEgMC4xNzI5MSAwLjA1NTEgMC4xMTAxOSAwIDAuMTcyMDctMC4wNTUxIDAuMDYyNy0wLjA1NTEgMC4wNjI3LTAuMTUzNDIgMC0wLjA5ODMtMC4wNjI3LTAuMTUzNDItMC4wNjE5LTAuMDU1MS0wLjE3MjA3LTAuMDU1MS0wLjExMTA0IDAtMC4xNzI5MSAwLjA1NTEtMC4wNjEgMC4wNTUxLTAuMDYxIDAuMTUzNDJ6IiBzdHlsZT0iIi8+PC9nPjxnIHRyYW5zZm9ybT0ic2NhbGUoMS4wNTA4IC45NTE2NykiIGFyaWEtbGFiZWw9IkVUSDkiPjxwYXRoIGQ9Im00NTYuMTggMTIxLjU1aDAuODAwMTR2MC4xNDQxaC0wLjYyODkzdjAuMzc0NjRoMC42MDI2NnYwLjE0NDFoLTAuNjAyNjZ2MC40NTg1NWgwLjY0NDE5djAuMTQ0MWgtMC44MTU0eiIgc3R5bGU9IiIvPjxwYXRoIGQ9Im00NTcuMTEgMTIxLjU1aDEuMDcwNXYwLjE0NDFoLTAuNDQ5MjR2MS4xMjE0aC0wLjE3MjA2di0xLjEyMTRoLTAuNDQ5MjR6IiBzdHlsZT0iIi8+PHBhdGggZD0ibTQ1OC4zNCAxMjEuNTVoMC4xNzEyMnYwLjUxODc0aDAuNjIyMTV2LTAuNTE4NzRoMC4xNzEyMXYxLjI2NTVoLTAuMTcxMjF2LTAuNjAyNjVoLTAuNjIyMTV2MC42MDI2NWgtMC4xNzEyMnoiIHN0eWxlPSIiLz48cGF0aCBkPSJtNDU5LjY3IDEyMi43OXYtMC4xNTU5NnEwLjA2NDQgMC4wMzA1IDAuMTMwNTMgMC4wNDY2IDAuMDY2MSAwLjAxNjEgMC4xMjk2OCAwLjAxNjEgMC4xNjk1MyAwIDAuMjU4NTMtMC4xMTM1OCAwLjA4OTgtMC4xMTQ0MiAwLjEwMjU2LTAuMzQ2NjctMC4wNDkyIDAuMDcyOS0wLjEyNDYgMC4xMTE4OS0wLjA3NTQgMC4wMzktMC4xNjY5OCAwLjAzOS0wLjE4OTg3IDAtMC4zMDA5LTAuMTE0NDMtMC4xMTAxOS0wLjExNTI4LTAuMTEwMTktMC4zMTQ0NyAwLTAuMTk0OTUgMC4xMTUyNy0wLjMxMjc2IDAuMTE1MjgtMC4xMTc4MiAwLjMwNjg0LTAuMTE3ODIgMC4yMTk1MyAwIDAuMzM0OCAwLjE2ODY3IDAuMTE2MTMgMC4xNjc4MyAwLjExNjEzIDAuNDg4MjMgMCAwLjI5OTItMC4xNDI0IDAuNDc4MDUtMC4xNDE1NSAwLjE3OC0wLjM4MTQzIDAuMTc4LTAuMDY0NCAwLTAuMTMwNTMtMC4wMTI3LTAuMDY2MS0wLjAxMjctMC4xMzczMS0wLjAzODF6bTAuMzQwNzQtMC41MzY1NHEwLjExNTI3IDAgMC4xODIyMy0wLjA3ODggMC4wNjc4LTAuMDc4OCAwLjA2NzgtMC4yMTYxNSAwLTAuMTM2NDYtMC4wNjc4LTAuMjE1MjktMC4wNjctMC4wNzk3LTAuMTgyMjMtMC4wNzk3LTAuMTE1MjggMC0wLjE4MzA5IDAuMDc5Ny0wLjA2NyAwLjA3ODgtMC4wNjcgMC4yMTUyOSAwIDAuMTM3MzIgMC4wNjcgMC4yMTYxNSAwLjA2NzggMC4wNzg4IDAuMTgzMDkgMC4wNzg4eiIgc3R5bGU9IiIvPjwvZz48ZyB0cmFuc2Zvcm09InNjYWxlKDEuMDUwOCAuOTUxNjcpIiBhcmlhLWxhYmVsPSJFVEgxMCI+PHBhdGggZD0ibTQ2My43IDEyMS41NWgwLjgwMDE1djAuMTQ0MWgtMC42Mjg5M3YwLjM3NDY0aDAuNjAyNjV2MC4xNDQxaC0wLjYwMjY1djAuNDU4NTVoMC42NDQxOXYwLjE0NDFoLTAuODE1NDF6IiBzdHlsZT0iIi8+PHBhdGggZD0ibTQ2NC42MiAxMjEuNTVoMS4wNzA1djAuMTQ0MWgtMC40NDkyNHYxLjEyMTRoLTAuMTcyMDZ2LTEuMTIxNGgtMC40NDkyNHoiIHN0eWxlPSIiLz48cGF0aCBkPSJtNDY1Ljg2IDEyMS41NWgwLjE3MTIydjAuNTE4NzRoMC42MjIxNHYtMC41MTg3NGgwLjE3MTIydjEuMjY1NWgtMC4xNzEyMnYtMC42MDI2NWgtMC42MjIxNHYwLjYwMjY1aC0wLjE3MTIyeiIgc3R5bGU9IiIvPjxwYXRoIGQ9Im00NjcuMjEgMTIyLjY4aDAuMjc5NzF2LTAuOTY1NDNsLTAuMzA0MyAwLjA2MXYtMC4xNTU5NmwwLjMwMjYtMC4wNjFoMC4xNzEyMnYxLjEyMTRoMC4yNzk3MXYwLjE0NDFoLTAuNzI4OTR6IiBzdHlsZT0iIi8+PHBhdGggZD0ibTQ2OC42NSAxMjEuNjdxLTAuMTMyMjIgMC0wLjE5OTE5IDAuMTMwNTMtMC4wNjYxIDAuMTI5NjgtMC4wNjYxIDAuMzkwNzUgMCAwLjI2MDIxIDAuMDY2MSAwLjM5MDc1IDAuMDY3IDAuMTI5NjggMC4xOTkxOSAwLjEyOTY4IDAuMTMzMDggMCAwLjE5OTE5LTAuMTI5NjggMC4wNjctMC4xMzA1NCAwLjA2Ny0wLjM5MDc1IDAtMC4yNjEwNy0wLjA2Ny0wLjM5MDc1LTAuMDY2MS0wLjEzMDUzLTAuMTk5MTktMC4xMzA1M3ptMC0wLjEzNTYycTAuMjEyNzUgMCAwLjMyNDY0IDAuMTY4NjcgMC4xMTI3MyAwLjE2NzgzIDAuMTEyNzMgMC40ODgyMyAwIDAuMzE5NTUtMC4xMTI3MyAwLjQ4ODIyLTAuMTExODkgMC4xNjc4My0wLjMyNDY0IDAuMTY3ODN0LTAuMzI1NDgtMC4xNjc4M3EtMC4xMTE4OC0wLjE2ODY3LTAuMTExODgtMC40ODgyMiAwLTAuMzIwNCAwLjExMTg4LTAuNDg4MjMgMC4xMTI3My0wLjE2ODY3IDAuMzI1NDgtMC4xNjg2N3oiIHN0eWxlPSIiLz48L2c+PC9nPjxnIHRyYW5zZm9ybT0ibWF0cml4KDEuMTQgMCAwIDEuMDMyNSAxMTEuMDggLTM2LjAzNSkiPjxjaXJjbGUgY3g9IjI4NSIgY3k9IjE0MSIgcj0iLjYiIGZpbGw9IiMwZjAiLz48Y2lyY2xlIGN4PSIyODUiIGN5PSIxNDEiIHI9Ii42IiBmaWxsPSJub25lIiBzdHJva2U9IiMwMDgwMDAiIHN0cm9rZS13aWR0aD0iLjIiLz48L2c+PGcgdHJhbnNmb3JtPSJtYXRyaXgoMS4xNCAwIDAgMS4wMzI1IDExMS4wOCAtMzYuMDM1KSI+PGNpcmNsZSBjeD0iMjg3LjQiIGN5PSIxNDEiIHI9Ii42IiBmaWxsPSIjMGYwIi8+PGNpcmNsZSBjeD0iMjg3LjQiIGN5PSIxNDEiIHI9Ii42IiBmaWxsPSJub25lIiBzdHJva2U9IiMwMDgwMDAiIHN0cm9rZS13aWR0aD0iLjIiLz48L2c+PGcgdHJhbnNmb3JtPSJtYXRyaXgoMS4xNCAwIDAgMS4wMzI1IDExMS4wOCAtMzYuMDM1KSI+PGNpcmNsZSBjeD0iMjg5LjgiIGN5PSIxNDEiIHI9Ii42IiBmaWxsPSIjMGYwIi8+PGNpcmNsZSBjeD0iMjg5LjgiIGN5PSIxNDEiIHI9Ii42IiBmaWxsPSJub25lIiBzdHJva2U9IiMwMDgwMDAiIHN0cm9rZS13aWR0aD0iLjIiLz48L2c+PGcgdHJhbnNmb3JtPSJtYXRyaXgoMS4xNCAwIDAgMS4wMzI1IDExMS4wOCAtMzYuMDM1KSI+PGNpcmNsZSBjeD0iMjkyLjIiIGN5PSIxNDEiIHI9Ii42IiBmaWxsPSIjMGYwIi8+PGNpcmNsZSBjeD0iMjkyLjIiIGN5PSIxNDEiIHI9Ii42IiBmaWxsPSJub25lIiBzdHJva2U9IiMwMDgwMDAiIHN0cm9rZS13aWR0aD0iLjIiLz48L2c+PGcgdHJhbnNmb3JtPSJtYXRyaXgoMS4xNCAwIDAgMS4wMzI1IDExMS4wOCAtMzYuMDM1KSI+PGNpcmNsZSBjeD0iMjk0LjYiIGN5PSIxNDEiIHI9Ii42IiBmaWxsPSIjMGYwIi8+PGNpcmNsZSBjeD0iMjk0LjYiIGN5PSIxNDEiIHI9Ii42IiBmaWxsPSJub25lIiBzdHJva2U9IiMwMDgwMDAiIHN0cm9rZS13aWR0aD0iLjIiLz48L2c+PGcgdHJhbnNmb3JtPSJtYXRyaXgoMS4xNCAwIDAgMS4wMzI1IDExMS4wOCAtMzYuMDM1KSI+PGNpcmNsZSBjeD0iMjg1IiBjeT0iMTQzLjgiIHI9Ii42IiBmaWxsPSIjMGYwIi8+PGNpcmNsZSBjeD0iMjg1IiBjeT0iMTQzLjgiIHI9Ii42IiBmaWxsPSJub25lIiBzdHJva2U9IiMwMDgwMDAiIHN0cm9rZS13aWR0aD0iLjIiLz48L2c+PGcgdHJhbnNmb3JtPSJtYXRyaXgoMS4xNCAwIDAgMS4wMzI1IDExMS4wOCAtMzYuMDM1KSI+PGNpcmNsZSBjeD0iMjg3LjQiIGN5PSIxNDMuOCIgcj0iLjYiIGZpbGw9IiMwZjAiLz48Y2lyY2xlIGN4PSIyODcuNCIgY3k9IjE0My44IiByPSIuNiIgZmlsbD0ibm9uZSIgc3Ryb2tlPSIjMDA4MDAwIiBzdHJva2Utd2lkdGg9Ii4yIi8+PC9nPjxnIHRyYW5zZm9ybT0ibWF0cml4KDEuMTQgMCAwIDEuMDMyNSAxMTEuMDggLTM2LjAzNSkiPjxjaXJjbGUgY3g9IjI4OS44IiBjeT0iMTQzLjgiIHI9Ii42IiBmaWxsPSIjMGYwIi8+PGNpcmNsZSBjeD0iMjg5LjgiIGN5PSIxNDMuOCIgcj0iLjYiIGZpbGw9Im5vbmUiIHN0cm9rZT0iIzAwODAwMCIgc3Ryb2tlLXdpZHRoPSIuMiIvPjwvZz48ZyB0cmFuc2Zvcm09Im1hdHJpeCgxLjE0IDAgMCAxLjAzMjUgMTExLjA4IC0zNi4wMzUpIj48Y2lyY2xlIGN4PSIyOTIuMiIgY3k9IjE0My44IiByPSIuNiIgZmlsbD0iIzBmMCIvPjxjaXJjbGUgY3g9IjI5Mi4yIiBjeT0iMTQzLjgiIHI9Ii42IiBmaWxsPSJub25lIiBzdHJva2U9IiMwMDgwMDAiIHN0cm9rZS13aWR0aD0iLjIiLz48L2c+PGcgdHJhbnNmb3JtPSJtYXRyaXgoMS4xNCAwIDAgMS4wMzI1IDExMS4wOCAtMzYuMDM1KSI+PGNpcmNsZSBjeD0iMjk0LjYiIGN5PSIxNDMuOCIgcj0iLjYiIGZpbGw9IiMwZjAiLz48Y2lyY2xlIGN4PSIyOTQuNiIgY3k9IjE0My44IiByPSIuNiIgZmlsbD0ibm9uZSIgc3Ryb2tlPSIjMDA4MDAwIiBzdHJva2Utd2lkdGg9Ii4yIi8+PC9nPjxnIHRyYW5zZm9ybT0ibWF0cml4KC4wNDk1MDkgMCAwIC4wNDk1MDkgNTYyLjQ1IDEwNi42MSkiIGZpbGw9IiNmZmYiPjxnIGlkPSJWaWxuaXNoaSIgZmlsbD0iI2ZmZiI+PGcgZmlsbD0iI2ZmZiIgZmlsbC1ydWxlPSJldmVub2RkIj48cG9seWdvbiBwb2ludHM9IjEzMS4xOSA2My44MzIgMTMxLjUyIDYzLjgzMiAxMDcuMzIgMTUyLjQ3IDExOC4zNSAxNTIuNDcgMTQzLjU0IDU0LjUwMSAxMjcuMjQgNTQuNTAxIDYyLjY5NyAxNDIuNDUgNDQuNDIxIDU0LjUwMSAyOC4xMjIgNTQuNTAxIDIuNjAyIDE1Mi40NyAxMy40NjcgMTUyLjQ3IDM1LjY5NSA2Mi40NTkgMzYuMDI0IDYyLjQ1OSA1NC45NTggMTUyLjQ3IDY2LjE1NSAxNTIuNDciLz48cGF0aCBkPSJtMTU0LjExIDgxLjY2OC0xOC4yNzYgNzAuNzk4aDEwLjM3M2wxOC4yNzUtNzAuNzk4aC0xMC4zNzJ6Ii8+PHBvbHlnb24gcG9pbnRzPSIyMDQuNjMgMTA4Ljk3IDI0NC44IDgxLjY2OCAyMzAuOTcgODEuNjY4IDE4MS4yNSAxMTYuMjQgMTgwLjkyIDExNS45NyAxODkuNzggODEuNjU0IDE3OS4zOSA4MS42NTQgMTYxLjMyIDE1Mi40NyAxNzEuNyAxNTIuNDcgMTc4LjI4IDEyNi44MSAxOTYuMzkgMTE0LjE4IDIxOC45NSAxNTIuNDcgMjMwLjMxIDE1Mi40NyIvPjxwYXRoIGQ9Im0yNTAuOTEgODEuNjY4LTE4LjI3NSA3MC43OThoMTAuMzczbDkuNTQ5LTM3LjA0NmMzLjQ1OC0xMy4zMDkgMTMuMzM2LTI1Ljc5NCAzMS45NDEtMjYuMDY4IDEuOTc2IDAgMy45NTIgMC4xMzcgNS45MjcgMC4xMzdsMi4zMDUtOC42NDRjLTEuODEyLTAuMTM4LTMuNzg3LTAuMTM4LTUuNTk4LTAuMTM4LTE1LjE0Ny0wLjEzNy0yNC4yMDMgNy4xMzUtMzAuNzg5IDE3LjI4OWgtMC4zM2w0LjI4MS0xNi4zMjhoLTkuMzg0eiIvPjxwYXRoIGQ9Im0zNjQuNyAxMDcuMzJjMC0xNy40MjUtMTMuODMtMjcuNzE2LTMzLjU4OC0yNy43MTYtMzAuMjk1IDAtNDcuNDE4IDIyLjIyOC00Ny40MTggNDUuNDE1IDAgMTcuNyAxMi4wMTkgMjkuNSAzMy45MTYgMjkuNSAzMS40NS0xZS0zIDQ3LjA5LTIzLjMyNSA0Ny4wOS00Ny4xOTl6bS0xMC4zNzMgMS43ODNjMCAxNi40NjUtMTIuMDIgMzguMTQ0LTM0Ljc0IDM4LjE0NC0xNy4yODggMC0yNS41Mi05LjMzMS0yNS41Mi0yMy4wNTEgMC0xNi42MDEgMTIuNTE0LTM3LjMyIDM1LjIzNC0zNy4zMiAxNi42MjkgMCAyNS4wMjYgOS4wNTYgMjUuMDI2IDIyLjIyN3oiLz48cG9seWdvbiBwb2ludHM9IjQzMS42NiA4MS42NTQgNDY0LjI0IDgxLjYxOCA0NzAuOTggNTQuNDg1IDM2OS41NiA1NC40ODUgMzYyLjg2IDgxLjY1NCAzOTUuMzkgODEuNjU0IDM5NS4zOSA4MS42NjIgNDMxLjY2IDgxLjY2MiIvPjxwb2x5Z29uIHBvaW50cz0iMzc3Ljc5IDE1Mi40NSA0MTQuMDEgMTUyLjQ1IDQyOC40MiA5NC42NTQgNDI4LjQzIDk0LjYzIDM5Mi4xNiA5NC42MyAzOTIuMTYgOTQuNjM0Ii8+PHBhdGggZD0ibTQ3MC4wNiA5NC42MzktMTQuMzE1IDU3LjgxMWgzMi42MDFsMTQuMzE1LTU3LjgxMWgtMzIuNjAxem0zNS44NzctMTMuMDIxIDYuNzc0LTI3LjEzM2gtMzIuNmwtNi44MjEgMjcuMTY4IDMyLjY0Ny0wLjAzNXoiLz48cG9seWdvbiBwb2ludHM9IjU3Mi4xNCAxMDkuOTIgNjEwLjUgODEuMjQgNTcxLjQ4IDgxLjI0IDU0Ny40NCAxMDIuMSA1NDcuMTEgMTAyLjEgNTU4LjggNTQuNDg1IDUyNi4yIDU0LjQ4NSA1MDEuODMgMTUyLjQ1IDUzNC40MyAxNTIuNDUgNTM5LjU0IDEzMi4xNCA1NDYuOTUgMTI2LjY2IDU1OC40NyAxNTIuNDUgNTkzLjg3IDE1Mi40NSIvPjxwYXRoIGQ9Im0xNTIuODggMTEuNjk0YzQuOTM3IDM0LjI3NiAyMy4zMzcgNTUuMDg5IDYwLjgzMSA1Ni44MDktMzUuMzI4IDEzLjUwNS03MS43NDctMTguMjY1LTYwLjgzMS01Ni44MDl6Ii8+PHBhdGggZD0ibTE2OC4xMiA2Ljg0YzMuOTg0IDI3LjY1OSAxOC44MzIgNDQuNDUzIDQ5LjA4NiA0NS44NDEtMjguNTA2IDEwLjg5OC01Ny44OTQtMTQuNzM5LTQ5LjA4Ni00NS44NDF6Ii8+PC9nPjwvZz48L2c+PGNpcmNsZSBjeD0iMzczLjg3IiBjeT0iMTEyLjI1IiByPSIuNjUxODQiIGZpbGw9IiMwNmYiIGZpbGwtb3BhY2l0eT0iLjk2NjIyIiBmaWxsLXJ1bGU9ImV2ZW5vZGQiIHN0cm9rZT0iIzA0YSIgc3Ryb2tlLWxpbmVqb2luPSJyb3VuZCIgc3Ryb2tlLXdpZHRoPSIuMTA2MjIiLz48Y2lyY2xlIGN4PSIzNzMuODciIGN5PSIxMDkuNjIiIHI9Ii42NTE4NCIgZmlsbD0iIzRkNGQ0ZCIgZmlsbC1vcGFjaXR5PSIuOTY2MjIiIGZpbGwtcnVsZT0iZXZlbm9kZCIgc3Ryb2tlPSIjMDkwOTA5IiBzdHJva2UtbGluZWpvaW49InJvdW5kIiBzdHJva2Utd2lkdGg9Ii4wNTMxMDkiLz48L3N2Zz4=;points=[[0.116,0.7,0],[0.152,0.7,0],[0.188,0.7,0],[0.224,0.7,0],[0.260,0.7,0],[0.388,0.7,0],[0.424,0.7,0],[0.460,0.7,0],[0.496,0.7,0],[0.532,0.7,0]];container=1;collapsible=0;" vertex="1" parent="1">
            <mxGeometry x="200" y="360" width="443" height="45" as="geometry" />
          </mxCell>
        </UserObject>
        <mxCell id="M3h9QTwmvYOQUAOVeUot-3" value="&lt;b&gt;&lt;font style=&quot;font-size: 22px;&quot;&gt;WAN&lt;/font&gt;&lt;/b&gt;" style="text;html=1;strokeColor=none;fillColor=none;align=center;verticalAlign=middle;whiteSpace=wrap;rounded=0;" vertex="1" parent="1">
          <mxGeometry x="240" y="40" width="60" height="30" as="geometry" />
        </mxCell>
        <mxCell id="M3h9QTwmvYOQUAOVeUot-4" value="&lt;font style=&quot;font-size: 22px;&quot;&gt;&lt;b&gt;NAT&lt;/b&gt;&lt;/font&gt;" style="text;html=1;strokeColor=none;fillColor=none;align=center;verticalAlign=middle;whiteSpace=wrap;rounded=0;" vertex="1" parent="1">
          <mxGeometry x="370" y="40" width="60" height="30" as="geometry" />
        </mxCell>
        <mxCell id="M3h9QTwmvYOQUAOVeUot-5" value="" style="endArrow=classic;startArrow=classic;html=1;rounded=0;entryX=0.116;entryY=0.7;entryDx=0;entryDy=0;entryPerimeter=0;" edge="1" parent="1" target="M3h9QTwmvYOQUAOVeUot-1">
          <mxGeometry width="50" height="50" relative="1" as="geometry">
            <mxPoint x="80" y="160" as="sourcePoint" />
            <mxPoint x="440" y="210" as="targetPoint" />
            <Array as="points">
              <mxPoint x="251" y="160" />
            </Array>
          </mxGeometry>
        </mxCell>
        <mxCell id="M3h9QTwmvYOQUAOVeUot-6" value="RT" style="text;html=1;strokeColor=none;fillColor=none;align=center;verticalAlign=middle;whiteSpace=wrap;rounded=0;" vertex="1" parent="1">
          <mxGeometry x="10" y="140" width="60" height="30" as="geometry" />
        </mxCell>
        <mxCell id="M3h9QTwmvYOQUAOVeUot-7" value="" style="endArrow=classic;startArrow=classic;html=1;rounded=0;entryX=0.152;entryY=0.7;entryDx=0;entryDy=0;entryPerimeter=0;" edge="1" parent="1" target="M3h9QTwmvYOQUAOVeUot-1">
          <mxGeometry width="50" height="50" relative="1" as="geometry">
            <mxPoint x="80" y="200" as="sourcePoint" />
            <mxPoint x="440" y="210" as="targetPoint" />
            <Array as="points">
              <mxPoint x="267" y="200" />
            </Array>
          </mxGeometry>
        </mxCell>
        <mxCell id="M3h9QTwmvYOQUAOVeUot-8" value="ERTEL" style="text;html=1;strokeColor=none;fillColor=none;align=center;verticalAlign=middle;whiteSpace=wrap;rounded=0;" vertex="1" parent="1">
          <mxGeometry x="10" y="190" width="60" height="30" as="geometry" />
        </mxCell>
        <mxCell id="M3h9QTwmvYOQUAOVeUot-9" value="" style="endArrow=classic;startArrow=classic;html=1;rounded=0;entryX=0.188;entryY=0.7;entryDx=0;entryDy=0;entryPerimeter=0;" edge="1" parent="1" target="M3h9QTwmvYOQUAOVeUot-1">
          <mxGeometry width="50" height="50" relative="1" as="geometry">
            <mxPoint x="80" y="240" as="sourcePoint" />
            <mxPoint x="440" y="210" as="targetPoint" />
            <Array as="points">
              <mxPoint x="283" y="240" />
            </Array>
          </mxGeometry>
        </mxCell>
        <mxCell id="M3h9QTwmvYOQUAOVeUot-10" value="Permtel" style="text;html=1;strokeColor=none;fillColor=none;align=center;verticalAlign=middle;whiteSpace=wrap;rounded=0;" vertex="1" parent="1">
          <mxGeometry x="10" y="220" width="60" height="30" as="geometry" />
        </mxCell>
      </root>
    </mxGraphModel>
  </diagram>
</mxfile>
